ply
format ascii 1.0
comment Created in Blender version 4.3.2
element vertex 428
property float x
property float y
property float z
property uchar red
property uchar green
property uchar blue
property uchar alpha
property float s
property float t
property float Color_r
property float Color_g
property float Color_b
property float Color_a
element face 286
property list uchar uint vertex_indices
end_header
0.4635165 2.3302548 -0.74347544 0 135 254 255 0.70317835 0.48538846 0 0.026300527 1 1
0.4635165 2.3302548 3.8029852 0 135 254 255 0.75 0.49 0 0.026300527 1 1
0.9092204 2.195052 3.8029852 0 135 254 255 0.74999994 0.40894115 0 0.026300527 1 1
0.9092204 2.195052 -0.74347544 0 135 254 255 0.71899223 0.4058872 0 0.026300527 1 1
1.3199834 1.9754946 -0.74347544 0 135 254 255 0.79682165 0.48538846 0 0.026300527 1 1
1.3199834 1.9754946 3.8029852 0 135 254 255 0.7810078 0.40588713 0 0.026300527 1 1
1.6800201 1.6800201 3.8029852 0 135 254 255 0.658156 0.47173107 0 0.026300527 1 1
1.6800201 1.6800201 -0.74347544 0 135 254 255 0.6891759 0.39684242 0 0.026300527 1 1
1.9754946 1.3199834 3.8029852 0 135 254 255 0.61666316 0.4495527 0 0.026300527 1 1
1.9754946 1.3199834 -0.74347544 0 135 254 255 0.66169703 0.38215473 0 0.026300527 1 1
2.195052 0.9092204 3.8029852 0 135 254 255 0.5802944 0.41970563 0 0.026300527 1 1
2.195052 0.9092204 -0.74347544 0 135 254 255 0.63761175 0.36238837 0 0.026300527 1 1
2.3302548 0.4635165 3.8029852 0 135 254 255 0.5504473 0.38333684 0 0.026300527 1 1
2.3302548 0.4635165 -0.74347544 0 135 254 255 0.6178453 0.338303 0 0.026300527 1 1
2.3759072 0 3.8029852 0 135 254 255 0.52826893 0.34184402 0 0.026300527 1 1
2.3759072 0 -0.74347544 0 135 254 255 0.60315764 0.31082413 0 0.026300527 1 1
2.3302548 -0.4635165 3.8029852 0 135 254 255 0.51461154 0.29682168 0 0.026300527 1 1
2.3302548 -0.4635165 -0.74347544 0 135 254 255 0.5941128 0.28100786 0 0.026300527 1 1
2.195052 -0.9092204 3.8029852 0 135 254 255 0.51 0.25 0 0.026300527 1 1
2.195052 -0.9092204 -0.74347544 0 135 254 255 0.59105897 0.25 0 0.026300527 1 1
1.9754946 -1.3199834 3.8029852 0 135 254 255 0.51461154 0.20317832 0 0.026300527 1 1
1.9754946 -1.3199834 -0.74347544 0 135 254 255 0.59411293 0.21899214 0 0.026300527 1 1
1.6800201 -1.6800201 3.8029852 0 135 254 255 0.52826893 0.15815598 0 0.026300527 1 1
1.6800201 -1.6800201 -0.74347544 0 135 254 255 0.6031576 0.1891759 0 0.026300527 1 1
1.3199834 -1.9754946 3.8029852 0 135 254 255 0.5504473 0.11666314 0 0.026300527 1 1
1.3199834 -1.9754946 -0.74347544 0 135 254 255 0.6178452 0.16169703 0 0.026300527 1 1
0.9092204 -2.195052 3.8029852 0 135 254 255 0.5802944 0.080294386 0 0.026300527 1 1
0.9092204 -2.195052 -0.74347544 0 135 254 255 0.63761175 0.13761169 0 0.026300527 1 1
0.4635165 -2.3302548 3.8029852 0 135 254 255 0.61666316 0.0504473 0 0.026300527 1 1
0.4635165 -2.3302548 -0.74347544 0 135 254 255 0.6616971 0.117845304 0 0.026300527 1 1
0 -2.3759072 3.8029852 0 135 254 255 0.658156 0.028268918 0 0.026300527 1 1
0 -2.3759072 -0.74347544 0 135 254 255 0.6891759 0.103157565 0 0.026300527 1 1
-0.4635165 -2.3302548 3.8029852 0 135 254 255 0.70317835 0.014611542 0 0.026300527 1 1
-0.4635165 -2.3302548 -0.74347544 0 135 254 255 0.7189921 0.094112866 0 0.026300527 1 1
-0.4635165 -2.3302548 -0.74347544 0 135 254 255 0.75 0.010000005 0 0.026300527 1 1
-0.9092204 -2.195052 3.8029852 0 135 254 255 0.75 0.09105891 0 0.026300527 1 1
-0.9092204 -2.195052 -0.74347544 0 135 254 255 0.79682165 0.014611542 0 0.026300527 1 1
-1.3199834 -1.9754946 3.8029852 0 135 254 255 0.7810079 0.094112866 0 0.026300527 1 1
-1.3199834 -1.9754946 -0.74347544 0 135 254 255 0.841844 0.028268918 0 0.026300527 1 1
-1.6800201 -1.6800201 3.8029852 0 135 254 255 0.8108242 0.10315756 0 0.026300527 1 1
-1.6800201 -1.6800201 -0.74347544 0 135 254 255 0.88333684 0.0504473 0 0.026300527 1 1
-1.9754946 -1.3199834 3.8029852 0 135 254 255 0.8383029 0.11784528 0 0.026300527 1 1
-1.9754946 -1.3199834 -0.74347544 0 135 254 255 0.9197056 0.080294386 0 0.026300527 1 1
-2.195052 -0.9092204 3.8029852 0 135 254 255 0.8623884 0.13761164 0 0.026300527 1 1
-2.195052 -0.9092204 -0.74347544 0 135 254 255 0.9495527 0.11666314 0 0.026300527 1 1
-2.3302548 -0.4635165 3.8029852 0 135 254 255 0.8821545 0.16169703 0 0.026300527 1 1
-2.3302548 -0.4635165 -0.74347544 0 135 254 255 0.97173107 0.15815598 0 0.026300527 1 1
-2.3302548 -0.4635165 -0.74347544 0 135 254 255 0.8968424 0.18917584 0 0.026300527 1 1
-2.3759072 0 3.8029852 0 135 254 255 0.98538846 0.20317832 0 0.026300527 1 1
-2.3759072 0 -0.74347544 0 135 254 255 0.9058871 0.21899217 0 0.026300527 1 1
-2.3302548 0.4635165 3.8029852 0 135 254 255 0.99 0.25 0 0.026300527 1 1
-2.3302548 0.4635165 -0.74347544 0 135 254 255 0.9089411 0.25000003 0 0.026300527 1 1
-2.195052 0.9092204 3.8029852 0 135 254 255 0.98538846 0.29682168 0 0.026300527 1 1
-2.195052 0.9092204 -0.74347544 0 135 254 255 0.9058872 0.2810079 0 0.026300527 1 1
-1.9754946 1.3199834 3.8029852 0 135 254 255 0.97173107 0.34184402 0 0.026300527 1 1
-1.9754946 1.3199834 -0.74347544 0 135 254 255 0.8968425 0.3108241 0 0.026300527 1 1
-1.6800201 1.6800201 3.8029852 0 135 254 255 0.9495527 0.38333684 0 0.026300527 1 1
-1.6800201 1.6800201 -0.74347544 0 135 254 255 0.88215464 0.338303 0 0.026300527 1 1
-1.3199834 1.9754946 3.8029852 0 135 254 255 0.9197056 0.41970563 0 0.026300527 1 1
-1.3199834 1.9754946 -0.74347544 0 135 254 255 0.8623884 0.36238825 0 0.026300527 1 1
-0.9092204 2.195052 3.8029852 0 135 254 255 0.88333684 0.4495527 0 0.026300527 1 1
-0.9092204 2.195052 -0.74347544 0 135 254 255 0.83830285 0.38215467 0 0.026300527 1 1
-0.4635165 2.3302548 3.8029852 0 135 254 255 0.841844 0.47173107 0 0.026300527 1 1
-0.4635165 2.3302548 -0.74347544 0 135 254 255 0.81082416 0.39684248 0 0.026300527 1 1
0 2.3759072 3.8029852 0 135 254 255 0.6891759 0.39684242 0 0.026300527 1 1
0 2.3759072 -0.74347544 0 135 254 255 0.71899223 0.4058872 0 0.026300527 1 1
0 2.3759072 -0.74347544 0 135 254 255 0.71899223 0.4058872 0 0.026300527 1 1
0 2.3759072 3.8029852 0 135 254 255 0.6891759 0.39684242 0 0.026300527 1 1
0.4635165 2.3302548 -0.74347544 0 135 254 255 0.74999994 0.40894115 0 0.026300527 1 1
-0.4635165 2.3302548 -0.74347544 253 250 240 255 0.74999994 0.40894115 0 0 0 0
0 2.3759072 -0.74347544 253 250 240 255 0.71899223 0.4058872 0 0 0 0
0 1.5734556 -1.5420628 253 250 240 255 0.74999994 0.40894115 0 0 0 0
-0.3069657 1.5432223 -1.5420628 253 250 240 255 0.6891759 0.39684242 0 0 0 0
0.4635165 2.3302548 -0.74347544 253 250 240 255 0.66169703 0.38215473 0 0 0 0
0.30696568 1.5432223 -1.5420628 253 250 240 255 0.66169703 0.38215473 0 0 0 0
-0.9092204 2.195052 -0.74347544 253 250 240 255 0.66169703 0.38215473 0 0 0 0
-0.60213554 1.4536834 -1.5420628 253 250 240 255 0.71899223 0.4058872 0 0 0 0
-1.3199834 1.9754946 -0.74347544 253 250 240 255 0.6891759 0.39684242 0 0 0 0
-0.8741653 1.3082806 -1.5420628 253 250 240 255 0.66169703 0.38215473 0 0 0 0
-1.6800201 1.6800201 -0.74347544 253 250 240 255 0.74999994 0.40894115 0 0 0 0
-1.1126012 1.1126012 -1.5420628 253 250 240 255 0.7810078 0.40588713 0 0 0 0
-1.9754946 1.3199834 -0.74347544 253 250 240 255 0.81082416 0.39684248 0 0 0 0
-1.3082806 0.8741653 -1.5420628 253 250 240 255 0.83830285 0.38215467 0 0 0 0
-2.195052 0.9092204 -0.74347544 253 250 240 255 0.8623884 0.36238825 0 0 0 0
-1.4536834 0.60213554 -1.5420628 253 250 240 255 0.88215464 0.338303 0 0 0 0
-2.3302548 0.4635165 -0.74347544 253 250 240 255 0.8968425 0.3108241 0 0 0 0
-1.5432223 0.30696568 -1.5420628 253 250 240 255 0.9058872 0.2810079 0 0 0 0
-2.3759072 0 -0.74347544 253 250 240 255 0.9089411 0.25000003 0 0 0 0
-1.5734556 0 -1.5420628 253 250 240 255 0.9058871 0.21899217 0 0 0 0
-2.3302548 -0.4635165 -0.74347544 253 250 240 255 0.8968424 0.18917584 0 0 0 0
-1.5432223 -0.3069657 -1.5420628 253 250 240 255 0.8821545 0.16169703 0 0 0 0
-2.195052 -0.9092204 -0.74347544 253 250 240 255 0.8623884 0.13761164 0 0 0 0
-1.4536834 -0.60213554 -1.5420628 253 250 240 255 0.8383029 0.11784528 0 0 0 0
-1.9754946 -1.3199834 -0.74347544 253 250 240 255 0.8108242 0.10315756 0 0 0 0
-1.3082806 -0.8741653 -1.5420628 253 250 240 255 0.7810079 0.094112866 0 0 0 0
-1.6800201 -1.6800201 -0.74347544 253 250 240 255 0.75 0.09105891 0 0 0 0
-1.1126012 -1.1126012 -1.5420628 253 250 240 255 0.7189921 0.094112866 0 0 0 0
-1.3199834 -1.9754946 -0.74347544 253 250 240 255 0.6891759 0.103157565 0 0 0 0
-0.8741653 -1.3082806 -1.5420628 253 250 240 255 0.6616971 0.117845304 0 0 0 0
-0.9092204 -2.195052 -0.74347544 253 250 240 255 0.63761175 0.13761169 0 0 0 0
-0.60213554 -1.4536834 -1.5420628 253 250 240 255 0.6178452 0.16169703 0 0 0 0
-0.4635165 -2.3302548 -0.74347544 253 250 240 255 0.6031576 0.1891759 0 0 0 0
-0.30696568 -1.5432223 -1.5420628 253 250 240 255 0.59411293 0.21899214 0 0 0 0
0 -2.3759072 -0.74347544 253 250 240 255 0.59105897 0.25 0 0 0 0
0 -1.5734556 -1.5420628 253 250 240 255 0.5941128 0.28100786 0 0 0 0
0.4635165 -2.3302548 -0.74347544 253 250 240 255 0.60315764 0.31082413 0 0 0 0
0.3069657 -1.5432223 -1.5420628 253 250 240 255 0.6178453 0.338303 0 0 0 0
0.9092204 -2.195052 -0.74347544 253 250 240 255 0.63761175 0.36238837 0 0 0 0
0.60213554 -1.4536834 -1.5420628 253 250 240 255 0.7810078 0.40588713 0 0 0 0
1.3199834 -1.9754946 -0.74347544 253 250 240 255 0.7810078 0.40588713 0 0 0 0
0.8741653 -1.3082806 -1.5420628 253 250 240 255 0.81082416 0.39684248 0 0 0 0
1.6800201 -1.6800201 -0.74347544 253 250 240 255 0.81082416 0.39684248 0 0 0 0
1.1126012 -1.1126012 -1.5420628 253 250 240 255 0.83830285 0.38215467 0 0 0 0
1.9754946 -1.3199834 -0.74347544 253 250 240 255 0.83830285 0.38215467 0 0 0 0
1.3082806 -0.8741653 -1.5420628 253 250 240 255 0.8623884 0.36238825 0 0 0 0
2.195052 -0.9092204 -0.74347544 253 250 240 255 0.88215464 0.338303 0 0 0 0
1.4536834 -0.60213554 -1.5420628 253 250 240 255 0.8623884 0.36238825 0 0 0 0
2.3302548 -0.4635165 -0.74347544 253 250 240 255 0.88215464 0.338303 0 0 0 0
1.5432223 -0.30696568 -1.5420628 253 250 240 255 0.8968425 0.3108241 0 0 0 0
2.3759072 0 -0.74347544 253 250 240 255 0.8968425 0.3108241 0 0 0 0
1.5734556 0 -1.5420628 253 250 240 255 0.9058872 0.2810079 0 0 0 0
2.3302548 0.4635165 -0.74347544 253 250 240 255 0.9058872 0.2810079 0 0 0 0
1.5432223 0.3069657 -1.5420628 253 250 240 255 0.9089411 0.25000003 0 0 0 0
2.195052 0.9092204 -0.74347544 253 250 240 255 0.9058871 0.21899217 0 0 0 0
1.4536834 0.60213554 -1.5420628 253 250 240 255 0.9089411 0.25000003 0 0 0 0
1.9754946 1.3199834 -0.74347544 253 250 240 255 0.9058871 0.21899217 0 0 0 0
1.3082806 0.8741653 -1.5420628 253 250 240 255 0.8968424 0.18917584 0 0 0 0
1.6800201 1.6800201 -0.74347544 253 250 240 255 0.8968424 0.18917584 0 0 0 0
1.1126012 1.1126012 -1.5420628 253 250 240 255 0.8821545 0.16169703 0 0 0 0
1.3199834 1.9754946 -0.74347544 253 250 240 255 0.8821545 0.16169703 0 0 0 0
0.8741653 1.3082806 -1.5420628 253 250 240 255 0.8623884 0.13761164 0 0 0 0
0.9092204 2.195052 -0.74347544 253 250 240 255 0.8383029 0.11784528 0 0 0 0
0.60213554 1.4536834 -1.5420628 253 250 240 255 0.8623884 0.13761164 0 0 0 0
-0.6021355 1.4536834 -2.5333495 253 0 9 255 0.8383029 0.11784528 0 0 0 0
-0.30696565 1.5432223 -2.5333495 253 0 9 255 0.8108242 0.10315756 0 0 0 0
-0.49680677 2.4976192 -2.53335 253 0 9 255 0.8108242 0.10315756 0 0 0 0
-0.9745227 2.3527055 -2.53335 253 0 9 255 0.7810079 0.094112866 0 0 0 0
5.664648e-08 1.5734556 -2.5333495 253 0 9 255 0.7810079 0.094112866 0 0 0 0
6.7320684e-08 2.54655 -2.53335 253 0 9 255 0.75 0.09105891 0 0 0 0
-0.3069657 1.5432223 -1.5420628 253 0 9 255 0.7189921 0.094112866 0 0 0 0
0 1.5734556 -1.5420628 253 0 9 255 0.75 0.09105891 0 0 0 0
-0.60213554 1.4536834 -1.5420628 253 0 9 255 0.7189921 0.094112866 0 0 0 0
-0.8741653 1.3082806 -1.5420628 253 0 9 255 0.6891759 0.103157565 0 0 0 0
-0.87416524 1.3082806 -2.5333495 253 0 9 255 0.6891759 0.103157565 0 0 0 0
-1.4147879 2.117379 -2.53335 253 0 9 255 0.6616971 0.117845304 0 0 0 0
-0.49680674 2.4976192 -3.1130152 253 0 9 255 0.6616971 0.117845304 0 0 0 0
-0.97452265 2.3527055 -3.1130152 253 0 9 255 0.63761175 0.13761169 0 0 0 0
-1.4147879 2.117379 -3.1130152 253 0 9 255 0.6178452 0.16169703 0 0 0 0
1.1910934e-07 2.54655 -3.1130152 253 0 9 255 0.63761175 0.13761169 0 0 0 0
0.49680695 2.4976192 -3.1130152 253 0 9 255 0.6178452 0.16169703 0 0 0 0
0.97452295 2.3527055 -3.1130152 253 0 9 255 0.6031576 0.1891759 0 0 0 0
1.4147879 2.117379 -3.1130152 253 0 9 255 0.6031576 0.1891759 0 0 0 0
1.8006829 1.8006829 -3.1130152 253 0 9 255 0.59411293 0.21899214 0 0 0 0
2.117379 1.4147879 -3.1130152 253 0 9 255 0.59411293 0.21899214 0 0 0 0
2.3527055 0.97452277 -3.1130152 253 0 9 255 0.6031576 0.1891759 0 0 0 0
2.4976192 0.4968069 -3.1130152 253 0 9 255 0.59411293 0.21899214 0 0 0 0
2.54655 -2.7369076e-09 -3.1130152 253 0 9 255 0.6178452 0.16169703 0 0 0 0
2.4976192 -0.4968068 -3.1130152 253 0 9 255 0.59105897 0.25 0 0 0 0
2.3527055 -0.97452277 -3.1130152 253 0 9 255 0.59105897 0.25 0 0 0 0
2.117379 -1.4147879 -3.1130152 253 0 9 255 0.59105897 0.25 0 0 0 0
1.8006829 -1.8006829 -3.1130152 253 0 9 255 0.5941128 0.28100786 0 0 0 0
1.4147879 -2.117379 -3.1130152 253 0 9 255 0.5941128 0.28100786 0 0 0 0
0.97452295 -2.3527055 -3.1130152 253 0 9 255 0.5941128 0.28100786 0 0 0 0
0.49680698 -2.4976192 -3.1130152 253 0 9 255 0.60315764 0.31082413 0 0 0 0
1.1910934e-07 -2.54655 -3.1130152 253 0 9 255 0.6178453 0.338303 0 0 0 0
-0.4968067 -2.4976192 -3.1130152 253 0 9 255 0.60315764 0.31082413 0 0 0 0
-0.97452265 -2.3527055 -3.1130152 253 0 9 255 0.6178453 0.338303 0 0 0 0
-1.4147879 -2.117379 -3.1130152 253 0 9 255 0.63761175 0.36238837 0 0 0 0
-1.8006829 -1.8006829 -3.1130152 253 0 9 255 0.63761175 0.36238837 0 0 0 0
-2.117379 -1.4147879 -3.1130152 253 0 9 255 0.6178453 0.338303 0 0 0 0
-2.3527055 -0.97452277 -3.1130152 253 0 9 255 0.63761175 0.36238837 0 0 0 0
-2.4976192 -0.4968069 -3.1130152 253 0 9 255 0.60315764 0.31082413 0 0 0 0
-2.54655 -2.7369076e-09 -3.1130152 253 0 9 255 0.63761175 0.13761169 0 0 0 0
-2.4976192 0.4968068 -3.1130152 253 0 9 255 0.6616971 0.117845304 0 0 0 0
-2.3527055 0.97452277 -3.1130152 253 0 9 255 0.6891759 0.103157565 0 0 0 0
-2.117379 1.4147879 -3.1130152 253 0 9 255 0.7189921 0.094112866 0 0 0 0
-1.8006829 1.8006829 -3.1130152 253 0 9 255 0.75 0.09105891 0 0 0 0
0.49680692 2.4976192 -2.53335 253 0 9 255 0.7810079 0.094112866 0 0 0 0
0.30696574 1.5432223 -2.5333495 253 0 9 255 0.8108242 0.10315756 0 0 0 0
0.6021356 1.4536834 -2.5333495 253 0 9 255 0.8383029 0.11784528 0 0 0 0
0.9745228 2.3527055 -2.53335 253 0 9 255 0.8623884 0.13761164 0 0 0 0
0.8741654 1.3082806 -2.5333495 253 0 9 255 0.8821545 0.16169703 0 0 0 0
1.4147879 2.117379 -2.53335 253 0 9 255 0.8968424 0.18917584 0 0 0 0
1.8006829 1.8006829 -2.53335 253 0 9 255 0.9058871 0.21899217 0 0 0 0
2.117379 1.4147879 -2.53335 253 0 9 255 0.9089411 0.25000003 0 0 0 0
1.1126013 1.1126012 -2.5333495 253 0 9 255 0.9058872 0.2810079 0 0 0 0
1.3082806 0.8741653 -2.5333495 253 0 9 255 0.8968425 0.3108241 0 0 0 0
1.4536834 0.60213554 -2.5333495 253 0 9 255 0.88215464 0.338303 0 0 0 0
2.3527055 0.97452277 -2.53335 253 0 9 255 0.8623884 0.36238825 0 0 0 0
1.5432223 0.3069657 -2.5333495 253 0 9 255 0.83830285 0.38215467 0 0 0 0
2.4976192 0.4968069 -2.53335 253 0 9 255 0.81082416 0.39684248 0 0 0 0
2.54655 -2.7369076e-09 -2.53335 253 0 9 255 0.7810078 0.40588713 0 0 0 0
2.4976192 -0.4968068 -2.53335 253 0 9 255 0.38333684 0.4495527 0 0 0 0
1.5734556 0 -2.5333495 253 0 9 255 0.34184402 0.47173107 0 0 0 0
1.5432223 -0.30696568 -2.5333495 253 0 9 255 0.25784296 0.26893455 0 0 0 0
1.4536834 -0.60213554 -2.5333495 253 0 9 255 0.26138622 0.26704058 0 0 0 0
2.3527055 -0.97452277 -2.53335 253 0 9 255 0.29682168 0.48538846 0 0 0 0
1.3082806 -0.8741653 -2.5333495 253 0 9 255 0.25399834 0.27010083 0 0 0 0
2.117379 -1.4147879 -2.53335 253 0 9 255 0.41970563 0.41970563 0 0 0 0
1.8006829 -1.8006829 -2.53335 253 0 9 255 0.2644919 0.26449186 0 0 0 0
1.4147879 -2.117379 -2.53335 253 0 9 255 0.4495527 0.38333684 0 0 0 0
1.1126013 -1.1126012 -2.5333495 253 0 9 255 0.2670406 0.26138628 0 0 0 0
0.8741654 -1.3082806 -2.5333495 253 0 9 255 0.47173107 0.34184402 0 0 0 0
0.6021356 -1.4536834 -2.5333495 253 0 9 255 0.26893455 0.257843 0 0 0 0
0.9745228 -2.3527055 -2.53335 253 0 9 255 0.48538846 0.29682168 0 0 0 0
0.3069658 -1.5432223 -2.5333495 253 0 9 255 0.27010083 0.25399828 0 0 0 0
0.49680695 -2.4976192 -2.53335 253 0 9 255 0.49 0.25 0 0 0 0
6.7320684e-08 -2.54655 -2.53335 253 0 9 255 0.27049458 0.25000003 0 0 0 0
-0.49680674 -2.4976192 -2.53335 253 0 9 255 0.48538846 0.20317832 0 0 0 0
5.664648e-08 -1.5734556 -2.5333495 253 0 9 255 0.27010083 0.24600175 0 0 0 0
-0.30696562 -1.5432223 -2.5333495 253 0 9 255 0.47173107 0.15815598 0 0 0 0
-0.6021355 -1.4536834 -2.5333495 253 0 9 255 0.26893455 0.24215713 0 0 0 0
-0.9745227 -2.3527055 -2.53335 253 0 9 255 0.4495527 0.11666314 0 0 0 0
-0.87416524 -1.3082806 -2.5333495 253 0 9 255 0.26704067 0.23861383 0 0 0 0
-1.4147879 -2.117379 -2.53335 253 0 9 255 0.41970563 0.080294386 0 0 0 0
-1.8006829 -1.8006829 -2.53335 253 0 9 255 0.2644919 0.23550816 0 0 0 0
-2.117379 -1.4147879 -2.53335 253 0 9 255 0.38333684 0.0504473 0 0 0 0
-1.1126012 -1.1126012 -2.5333495 253 0 9 255 0.2644919 0.23550817 0 0 0 0
-1.3082806 -0.8741653 -2.5333495 253 0 9 255 0.2613862 0.23295939 0 0 0 0
-1.4536834 -0.60213554 -2.5333495 253 0 9 255 0.23763587 0.26236403 0 0 0 0
-2.3527055 -0.97452277 -2.53335 253 0 9 255 0.24028558 0.26453856 0 0 0 0
-2.4976192 -0.4968069 -2.53335 253 0 9 255 0.24658883 0.23285043 0 0 0 0
-1.5432223 -0.3069657 -2.5333495 253 0 9 255 0.2500001 0.23251465 0 0 0 0
-1.4536834 -0.60213554 -1.5420628 253 0 9 255 0.25341105 0.23285061 0 0 0 0
-1.5432223 -0.3069657 -1.5420628 253 0 9 255 0.25669146 0.23384571 0 0 0 0
-1.3082806 -0.8741653 -1.5420628 253 0 9 255 0.25971442 0.23546137 0 0 0 0
-1.5734556 0 -1.5420628 253 0 9 255 0.26236412 0.23763603 0 0 0 0
-1.5734556 0 -2.5333495 253 0 9 255 0.2645387 0.24028575 0 0 0 0
-2.54655 -2.7369076e-09 -2.53335 253 0 9 255 0.2661545 0.24330866 0 0 0 0
-1.5432223 0.30696568 -1.5420628 253 0 9 255 0.26714966 0.24658903 0 0 0 0
-1.5432223 0.30696568 -2.5333495 253 0 9 255 0.26748562 0.2500001 0 0 0 0
-2.4976192 0.4968068 -2.53335 253 0 9 255 0.26714963 0.2534112 0 0 0 0
-2.3527055 0.97452277 -2.53335 253 0 9 255 0.26615462 0.25669155 0 0 0 0
-2.117379 1.4147879 -2.53335 253 0 9 255 0.26453868 0.25971445 0 0 0 0
-1.4536834 0.60213554 -2.5333495 253 0 9 255 0.26236418 0.26236418 0 0 0 0
-1.3082806 0.8741653 -2.5333495 253 0 9 255 0.25971442 0.2645387 0 0 0 0
-1.1126012 1.1126012 -2.5333495 253 0 9 255 0.2566914 0.2661544 0 0 0 0
-1.8006829 1.8006829 -2.53335 253 0 9 255 0.25341117 0.26714945 0 0 0 0
-1.3082806 0.8741653 -1.5420628 253 0 9 255 0.25000003 0.26748535 0 0 0 0
-1.1126012 1.1126012 -1.5420628 253 0 9 255 0.24658898 0.26714966 0 0 0 0
-1.4536834 0.60213554 -1.5420628 253 0 9 255 0.24330853 0.26615438 0 0 0 0
-1.1126012 -1.1126012 -1.5420628 253 0 9 255 0.23546126 0.25971434 0 0 0 0
-0.8741653 -1.3082806 -1.5420628 253 0 9 255 0.2338455 0.2566913 0 0 0 0
-0.60213554 -1.4536834 -1.5420628 253 0 9 255 0.23285048 0.25341114 0 0 0 0
-0.30696568 -1.5432223 -1.5420628 253 0 9 255 0.2325146 0.24999991 0 0 0 0
0 -1.5734556 -1.5420628 253 0 9 255 0.23285042 0.2465888 0 0 0 0
0.3069657 -1.5432223 -1.5420628 253 0 9 255 0.23384541 0.24330851 0 0 0 0
0.60213554 -1.4536834 -1.5420628 253 0 9 255 0.23546131 0.24028574 0 0 0 0
0.8741653 -1.3082806 -1.5420628 253 0 9 255 0.23763584 0.23763587 0 0 0 0
1.1126012 -1.1126012 -1.5420628 253 0 9 255 0.24028565 0.23546135 0 0 0 0
1.3082806 -0.8741653 -1.5420628 253 0 9 255 0.24330854 0.23384552 0 0 0 0
1.4536834 -0.60213554 -1.5420628 253 0 9 255 0.25 0.27049452 0 0 0 0
1.5432223 -0.30696568 -1.5420628 253 0 9 255 0.25 0.49 0 0 0 0
1.5734556 0 -1.5420628 253 0 9 255 0.20317832 0.48538846 0 0 0 0
1.5432223 0.3069657 -1.5420628 253 0 9 255 0.24600172 0.27010077 0 0 0 0
1.4536834 0.60213554 -1.5420628 253 0 9 255 0.25 0.27049455 0 0 0 0
1.3082806 0.8741653 -1.5420628 253 0 9 255 0.15815598 0.47173107 0 0 0 0
1.1126012 1.1126012 -1.5420628 253 0 9 255 0.24215703 0.26893452 0 0 0 0
0.8741653 1.3082806 -1.5420628 253 0 9 255 0.11666314 0.4495527 0 0 0 0
0.60213554 1.4536834 -1.5420628 253 0 9 255 0.23861378 0.2670406 0 0 0 0
0.30696568 1.5432223 -1.5420628 253 0 9 255 0.080294386 0.41970563 0 0 0 0
1.3199834 1.9754946 3.8029852 254 0 19 255 0.23550813 0.26449186 0 0 0 0
0.9092204 2.195052 3.8029852 254 0 19 255 0.23861377 0.2670406 0 0 0 0
0.077642106 0.1874444 5.96554 254 0 19 255 0.23550811 0.26449186 0 0 0 0
0.11271918 0.16869535 5.96554 254 0 19 255 0.23295934 0.2613862 0 0 0 0
0.4635165 2.3302548 3.8029852 254 0 19 255 0.0504473 0.38333684 0 0 0 0
0.03958122 0.19899008 5.96554 254 0 19 255 0.028268918 0.34184402 0 0 0 0
1.6800201 1.6800201 3.8029852 254 0 19 255 0.23106547 0.25784293 0 0 0 0
0.14346391 0.1434638 5.96554 254 0 19 255 0.23106545 0.25784293 0 0 0 0
1.9754946 1.3199834 3.8029852 254 0 19 255 0.22989917 0.25399825 0 0 0 0
0.16869532 0.11271918 5.96554 254 0 19 255 0.014611542 0.29682168 0 0 0 0
2.195052 0.9092204 3.8029852 254 0 19 255 0.010000005 0.25 0 0 0 0
0.1874444 0.07764215 5.96554 254 0 19 255 0.22950546 0.25 0 0 0 0
2.3302548 0.4635165 3.8029852 254 0 19 255 0.22950545 0.25 0 0 0 0
0.19899009 0.039581157 5.96554 254 0 19 255 0.22989921 0.24600174 0 0 0 0
2.3759072 0 3.8029852 254 0 19 255 0.014611542 0.20317832 0 0 0 0
0.20288813 -3.3036102e-08 5.9655404 254 0 19 255 0.028268918 0.15815598 0 0 0 0
2.3302548 -0.4635165 3.8029852 254 0 19 255 0.2310654 0.242157 0 0 0 0
0.19899008 -0.03958122 5.96554 254 0 19 255 0.0504473 0.11666314 0 0 0 0
2.195052 -0.9092204 3.8029852 254 0 19 255 0.23295939 0.23861374 0 0 0 0
0.1874444 -0.077642106 5.96554 254 0 19 255 0.23295937 0.23861372 0 0 0 0
1.9754946 -1.3199834 3.8029852 254 0 19 255 0.23550817 0.23550817 0 0 0 0
0.16869535 -0.11271918 5.96554 254 0 19 255 0.080294386 0.080294386 0 0 0 0
1.6800201 -1.6800201 3.8029852 254 0 19 255 0.11666314 0.0504473 0 0 0 0
0.1434638 -0.14346391 5.96554 254 0 19 255 0.23861377 0.2329594 0 0 0 0
1.3199834 -1.9754946 3.8029852 254 0 19 255 0.23550816 0.23550816 0 0 0 0
0.1434638 -0.14346391 5.96554 254 0 19 255 0.15815598 0.028268918 0 0 0 0
0.11271918 -0.16869532 5.96554 254 0 19 255 0.24215707 0.23106551 0 0 0 0
-0.12239928 0.122399494 6.120529 254 0 19 255 0.20317832 0.014611542 0 0 0 0
-0.09616816 0.14392674 6.120529 254 0 19 255 0.24600172 0.22989918 0 0 0 0
-0.03376906 -0.16977324 6.120529 254 0 19 255 0.24215707 0.2310655 0 0 0 0
-9.957312e-08 -0.17309871 6.120529 254 0 19 255 0.25 0.22950546 0 0 0 0
0.033768523 -0.16977334 6.120529 254 0 19 255 0.25 0.010000005 0 0 0 0
0.06624192 -0.15992267 6.120529 254 0 19 255 0.29682168 0.014611542 0 0 0 0
0.09616816 -0.14392674 6.120529 254 0 19 255 0.25399828 0.22989926 0 0 0 0
0.12239928 -0.122399494 6.120529 254 0 19 255 0.25 0.22950545 0 0 0 0
0.14392689 -0.09616804 6.120529 254 0 19 255 0.34184402 0.028268918 0 0 0 0
0.15992258 -0.06624211 6.120529 254 0 19 255 0.25784293 0.2310655 0 0 0 0
0.16977324 -0.03376906 6.120529 254 0 19 255 0.2613862 0.2329594 0 0 0 0
0.17309871 -9.957312e-08 6.120529 254 0 19 255 0 0 0 0 0 0
0.16977334 0.033768523 6.120529 254 0 19 255 0 0 0 0 0 0
0.15992267 0.06624192 6.120529 254 0 19 255 0 0 0 0 0 0
0.14392674 0.09616816 6.120529 254 0 19 255 0 0 0 0 0 0
0.122399494 0.12239928 6.120529 254 0 19 255 0 0 0 0 0 0
0.09616804 0.14392689 6.120529 254 0 19 255 0 0 0 0 0 0
0.06624211 0.15992258 6.120529 254 0 19 255 0 0 0 0 0 0
0.03376906 0.16977324 6.120529 254 0 19 255 0 0 0 0 0 0
9.957312e-08 0.17309871 6.120529 254 0 19 255 0 0 0 0 0 0
-0.033768523 0.16977334 6.120529 254 0 19 255 0 0 0 0 0 0
-0.06624192 0.15992267 6.120529 254 0 19 255 0 0 0 0 0 0
-0.14392689 0.09616804 6.120529 254 0 19 255 0 0 0 0 0 0
-0.15992258 0.06624211 6.120529 254 0 19 255 0 0 0 0 0 0
-0.16977324 0.03376906 6.120529 254 0 19 255 0 0 0 0 0 0
-0.17309871 9.957312e-08 6.120529 254 0 19 255 0 0 0 0 0 0
-0.16977334 -0.033768523 6.120529 254 0 19 255 0 0 0 0 0 0
-0.15992267 -0.06624192 6.120529 254 0 19 255 0 0 0 0 0 0
-0.14392674 -0.09616816 6.120529 254 0 19 255 0 0 0 0 0 0
-0.122399494 -0.12239928 6.120529 254 0 19 255 0 0 0 0 0 0
-0.09616804 -0.14392689 6.120529 254 0 19 255 0 0 0 0 0 0
-0.06624211 -0.15992258 6.120529 254 0 19 255 0 0 0 0 0 0
3.3036102e-08 0.20288813 5.9655404 254 0 19 255 0 0 0 0 0 0
0 2.3759072 3.8029852 254 0 19 255 0 0 0 0 0 0
-0.4635165 2.3302548 3.8029852 254 0 19 255 0 0 0 0 0 0
-0.039581157 0.19899009 5.96554 254 0 19 255 0 0 0 0 0 0
3.3036102e-08 0.20288813 5.9655404 254 0 19 255 0 0 0 0 0 0
-0.9092204 2.195052 3.8029852 254 0 19 255 0 0 0 0 0 0
-0.07764215 0.1874444 5.96554 254 0 19 255 0 0 0 0 0 0
-1.3199834 1.9754946 3.8029852 254 0 19 255 0 0 0 0 0 0
-0.11271918 0.16869532 5.96554 254 0 19 255 0 0 0 0 0 0
-1.6800201 1.6800201 3.8029852 254 0 19 255 0 0 0 0 0 0
-0.1434638 0.14346391 5.96554 254 0 19 255 0 0 0 0 0 0
-0.11271918 0.16869532 5.96554 254 0 19 255 0 0 0 0 0 0
-0.1434638 0.14346391 5.96554 254 0 19 255 0 0 0 0 0 0
-0.16869535 0.11271918 5.96554 254 0 19 255 0 0 0 0 0 0
-1.9754946 1.3199834 3.8029852 254 0 19 255 0 0 0 0 0 0
-2.195052 0.9092204 3.8029852 254 0 19 255 0 0 0 0 0 0
-0.1874444 0.077642106 5.96554 254 0 19 255 0 0 0 0 0 0
-0.1874444 0.077642106 5.96554 254 0 19 255 0 0 0 0 0 0
-0.19899008 0.03958122 5.96554 254 0 19 255 0 0 0 0 0 0
-2.3302548 0.4635165 3.8029852 254 0 19 255 0 0 0 0 0 0
-2.3759072 0 3.8029852 254 0 19 255 0 0 0 0 0 0
-0.20288813 3.3036102e-08 5.9655404 254 0 19 255 0 0 0 0 0 0
-0.20288813 3.3036102e-08 5.9655404 254 0 19 255 0 0 0 0 0 0
-0.19899009 -0.039581157 5.96554 254 0 19 255 0 0 0 0 0 0
-2.3302548 -0.4635165 3.8029852 254 0 19 255 0 0 0 0 0 0
-2.195052 -0.9092204 3.8029852 254 0 19 255 0 0 0 0 0 0
-0.1874444 -0.07764215 5.96554 254 0 19 255 0 0 0 0 0 0
-1.9754946 -1.3199834 3.8029852 254 0 19 255 0 0 0 0 0 0
-0.16869532 -0.11271918 5.96554 254 0 19 255 0 0 0 0 0 0
-0.16869532 -0.11271918 5.96554 254 0 19 255 0 0 0 0 0 0
-0.14346391 -0.1434638 5.96554 254 0 19 255 0 0 0 0 0 0
-1.6800201 -1.6800201 3.8029852 254 0 19 255 0 0 0 0 0 0
-1.3199834 -1.9754946 3.8029852 254 0 19 255 0 0 0 0 0 0
-0.11271918 -0.16869535 5.96554 254 0 19 255 0 0 0 0 0 0
-0.14346391 -0.1434638 5.96554 254 0 19 255 0 0 0 0 0 0
-0.9092204 -2.195052 3.8029852 254 0 19 255 0 0 0 0 0 0
-0.077642106 -0.1874444 5.96554 254 0 19 255 0 0 0 0 0 0
-0.4635165 -2.3302548 3.8029852 254 0 19 255 0 0 0 0 0 0
-0.03958122 -0.19899008 5.96554 254 0 19 255 0 0 0 0 0 0
-0.077642106 -0.1874444 5.96554 254 0 19 255 1.1126012 -1.5420628 0 0 0 0
-3.3036102e-08 -0.20288813 5.9655404 254 0 19 255 -1.4536834 0.60213554 0 0 0 0
0 -2.3759072 3.8029852 254 0 19 255 -1.5420628 -1.1126012 0 0 0 0
0.4635165 -2.3302548 3.8029852 254 0 19 255 -1.1126012 -1.5420628 0 0 0 0
0.039581157 -0.19899009 5.96554 254 0 19 255 -0.8741653 -1.3082806 0 0 0 0
-3.3036102e-08 -0.20288813 5.9655404 254 0 19 255 -1.5420628 -0.60213554 0 0 0 0
0.9092204 -2.195052 3.8029852 254 0 19 255 -1.4536834 -1.5420628 0 0 0 0
0.07764215 -0.1874444 5.96554 254 0 19 255 -0.30696568 -1.5432223 0 0 0 0
0.11271918 -0.16869532 5.96554 254 0 19 255 -1.5420628 0 0 0 0 0
2.3444233 -0.4986941 1.8105817 254 0 19 255 -1.5734556 -1.5420628 0 0 0 0
2.5736246 0.13618849 2.247832 254 0 19 255 0.3069657 -1.5432223 0 0 0 0
2.3165834 -0.62406147 2.3002396 254 0 19 255 -1.5420628 0.60213554 0 0 0 0
2.2708178 -0.82764196 3.0769365 254 0 19 255 -1.4536834 -1.5420628 0 0 0 0
2.1546485 -1.1027435 2.330196 254 0 19 255 0.8741653 -1.3082806 0 0 0 0
1.8971622 -1.8634459 2.3729708 254 0 19 255 -1.5420628 1.1126012 0 0 0 0
2.082407 -1.2732179 1.859052 254 0 19 255 -1.1126012 -1.5420628 0 0 0 0
1.9690377 -1.5397769 1.1087917 254 0 19 255 1.3082806 -0.8741653 0 0 0 0
2.1996942 -0.8998947 1.5379128 254 0 19 255 -1.5420628 1.4536834 0 0 0 0
2.3871148 -0.3039352 1.0314516 254 0 19 255 -0.60213554 -1.5420628 0 0 0 0
2.2529395 -1.3437507 1.8565283 254 0 19 255 1.5432223 -0.30696568 0 0 0 0
2.0676947 -1.9339787 2.3704472 254 0 19 255 -1.5420628 1.5734556 0 0 0 0
2.8504715 -2.2002685 2.346774 254 0 19 255 0 -1.5420628 0 0 0 0
3.035716 -1.6100405 1.8328551 254 0 19 255 1.5432223 0.3069657 0 0 0 0
2.325181 -1.1732763 2.3276722 254 0 19 255 -1.5420628 1.4536834 0 0 0 0
2.13957 -1.6103097 1.106268 254 0 19 255 0.60213554 -1.5420628 0 0 0 0
2.3702266 -0.9704275 1.5353892 254 0 19 255 1.3082806 0.8741653 0 0 0 0
2.5149558 -0.56922686 1.808058 254 0 19 255 -1.5420628 1.1126012 0 0 0 0
2.744157 0.06565572 2.2453084 254 0 19 255 1.1126012 -1.5420628 0 0 0 0
2.4413502 -0.89817476 3.0744128 254 0 19 255 0.8741653 1.3082806 0 0 0 0
2.5576472 -0.37446797 1.0289279 254 0 19 255 -1.5420628 0.60213554 0 0 0 0
2.4871159 -0.69459426 2.297716 254 0 19 255 1.4536834 -1.5420628 0 0 0 0
3.2977324 -0.8355167 1.7843848 254 0 19 255 0.30696568 1.5432223 0 0 0 0
3.340424 -0.6407578 1.0052547 254 0 19 255 -1.5420628 3.4e-44 0 0 0 0
3.1530032 -1.2367173 1.511716 254 0 19 255 6e-45 0 0 0 0 0
2.9223466 -1.8765996 1.0825949 254 0 19 255 2.3418052e-38 0 0 0 0 0
3.1079578 -1.4395661 2.3039992 254 0 19 255 9.1477e-41 0 0 0 0 0
3.2241268 -1.1644646 3.0507398 254 0 19 255 3.57e-43 0 0 0 0 0
3.2698927 -0.9608841 2.2740428 254 0 19 255 3.59e-43 1.1e-44 0 0 0 0
3.5269337 -0.2006341 2.2216353 254 0 19 255 0 0 0 0 0 0
2.5839405 0.033898205 2.8526409 254 0 19 255 0 0 0 0 0 0
2.6731787 0.24699639 2.9269447 254 0 19 255 0 0 0 0 0 0
2.5863936 0.034364276 3.005375 254 0 19 255 0 0 0 0 0 0
2.5897343 0.033758767 3.2480347 254 0 19 255 0 0 0 0 0 0
2.5316448 -0.0997415 3.0538735 254 0 19 255 0 0 0 0 0 0
2.4444714 -0.31321394 3.1295414 254 0 19 255 0 0 0 0 0 0
2.495355 -0.18308955 2.9311132 254 0 19 255 0 0 0 0 0 0
2.438138 -0.31441706 2.7352188 254 0 19 255 0 0 0 0 0 0
2.5276756 -0.10049562 2.8067446 254 0 19 255 0 0 0 0 0 0
2.579487 0.03181188 2.610007 254 0 19 255 0 0 0 0 0 0
2.7072303 -0.01561439 3.0035865 254 0 19 255 0 0 0 0 0 0
2.7940154 0.19701773 2.9251564 254 0 19 255 0 0 0 0 0 0
3.5767922 -0.0692721 2.9014833 254 0 19 255 0 0 0 0 0 0
3.490007 -0.28190422 2.9799135 254 0 19 255 0 0 0 0 0 0
2.6485124 -0.15047428 2.8049562 254 0 19 255 0 0 0 0 0 0
2.7003238 -0.018166784 2.6082187 254 0 19 255 0 0 0 0 0 0
2.6524816 -0.14972016 3.0520852 254 0 19 255 0 0 0 0 0 0
2.565308 -0.36319262 3.127753 254 0 19 255 0 0 0 0 0 0
2.5589747 -0.36439574 2.7334304 254 0 19 255 0 0 0 0 0 0
2.7047772 -0.016080461 2.8508525 254 0 19 255 0 0 0 0 0 0
2.710571 -0.016219899 3.2462463 254 0 19 255 0 0 0 0 0 0
2.6161916 -0.23306823 2.9293249 254 0 19 255 0 0 0 0 0 0
3.487554 -0.2823703 2.8271794 254 0 19 255 0 0 0 0 0 0
3.4831004 -0.2844566 2.5845456 254 0 19 255 0 0 0 0 0 0
3.4312892 -0.4167641 2.7812831 254 0 19 255 0 0 0 0 0 0
3.3417516 -0.63068557 2.7097573 254 0 19 255 0 0 0 0 0 0
3.3989682 -0.49935806 2.9056518 254 0 19 255 0 0 0 0 0 0
3.348085 -0.62948245 3.10408 254 0 19 255 0 0 0 0 0 0
3.4352584 -0.41601 3.028412 254 0 19 255 0 0 0 0 0 0
3.4933476 -0.28250974 3.2225733 254 0 19 255 0 0 0 0 0 0
4 0 1 2 3
4 4 5 6 7
4 7 6 8 9
4 9 8 10 11
4 11 10 12 13
4 13 12 14 15
4 15 14 16 17
4 17 16 18 19
4 19 18 20 21
4 21 20 22 23
4 23 22 24 25
4 25 24 26 27
4 27 26 28 29
4 29 28 30 31
4 31 30 32 33
4 34 32 35 36
4 36 35 37 38
4 38 37 39 40
4 40 39 41 42
4 42 41 43 44
4 44 43 45 46
4 47 45 48 49
4 49 48 50 51
4 51 50 52 53
4 53 52 54 55
4 55 54 56 57
4 57 56 58 59
4 59 58 60 61
4 61 60 62 63
4 63 62 64 65
4 3 2 5 4
4 66 67 1 68
4 69 70 71 72
4 70 73 74 71
4 75 69 72 76
4 77 75 76 78
4 79 77 78 80
4 81 79 80 82
4 83 81 82 84
4 85 83 84 86
4 87 85 86 88
4 89 87 88 90
4 91 89 90 92
4 93 91 92 94
4 95 93 94 96
4 97 95 96 98
4 99 97 98 100
4 101 99 100 102
4 103 101 102 104
4 105 103 104 106
4 107 105 106 108
4 109 107 108 110
4 111 109 110 112
4 113 111 112 114
4 115 113 114 116
4 117 115 116 118
4 119 117 118 120
4 121 119 120 122
4 123 121 122 124
4 125 123 124 126
4 127 125 126 128
4 129 127 128 130
4 131 129 130 132
4 73 131 132 74
4 133 134 135 136
4 134 137 138 135
4 139 140 137 134
4 141 139 134 133
4 142 141 133 143
4 143 133 136 144
4 136 135 145 146
4 144 136 146 147
32 148 149 150 151 152 153 154 155 156 157 158 159 160 161 162 163 164 165 166 167 168 169 170 171 172 173 174 175 176 147 146 145
4 135 138 148 145
4 138 177 149 148
4 137 178 177 138
4 178 179 180 177
4 177 180 150 149
4 179 181 182 180
4 180 182 151 150
4 182 183 152 151
4 183 184 153 152
4 181 185 183 182
4 185 186 184 183
4 186 187 188 184
4 184 188 154 153
4 187 189 190 188
4 188 190 155 154
4 190 191 156 155
4 191 192 157 156
4 189 193 191 190
4 193 194 192 191
4 194 195 196 192
4 192 196 158 157
4 195 197 198 196
4 196 198 159 158
4 198 199 160 159
4 199 200 161 160
4 197 201 199 198
4 201 202 200 199
4 202 203 204 200
4 200 204 162 161
4 203 205 206 204
4 204 206 163 162
4 206 207 164 163
4 207 208 165 164
4 205 209 207 206
4 209 210 208 207
4 210 211 212 208
4 208 212 166 165
4 211 213 214 212
4 212 214 167 166
4 214 215 168 167
4 215 216 169 168
4 213 217 215 214
4 217 218 216 215
4 218 219 220 216
4 216 220 170 169
4 220 221 171 170
4 219 222 221 220
4 223 224 222 219
4 225 223 219 218
4 224 226 227 222
4 222 227 228 221
4 226 229 230 227
4 227 230 231 228
4 228 231 173 172
4 221 228 172 171
4 231 232 174 173
4 232 233 175 174
4 230 234 232 231
4 234 235 233 232
4 235 236 237 233
4 233 237 176 175
4 236 143 144 237
4 237 144 147 176
4 238 239 236 235
4 239 142 143 236
4 240 238 235 234
4 229 240 234 230
4 241 225 218 217
4 242 241 217 213
4 243 242 213 211
4 244 243 211 210
4 245 244 210 209
4 246 245 209 205
4 247 246 205 203
4 248 247 203 202
4 249 248 202 201
4 250 249 201 197
4 251 250 197 195
4 252 251 195 194
4 253 252 194 193
4 254 253 193 189
4 255 254 189 187
4 256 255 187 186
4 257 256 186 185
4 258 257 185 181
4 259 258 181 179
4 260 259 179 178
4 140 260 178 137
4 261 262 263 264
4 262 265 266 263
4 267 261 264 268
4 269 267 268 270
4 271 269 270 272
4 273 271 272 274
4 275 273 274 276
4 277 275 276 278
4 279 277 278 280
4 281 279 280 282
4 283 281 282 284
4 285 283 286 287
4 288 289 287 286
32 290 291 292 293 294 295 296 297 298 299 300 301 302 303 304 305 306 307 308 309 289 288 310 311 312 313 314 315 316 317 318 319
4 310 288 284 282
4 311 310 282 280
4 312 311 280 278
4 313 312 278 276
4 314 313 276 274
4 315 314 274 272
4 316 315 272 270
4 317 316 270 268
4 318 317 268 264
4 319 318 264 263
4 290 319 263 266
4 291 290 266 320
4 265 321 320 266
4 321 322 323 324
4 322 325 326 323
4 325 327 328 326
4 327 329 330 331
4 294 293 326 328
4 295 294 331 330
4 296 295 332 333
4 329 334 333 332
4 334 335 336 333
4 297 296 333 336
4 298 297 337 338
4 335 339 338 337
4 339 340 341 338
4 299 298 338 341
4 300 299 342 343
4 340 344 343 342
4 344 345 346 343
4 301 300 343 346
4 345 347 348 346
4 302 301 346 348
4 303 302 349 350
4 347 351 350 349
4 351 352 353 354
4 352 355 356 353
4 355 357 358 359
4 305 304 353 356
4 306 305 359 358
4 307 306 358 360
4 357 361 360 358
4 361 362 363 364
4 362 365 366 363
4 365 285 367 366
4 289 309 366 367
4 309 308 363 366
4 308 307 364 363
4 304 303 354 353
4 293 292 323 326
4 292 291 324 323
10 368 369 370 371 372 373 374 375 376 377
4 378 379 380 381
4 373 372 382 379
4 376 375 383 384
4 369 368 385 386
4 372 371 387 382
4 375 374 378 383
4 368 377 388 385
4 371 370 389 387
4 374 373 379 378
4 377 376 384 388
4 370 369 386 389
10 390 391 392 393 381 380 394 395 396 397
4 388 384 392 391
4 389 386 397 396
4 379 382 394 380
4 384 383 393 392
4 386 385 390 397
4 382 387 395 394
4 383 378 381 393
4 385 388 391 390
4 387 389 396 395
3 390 391 392
3 392 393 381
3 390 392 381
3 381 396 390
3 396 397 390
3 395 396 394
3 396 381 394
3 381 380 394
10 398 399 400 401 402 403 404 405 406 407
4 408 409 410 411
4 407 406 412 413
4 400 399 409 408
4 403 402 414 415
4 406 405 416 412
4 399 398 417 409
4 402 401 418 414
4 405 404 419 416
4 398 407 413 417
4 401 400 408 418
4 404 403 415 419
10 420 421 422 423 424 425 426 427 411 410
4 415 414 426 425
4 412 416 423 422
4 409 417 420 410
4 414 418 427 426
4 416 419 424 423
4 417 413 421 420
4 418 408 411 427
4 419 415 425 424
4 413 412 422 421
3 420 421 422
3 422 423 424
3 424 411 422
3 426 411 424
3 425 426 424
3 427 411 426
3 411 420 422
3 411 410 420
