ply
format ascii 1.0
comment Created in Blender version 4.3.2
element vertex 63
property float x
property float y
property float z
property uchar red
property uchar green
property uchar blue
property uchar alpha
property float s
property float t
element face 40
property list uchar uint vertex_indices
end_header
-2.602957 0.5634664 0 168 25 54 255 0.5 0.125
-2.602957 0.5634664 0.8303909 168 25 54 255 0.625 0.125
-2.3679335 1.7124133 0.755414 168 25 54 255 0.625 0.25
-2.3679335 1.7124133 0 168 25 54 255 0.5 0.25
1.1580535 2.3679335 0 168 25 54 255 0.5 0.4361321
1.1580535 2.3679335 0.755414 168 25 54 255 0.625 0.43613207
2.3679335 1.7124133 0.755414 168 25 54 255 0.625 0.5
2.3679335 2.1170392 -0.28912795 168 25 54 255 0.5 0.5
2.602957 0.5634664 0 168 25 54 255 0.5 0.625
2.602957 0.5634664 0.8303909 168 25 54 255 0.625 0.625
2.3679335 -0.051762328 0.755414 168 25 54 255 0.625 0.75
2.3679335 -0.051762328 0 168 25 54 255 0.5 0.75
-1.20988 -1.2316985 0 168 25 54 255 0.5 0.9388679
-1.20988 -1.2316985 0.755414 168 25 54 255 0.625 0.9388679
-2.3679335 -0.051762328 0.755414 168 25 54 255 0.625 1
-2.3679335 -0.051762328 0 168 25 54 255 0.5 1
1.9280461 -0.20296459 -1.2407955 168 25 54 255 0.31113207 0.625
2.602957 0.5634664 -0.8303909 168 25 54 255 0.375 0.625
2.3679335 -0.051762328 -0.755414 168 25 54 255 0.375 0.75
1.1580535 -1.2316985 -0.755414 168 25 54 255 0.31113207 0.75
-1.9613725 -0.20296459 1.2407955 168 25 54 255 0.8138679 0.625
-2.602957 0.5634664 0.8303909 168 25 54 255 0.875 0.625
-2.3679335 -0.051762328 0.755414 168 25 54 255 0.875 0.75
-1.20988 -1.2316985 0.755414 168 25 54 255 0.8138679 0.75
1.9280461 -0.20296459 1.2407955 168 25 54 255 0.6888679 0.625
-0.059226558 -0.20296459 1.2407955 168 25 54 255 0.75273585 0.625
-0.05182647 -2.3679335 0.755414 168 25 54 255 0.75273585 0.75
1.1580535 -1.2316985 0.755414 168 25 54 255 0.6888679 0.75
-1.9613725 -0.20296459 -1.2407955 168 25 54 255 0.18613207 0.625
-0.059226558 -0.20296459 -1.2407955 168 25 54 255 0.24726415 0.625
-0.05182647 -2.3679335 -0.755414 168 25 54 255 0.24726416 0.75000006
-1.20988 -1.2316985 -0.755414 168 25 54 255 0.18613207 0.75
1.1580535 -1.2316985 0 168 25 54 255 0.5 0.8138679
1.1580535 -1.2316985 0.755414 168 25 54 255 0.625 0.8138679
-0.05182647 -2.3679335 0.755414 168 25 54 255 0.62500006 0.87773585
-0.05182647 -2.3679335 0 168 25 54 255 0.5 0.87773585
-1.20988 2.3679335 0 168 25 54 255 0.5 0.31113207
-1.20988 2.3679335 0.755414 168 25 54 255 0.625 0.31113207
-0.059226558 1.3535691 1.2407955 168 25 54 255 0.625 0.37226415
-0.059226558 1.3535691 0 168 25 54 255 0.5 0.37226415
-1.20988 2.3679335 -0.755414 168 25 54 255 0.18613207 0.5
-0.059226558 1.3535691 -1.2407955 168 25 54 255 0.24726415 0.5
1.1580535 2.3679335 0.755414 168 25 54 255 0.6888679 0.5
-0.059226558 1.3535691 1.2407955 168 25 54 255 0.75273585 0.5
-1.20988 2.3679335 0.755414 168 25 54 255 0.8138679 0.5
-2.3679335 1.7124133 0.755414 168 25 54 255 0.875 0.5
1.1580535 2.3679335 -0.755414 168 25 54 255 0.31113207 0.5
2.3679335 1.9633079 -0.46628606 168 25 54 255 0.375 0.5
-2.3679335 -0.051762328 0 168 25 54 255 0.5 0
-2.3679335 -0.051762328 0.755414 168 25 54 255 0.625 0
-2.3679335 1.7124133 -0.755414 168 25 54 255 0.125 0.5
-2.602957 0.5634664 -0.8303909 168 25 54 255 0.125 0.625
-2.3679335 -0.051762328 -0.755414 168 25 54 255 0.125 0.75
-0.05182647 -2.3679335 -0.755414 168 25 54 255 0.375 0.87773585
-1.20988 -1.2316985 -0.755414 168 25 54 255 0.375 0.9388679
-2.3679335 1.7124133 -0.755414 168 25 54 255 0.375 0.25
-1.20988 2.3679335 -0.755414 168 25 54 255 0.375 0.31113207
-0.059226558 1.3535691 -1.2407955 168 25 54 255 0.37500003 0.37226418
1.1580535 2.3679335 -0.755414 168 25 54 255 0.375 0.43613207
1.1580535 -1.2316985 -0.755414 168 25 54 255 0.375 0.8138679
-2.3679335 -0.051762328 -0.755414 168 25 54 255 0.375 0
-2.602957 0.5634664 -0.8303909 168 25 54 255 0.375 0.125
-2.3679335 -0.051762328 -0.755414 168 25 54 255 0.375 1
4 0 1 2 3
4 4 5 6 7
4 8 9 10 11
4 12 13 14 15
4 16 17 18 19
4 20 21 22 23
4 24 25 26 27
4 28 29 30 31
4 32 33 34 35
4 36 37 38 39
4 40 41 29 28
4 42 43 25 24
4 44 45 21 20
4 46 47 17 16
4 7 6 9 8
4 48 49 1 0
4 41 46 16 29
4 6 42 24 9
4 11 10 33 32
4 9 24 27 10
4 29 16 19 30
4 39 38 5 4
4 43 44 20 25
4 50 40 28 51
4 3 2 37 36
4 51 28 31 52
4 25 20 23 26
4 35 34 13 12
4 53 35 12 54
4 55 3 36 56
4 57 39 4 58
4 18 11 32 59
4 60 48 0 61
4 47 7 8 17
4 56 36 39 57
4 59 32 35 53
4 54 12 15 62
4 17 8 11 18
4 58 4 7 47
4 61 0 3 55
