ply
format ascii 1.0
comment Created in Blender version 4.4.3
element vertex 559
property float x
property float y
property float z
property uchar red
property uchar green
property uchar blue
property uchar alpha
property float s
property float t
element face 512
property list uchar uint vertex_indices
end_header
0.288173 3.1784136 0.46292543 107 75 59 255 0.75 0.5625
0.19557203 2.6763444 1.0668596 81 58 44 255 0.75 0.6250001
0.588162 2.57098 1.0596285 81 58 44 255 0.71875 0.62500006
0.93958974 3.0839064 0.25502583 107 75 59 255 0.71875 0.5625
0.12894219 0.7753956 -2.914279 101 71 55 255 0.75 0.06249988
-0.46920106 1.2297885 -3.2845678 78 62 52 255 0.74999994 0.125
0.33760425 1.2503201 -3.0283904 82 58 44 255 0.71875 0.12500006
-0.0089197615 0.5455208 -2.9453316 107 75 59 255 0.71875 0.06249994
-0.22022389 2.6514506 0.3226939 107 75 59 255 0.75 0.5
0.9522253 2.782725 -0.29647622 107 75 59 255 0.71875 0.5
0.070673525 0.9812268 3.4574277 81 58 44 255 0.75 0.9375001
-0.2585445 -0.36611205 3.1665013 107 75 59 255 0.734375 1
0.14695346 1.0120224 3.4359674 81 58 44 255 0.71875 0.93750006
-0.09997917 -0.3529108 -3.060612 107 75 59 255 0.734375 0
-0.49162194 2.4417832 -0.08366526 107 75 59 255 0.75 0.4375
0.739771 2.5957553 -0.71828103 82 59 45 255 0.71875 0.4375
0.31465882 1.392728 3.0635915 81 58 44 255 0.74999994 0.87500006
0.52490985 1.3006852 3.0208805 81 58 44 255 0.71875 0.875
0.011137743 3.1049552 -1.3080193 107 75 59 255 0.75 0.37499994
0.6761052 2.5447319 -1.1287572 81 58 44 255 0.71875 0.375
-0.22209497 1.8854399 2.6970942 81 58 44 255 0.75 0.8125
0.28572732 1.6237726 2.630887 81 58 44 255 0.71875 0.8125
-0.11489883 2.892028 -1.5686238 103 73 57 255 0.75 0.31250006
0.124366336 2.8157318 -1.5930965 83 59 45 255 0.71875 0.31249994
0.53923327 1.6610969 1.9321656 81 58 44 255 0.75 0.75000006
0.6733571 1.7524552 1.7233585 81 58 44 255 0.71875 0.75000006
-0.41424295 2.1221445 -2.5189893 102 72 57 255 0.75 0.24999994
0.45658335 1.9709849 -2.896171 81 58 44 255 0.71875 0.25
0.68794006 2.1370807 1.3600276 81 58 44 255 0.75 0.6875
0.64792526 2.4337077 1.121436 81 58 44 255 0.71875 0.6875
-0.6133012 1.4390705 -2.9583526 107 75 59 255 0.74999994 0.18749982
-0.17700393 1.5967245 -3.1610014 107 75 59 255 0.71875 0.1875
0.9186239 2.0598779 -2.6659064 81 58 44 255 0.6875 0.25
0.6988392 1.6106882 -2.9529839 81 58 44 255 0.6875 0.1875
1.1403756 2.1923664 1.2415738 82 58 44 255 0.6875 0.6875
1.1009624 2.331789 1.0755551 86 61 47 255 0.6875 0.625
0.33493116 1.0283097 -2.9133127 82 58 44 255 0.6875 0.12500006
1.0740957 2.6748888 0.59592146 107 75 59 255 0.6875 0.5625
0.05969439 0.26195383 -2.8819 107 75 59 255 0.6875 0.06249994
1.0613598 2.9933763 0.27713087 107 75 59 255 0.6875 0.5
-0.2585445 -0.36611205 3.1665013 107 75 59 255 0.703125 1
0.21759865 1.0007912 3.4140766 81 58 44 255 0.6875 0.93750006
-0.09997917 -0.3529108 -3.060612 107 75 59 255 0.703125 0
1.1271805 2.8152118 -0.23260854 107 75 59 255 0.6875 0.4375
0.6026051 1.2451649 3.096576 81 58 44 255 0.6875 0.875
1.0423676 2.4128153 -0.6721415 81 58 44 255 0.6875 0.375
0.8020995 1.3185388 2.3016596 81 58 44 255 0.6875 0.8125
0.7412816 2.3385196 -1.402805 81 58 44 255 0.6875 0.31249994
1.1613039 1.949559 1.4964317 81 58 44 255 0.6875 0.75000006
1.8445257 2.0064027 -0.29615235 97 69 53 255 0.65625 0.4375
1.3651606 2.1608827 -0.6264313 81 58 44 255 0.65625 0.375
0.66580266 1.1941876 3.1806529 81 58 44 255 0.65625 0.875
1.0893365 1.5915195 1.6785103 81 58 44 255 0.65625 0.8125
0.96605104 2.1968207 -0.9948775 81 58 44 255 0.65625 0.31249994
1.4665604 1.5319916 1.6421202 83 60 45 255 0.65625 0.75000006
1.0054576 1.8153038 -2.699251 81 58 44 255 0.65625 0.25
1.5425612 2.1546555 1.2716 103 73 57 255 0.65625 0.6875
0.8395934 1.1602691 -2.7580366 81 58 44 255 0.65625 0.1875
1.4978671 2.291291 1.0686977 107 75 59 255 0.65625 0.62500006
0.38447437 0.7319315 -2.7644234 82 59 45 255 0.65625 0.12500006
1.5618324 2.4575908 0.8443768 107 75 59 255 0.65625 0.5625
0.24352238 0.24130921 -2.8030012 107 75 59 255 0.65625 0.06249994
1.7485341 2.2820687 0.104119286 107 75 59 255 0.65625 0.5
-0.2585445 -0.36611205 3.1665013 107 75 59 255 0.671875 1
0.29920495 0.97659516 3.4012253 81 58 44 255 0.65625 0.93750006
-0.09997917 -0.3529108 -3.060612 107 75 59 255 0.671875 0
1.0343063 1.1037475 -2.5821817 81 58 44 255 0.625 0.1875
0.7047229 0.7450256 -2.6354878 81 58 44 255 0.625 0.125
2.461971 2.1988144 1.0349404 107 75 59 255 0.625 0.62500006
2.032254 2.3069124 0.55923516 107 75 59 255 0.625 0.5625
0.39101535 0.22944634 -2.7553246 107 75 59 255 0.625 0.06249994
2.2566564 1.6592199 -0.30207017 107 75 59 255 0.625 0.5
-0.2585445 -0.36611205 3.1665013 107 75 59 255 0.640625 1
0.40480766 0.9375866 3.3394938 81 58 44 255 0.625 0.93750006
-0.09997917 -0.3529108 -3.060612 107 75 59 255 0.640625 0
2.018141 1.7396756 -0.39252037 93 66 52 255 0.625 0.4375
0.96745634 0.8964167 3.0804222 83 59 45 255 0.625 0.875
1.5128235 1.6491696 -0.76500213 81 58 44 255 0.625 0.375
1.110123 0.880944 2.2728336 81 58 44 255 0.625 0.8125
1.6333815 1.3825519 -0.86600643 81 58 44 255 0.625 0.31249994
1.756316 0.7656966 1.7594461 101 71 55 255 0.625 0.75
1.2965871 1.2714475 -1.4172596 81 58 44 255 0.625 0.25
2.0425472 2.1946802 1.0796796 107 75 59 255 0.625 0.68750006
1.0818863 0.4224828 2.8470259 106 74 58 255 0.59375 0.875
1.1863343 0.5812406 2.4002945 96 68 53 255 0.59375 0.8125
2.1273477 1.1932774 -0.6533497 85 61 46 255 0.59375 0.375
2.045885 0.86340386 -0.89541405 82 59 45 255 0.59375 0.31249994
1.9680598 0.63681644 1.7568096 86 61 47 255 0.59375 0.75000006
1.5527778 0.8630935 -1.6508597 81 58 44 255 0.59375 0.25
2.1955287 0.90948385 1.6303434 107 75 59 255 0.59375 0.6875
1.3078576 1.0274457 -2.3856342 81 58 44 255 0.59375 0.1875
2.6670895 1.9771222 1.2874159 107 75 59 255 0.59375 0.62500006
1.2929072 0.6186944 -2.4689975 81 58 44 255 0.59375 0.125
2.742116 1.7757096 0.49829462 107 75 59 255 0.59375 0.5625
0.47880042 0.25928712 -2.7218187 104 74 58 255 0.59375 0.06249994
2.657966 1.4953899 -0.014934122 107 75 59 255 0.59375 0.5
-0.2585445 -0.36611205 3.1665013 107 75 59 255 0.609375 1
0.70180506 0.86037135 3.207752 82 58 44 255 0.59375 0.93750006
-0.09997917 -0.3529108 -3.060612 107 75 59 255 0.609375 0
2.436169 1.1070982 -0.52381235 107 75 59 255 0.59375 0.4375
3.141435 1.5642325 1.2869403 107 75 59 255 0.5625 0.62500006
3.1809475 1.3917145 0.5224202 107 75 59 255 0.5625 0.5625
1.4660865 0.4592876 -2.5306156 81 58 44 255 0.5625 0.125
0.4262298 0.38017634 -2.7229578 100 71 55 255 0.5625 0.06249994
3.020652 1.3713964 0.23962122 107 75 59 255 0.5625 0.5
-0.2585445 -0.36611205 3.1665013 107 75 59 255 0.578125 1
0.76766264 0.35906807 3.2377102 107 75 59 255 0.5625 0.93750006
-0.09997917 -0.3529108 -3.060612 107 75 59 255 0.578125 0
3.0060625 1.0658916 -0.18636477 107 75 59 255 0.5625 0.4375
1.2854632 0.32979134 2.4198484 102 72 57 255 0.5625 0.875
2.3048725 0.767915 -0.74062645 106 74 58 255 0.5625 0.375
1.6787639 0.23381196 2.2247038 81 58 44 255 0.5625 0.8125
2.0978022 0.59448487 -1.0107379 90 65 50 255 0.5625 0.31249994
1.6725035 0.313933 2.1608193 81 58 44 255 0.5625 0.75000006
1.7799946 0.6893165 -1.3807718 81 58 44 255 0.5625 0.25
2.4516253 0.6069426 1.7076904 89 64 50 255 0.5625 0.6875
1.6093929 0.57746756 -2.2957027 81 58 44 255 0.5625 0.1875
2.4390216 0.6617493 -0.75166947 107 75 59 255 0.53125 0.375
2.227458 0.5660396 -0.94085664 103 73 57 255 0.53125 0.31249994
1.7165033 0.3275922 2.0400574 81 58 44 255 0.53125 0.8125
2.3926835 0.38250592 1.7616279 81 58 44 255 0.53125 0.75000006
1.9515318 0.38457546 -1.5098233 81 58 44 255 0.53125 0.25
2.5375528 0.44795278 1.7410755 82 59 45 255 0.53125 0.68750006
1.8867044 0.230112 -2.3455315 81 58 44 255 0.53125 0.1875
2.586496 0.49168888 1.7116234 85 61 46 255 0.53125 0.62500006
1.1509085 0.44444337 -2.5216286 81 58 44 255 0.53125 0.125
3.1978364 0.999204 1.0461329 107 75 59 255 0.53125 0.5625
0.42283157 0.30210957 -2.735159 104 74 58 255 0.53125 0.06249994
3.2340374 1.0630174 -0.048427016 107 75 59 255 0.53125 0.5
-0.2585445 -0.36611205 3.1665013 107 75 59 255 0.546875 1
0.6531375 -0.20168325 3.2496932 107 75 59 255 0.53125 0.93750006
-0.09997917 -0.3529108 -3.060612 107 75 59 255 0.546875 0
2.8792915 0.49544632 -0.534669 107 75 59 255 0.53125 0.4375
1.2078456 0.33739504 2.4574726 106 74 58 255 0.53125 0.875
1.3218886 0.11915876 -2.6399834 81 58 44 255 0.5 0.125
0.52891254 0.21130711 -2.7142115 106 74 58 255 0.5 0.06249994
3.2121208 0.16646257 0.73606336 104 73 58 255 0.5 0.5625
3.2895253 0.15407449 0.026153168 107 75 59 255 0.49999997 0.5
-0.2585445 -0.36611205 3.1665013 107 75 59 255 0.515625 1
0.5853612 -0.36416334 3.2710762 107 75 59 255 0.5 0.93750006
-0.09997917 -0.3529108 -3.060612 107 75 59 255 0.515625 0
2.8359723 -0.07379726 -0.54776025 107 75 59 255 0.5 0.4375
1.3188926 0.059967753 2.5618896 91 65 51 255 0.5 0.875
2.0392213 0.58745867 -1.1510965 83 60 45 255 0.5 0.375
1.8084404 0.22427313 2.049532 81 58 44 255 0.49999997 0.8125
1.9517231 0.3653835 -1.564434 81 58 44 255 0.49999997 0.31249994
2.2804825 -0.026649518 1.5915385 81 58 44 255 0.5 0.75000006
2.062131 0.02768317 -2.3435965 81 58 44 255 0.5 0.25
2.689823 -0.0020106572 1.4042233 81 58 44 255 0.49999997 0.68750006
1.6351696 0.111085616 -2.6248527 81 58 44 255 0.49999997 0.1875
3.138121 0.057865128 0.9696427 85 61 46 255 0.5 0.62500006
1.7910234 -0.07721274 2.3413012 81 58 44 255 0.46875 0.8125
2.1939573 -0.66556287 1.1828588 81 58 44 255 0.46875 0.75000006
2.2176752 -0.3314513 -1.3088439 81 58 44 255 0.46874997 0.31249994
2.080964 -0.6672079 -2.2462592 81 58 44 255 0.46875 0.25
2.305988 -0.6940352 0.99951583 81 58 44 255 0.46874997 0.68750006
1.5380487 -0.3490483 -2.7596803 81 58 44 255 0.46875 0.1875
2.7089894 -0.74246997 0.5908055 81 58 44 255 0.46875 0.62500006
1.2187256 -0.17335933 -2.7225826 81 58 44 255 0.46875 0.125
3.2039385 -0.64220726 0.3926365 87 62 49 255 0.46875 0.5625
0.48400605 0.15230104 -2.7351775 107 75 59 255 0.46875 0.06249994
3.1755414 -0.6718886 -0.11005437 107 75 59 255 0.46874997 0.5
-0.2585445 -0.36611205 3.1665013 107 75 59 255 0.484375 1
0.513494 -0.47584018 3.256879 107 75 59 255 0.46875 0.93750006
-0.09997917 -0.3529108 -3.060612 107 75 59 255 0.484375 0
2.855583 -0.30477417 -0.5036951 107 75 59 255 0.46875 0.4375
1.2354305 -0.19475448 2.89913 106 74 58 255 0.46875 0.875
2.4971654 -0.33179086 -0.8337853 82 58 44 255 0.46875 0.375
2.4927173 -0.86557126 -0.4887535 86 61 46 255 0.4375 0.5625
2.5293863 -0.7789049 -0.5423069 86 61 47 255 0.43749997 0.5
-0.2585445 -0.36611205 3.1665013 107 75 59 255 0.453125 1
0.42598066 -0.61422914 3.1595674 107 75 59 255 0.4375 0.93750006
-0.09997917 -0.3529108 -3.060612 107 75 59 255 0.453125 0
0.56957036 0.021473585 -2.745373 103 73 57 255 0.4375 0.06249994
2.6343477 -0.59617025 -0.57783 93 66 52 255 0.4375 0.4375
0.90793526 -0.26396614 3.0445879 107 75 59 255 0.4375 0.875
2.4413123 -0.38512266 -0.90317076 81 58 44 255 0.4375 0.375
1.7979671 -0.37800962 2.6443489 81 58 44 255 0.43749997 0.81250006
2.2318187 -0.52566564 -1.2552308 81 58 44 255 0.43749997 0.31249994
1.9651439 -0.93101907 1.2960861 81 58 44 255 0.4375 0.75000006
2.1037412 -0.7155819 -1.6087561 81 58 44 255 0.4375 0.25
2.1785948 -0.95586574 0.6740209 81 58 44 255 0.43749997 0.68750006
1.8434871 -0.61055815 -2.5103645 81 58 44 255 0.43749997 0.1875
2.2898593 -1.0467434 0.06697133 81 58 44 255 0.4375 0.62500006
1.2264324 -0.4189022 -2.7778041 81 58 44 255 0.4375 0.125
2.0758383 -1.1982056 -1.8006692 81 58 44 255 0.40625 0.31249994
1.8617918 -1.4271058 -2.2330968 81 58 44 255 0.40625 0.25
1.9906013 -0.66716015 2.3089702 81 58 44 255 0.40625 0.75000006
1.7134472 -1.436577 0.47392377 81 58 44 255 0.40625 0.68750006
1.677372 -0.9354625 -2.6030939 81 58 44 255 0.40625 0.1875
1.9180423 -1.2349352 0.2012407 81 58 44 255 0.40625 0.62500006
1.3500009 -0.6086297 -2.794946 81 58 44 255 0.40625 0.125
2.0456734 -1.3210045 -0.40140092 81 58 44 255 0.40625 0.5625
0.902724 -0.24048683 -2.80298 81 58 44 255 0.40625 0.06249994
2.5255077 -0.78125274 -0.5440052 85 61 46 255 0.40624997 0.5
-0.2585445 -0.36611205 3.1665013 107 75 59 255 0.421875 1
0.27860484 -0.9295486 2.778702 107 75 59 255 0.40625 0.93750006
-0.09997917 -0.3529108 -3.060612 107 75 59 255 0.421875 0
2.3004453 -0.8451369 -0.819574 81 58 44 255 0.40625 0.4375
0.8965221 -0.37019515 3.0900636 107 75 59 255 0.40625 0.875
2.2632074 -0.65026355 -1.1155808 81 58 44 255 0.40625 0.375
1.7452916 -0.6467061 2.9049706 83 60 45 255 0.40625 0.81250006
-0.09997917 -0.3529108 -3.060612 107 75 59 255 0.390625 0
0.87619346 -0.37208644 -2.8433108 81 58 44 255 0.375 0.06249994
1.5575923 -2.379155 -0.34548745 81 58 44 255 0.37499994 0.5
2.032509 -1.3594488 -0.7012111 81 58 44 255 0.375 0.4375
0.71236867 -0.7702156 3.0270028 107 75 59 255 0.375 0.93750006
1.0271626 -0.45081717 3.1138866 107 75 59 255 0.375 0.875
2.0574048 -1.143689 -1.3407558 81 58 44 255 0.375 0.375
1.7753159 -0.58790857 2.8024127 81 58 44 255 0.37499997 0.81250006
1.7180327 -1.9921759 -2.03076 81 58 44 255 0.375 0.31249994
1.6202967 -1.0083998 2.8812275 80 58 44 255 0.375 0.75000006
1.3990865 -1.5389402 -2.5348456 81 58 44 255 0.375 0.25
1.7905949 -1.5890741 1.8001776 81 58 44 255 0.375 0.68750006
1.1110346 -1.2074748 -2.8169 81 58 44 255 0.37499997 0.1875
1.5619595 -1.7430782 0.42986995 81 58 44 255 0.375 0.62500006
1.1675724 -0.8484382 -2.8341093 81 58 44 255 0.375 0.125
1.49022 -2.1411917 0.25020918 81 58 44 255 0.375 0.5625
-0.2585445 -0.36611205 3.1665013 107 75 59 255 0.390625 1
1.3033456 -2.030411 -2.3702106 81 58 44 255 0.34375 0.25
0.77078414 -1.3454312 -2.8939724 81 58 44 255 0.34375 0.1875
1.5710006 -2.412092 1.0560787 81 58 44 255 0.34375 0.68750006
1.5343363 -2.4096959 0.85021424 81 58 44 255 0.34375 0.62500006
0.47221574 -0.8684453 -2.923181 85 61 47 255 0.34375 0.125
1.2763584 -2.6487346 0.5332448 81 58 44 255 0.34375 0.5625
0.85766494 -0.50804514 -2.8741481 81 58 44 255 0.34375 0.06249994
1.3800075 -2.8014913 -0.16779082 90 64 50 255 0.34374994 0.5
-0.2585445 -0.36611205 3.1665013 107 75 59 255 0.359375 1
0.49553293 -0.99417835 2.8440356 103 74 58 255 0.34375 0.93750006
-0.09997917 -0.3529108 -3.060612 107 75 59 255 0.359375 0
1.6530463 -2.5270042 -0.64502954 93 66 52 255 0.34375 0.4375
1.1586041 -0.5518255 3.132501 107 75 59 255 0.34375 0.875
1.6644107 -2.356629 -1.1261848 81 58 44 255 0.34375 0.375
1.2370718 -1.1362535 2.8015335 79 57 44 255 0.34375 0.81250006
1.8801612 -1.945468 -1.5146744 81 58 44 255 0.34375 0.31249994
0.9922383 -2.2198482 1.7351032 81 58 44 255 0.34375 0.75000006
-0.4439424 -1.5289394 2.1576295 81 58 44 255 0.3125 0.93750006
0.86043817 -0.73291796 3.0581534 107 75 59 255 0.3125 0.875
1.2546793 -2.799733 0.13627857 82 58 44 255 0.3125 0.4375
1.2853483 -2.884493 -1.1126851 98 70 54 255 0.3125 0.375
1.3347912 -0.6466891 2.9863524 100 71 55 255 0.3125 0.81250006
0.44079882 -2.3930404 -2.2030237 93 66 52 255 0.3125 0.31249994
0.9730939 -2.24806 1.6706588 81 58 44 255 0.3125 0.75000006
0.76401585 -2.2000237 -2.3467658 81 58 44 255 0.3125 0.25
0.5292411 -2.6237557 1.4499487 81 58 44 255 0.3125 0.68750006
0.582113 -1.611588 -2.786408 81 58 44 255 0.3125 0.1875
1.1002618 -2.349982 1.3586118 81 58 44 255 0.3125 0.62500006
0.39726642 -0.97824806 -2.928161 92 66 51 255 0.3125 0.125
0.5059663 -2.7522035 0.9785016 81 58 44 255 0.3125 0.5625
0.78986883 -0.5483453 -2.8894143 81 58 44 255 0.3125 0.06249994
1.2213527 -2.666678 0.5910754 81 58 44 255 0.31249997 0.5
-0.2585445 -0.36611205 3.1665013 107 75 59 255 0.328125 1
-0.09997917 -0.3529108 -3.060612 107 75 59 255 0.328125 0
0.250592 -2.3815513 1.3567334 81 58 44 255 0.28125 0.68750006
0.5048871 -2.7022343 0.6758087 81 58 44 255 0.28125 0.62500006
0.2723324 -1.8283851 -2.677747 100 71 55 255 0.28124997 0.1875
0.14158897 -1.1118717 -2.9032562 107 75 59 255 0.28125 0.125
-0.07652091 -2.6615605 -0.31539333 81 58 44 255 0.28125 0.5625
0.4782865 -0.43620947 -2.893089 95 67 52 255 0.28125 0.06249994
0.45676273 -3.0115387 -0.37878877 107 75 59 255 0.28124994 0.5
-0.2585445 -0.36611205 3.1665013 107 75 59 255 0.296875 1
-0.27477425 -1.3756161 2.3093228 81 58 44 255 0.28125 0.93750006
-0.09997917 -0.3529108 -3.060612 107 75 59 255 0.296875 0
-0.22241232 -2.658905 -0.7535438 92 66 51 255 0.28125 0.4375
0.26429823 -1.5357548 2.3522391 83 60 45 255 0.28125 0.875
0.098402426 -2.9700015 -0.9752562 107 75 59 255 0.28125 0.375
0.6073616 -1.4425502 2.5389624 100 71 55 255 0.28124997 0.81250006
0.37702945 -2.873806 -1.6544389 107 75 59 255 0.28125 0.31249994
0.5487711 -2.12564 2.1011274 82 58 44 255 0.28125 0.75000006
0.19207439 -2.223014 -2.290639 106 74 58 255 0.28125 0.25
-0.35581884 -2.4451008 -0.6528711 81 58 44 255 0.24999997 0.4375
-0.002372556 -3.0648024 -1.2667195 107 75 59 255 0.25 0.375
-0.5629312 -1.4999257 2.2496722 81 58 44 255 0.24999997 0.875
-0.27921906 -1.792822 1.7374052 81 58 44 255 0.24999997 0.81250006
0.035471834 -2.8413978 -1.9615843 107 75 59 255 0.24999997 0.31249994
-0.28873992 -2.0599434 1.314941 81 58 44 255 0.25 0.75000006
-0.44710413 -1.948832 -2.1991196 107 75 59 255 0.25 0.25
-0.18460254 -2.2038713 1.0383172 81 58 44 255 0.24999997 0.68750006
0.014884628 -1.7338258 -2.6813786 107 75 59 255 0.24999997 0.1875
-0.09072066 -2.387952 0.51491064 81 58 44 255 0.25 0.62500006
-0.26049104 -1.0451379 -2.865481 107 75 59 255 0.24999997 0.125
-0.55608624 -2.220595 -0.0020845437 81 58 44 255 0.24999997 0.5625
0.27745312 -0.27371052 -2.894808 107 75 59 255 0.25 0.06249994
-0.29339224 -2.4652743 -0.5293383 81 58 44 255 0.24999997 0.5
-0.2585445 -0.36611205 3.1665013 107 75 59 255 0.265625 1
-0.38168183 -1.4246043 2.271706 81 58 44 255 0.25 0.93750006
-0.09997917 -0.3529108 -3.060612 107 75 59 255 0.265625 0
-0.79608667 -1.1841638 -2.6634119 107 75 59 255 0.21875 0.1875
-0.43660024 -0.97003853 -2.8751638 107 75 59 255 0.21875 0.125
-0.5477539 -2.212217 0.41678822 81 58 44 255 0.21875 0.62500006
-0.571122 -2.2196667 -0.108389325 81 58 44 255 0.21875 0.5625
0.09375989 -0.39869386 -2.9912283 107 75 59 255 0.21875 0.06249994
-0.5063202 -2.2426565 -0.10717131 81 58 44 255 0.21874994 0.5
-0.2585445 -0.36611205 3.1665013 107 75 59 255 0.234375 1
-0.473951 -1.4234535 2.301855 81 58 44 255 0.21875 0.93750006
-0.09997917 -0.3529108 -3.060612 107 75 59 255 0.234375 0
-0.6889698 -2.2314308 -1.0424839 81 58 44 255 0.21875 0.4375
-0.5928733 -1.4539503 2.322416 81 58 44 255 0.21875 0.875
-0.5585585 -2.371374 -1.0097716 81 58 44 255 0.21875 0.375
-0.7082835 -1.5616316 2.2030792 81 58 44 255 0.21875 0.81250006
-0.4853593 -2.81912 -1.7389736 107 75 59 255 0.21875 0.31249994
-0.70282245 -2.1087532 1.325376 81 58 44 255 0.21875 0.75000006
-0.6604292 -2.13265 -1.8852229 107 75 59 255 0.21875 0.25
-0.6510472 -2.200545 0.84679157 81 58 44 255 0.21875 0.68750006
-0.6069114 -1.4447132 2.3442163 81 58 44 255 0.1875 0.875
-0.721802 -1.7729114 1.9249705 81 58 44 255 0.18749997 0.81250006
-0.6647987 -2.274076 -1.140454 81 58 44 255 0.1875 0.37499994
-0.76685965 -2.1892858 -1.5974649 100 71 55 255 0.1875 0.31249994
-0.7309796 -2.2130268 0.91077524 81 58 44 255 0.1875 0.75000006
-1.0253149 -1.8526944 -1.90645 107 75 59 255 0.1875 0.25
-1.118442 -1.9974738 1.684782 81 58 44 255 0.1875 0.68750006
-0.9816755 -1.2031342 -2.7180655 107 75 59 255 0.18749997 0.1875
-1.1175474 -2.1479168 1.5183266 81 58 44 255 0.1875 0.62500006
-0.20451343 -0.8997122 -2.9572403 107 75 59 255 0.1875 0.125
-1.2701921 -2.1927202 1.224425 81 58 44 255 0.18749997 0.5625
-0.16148002 -0.8047553 -3.0030978 107 75 59 255 0.1875 0.06249994
-1.4238918 -2.1929994 0.9260362 81 58 44 255 0.18749997 0.5
-0.2585445 -0.36611205 3.1665013 107 75 59 255 0.203125 1
-0.6391539 -1.2402713 2.5679176 82 59 44 255 0.1875 0.93750006
-0.09997917 -0.3529108 -3.060612 107 75 59 255 0.203125 0
-0.817969 -2.132967 -0.709198 81 58 44 255 0.18749997 0.4375
-1.6896917 -2.0101275 1.0845816 81 58 44 255 0.15625003 0.62500006
-1.4346014 -2.197664 0.8938819 81 58 44 255 0.15624997 0.5625
-0.6526001 -0.9604065 -2.9224849 107 75 59 255 0.15624997 0.125
-0.57185966 -0.7836748 -3.070143 107 75 59 255 0.15625003 0.06249994
-1.9625275 -2.06177 0.5717103 81 58 44 255 0.15624994 0.5
-0.2585445 -0.36611205 3.1665013 107 75 59 255 0.17187503 1
-0.719874 -0.90923053 2.9224942 107 75 59 255 0.15625003 0.93750006
-0.09997917 -0.3529108 -3.060612 107 75 59 255 0.17187503 0
-2.046276 -1.8241578 -0.10909202 81 58 44 255 0.15624997 0.4375
-0.642631 -1.420135 2.4004834 81 58 44 255 0.15624997 0.875
-0.6756182 -2.2533786 -1.1130426 81 58 44 255 0.15625003 0.37499994
-0.6621216 -1.3539383 2.3949497 81 58 44 255 0.15624997 0.8125001
-1.0112201 -1.9007488 -1.7070097 97 68 53 255 0.15624997 0.31249994
-0.73216397 -1.7866037 1.9115067 81 58 44 255 0.15624997 0.75000006
-1.3694025 -1.5176119 -2.2158566 107 75 59 255 0.15624997 0.25
-0.79335046 -1.5462724 2.2368264 81 58 44 255 0.15624997 0.68750006
-0.9829886 -1.1719264 -2.8144019 107 75 59 255 0.15624997 0.18749994
-1.4898179 -1.9651632 -0.5789806 81 58 44 255 0.125 0.37499994
-1.1270175 -1.7716324 -1.5994893 84 60 46 255 0.12499997 0.31249994
-0.91994494 -0.7863405 2.849122 107 75 59 255 0.12499997 0.8125001
-0.7438019 -1.1324986 2.555053 83 60 45 255 0.125 0.75000006
-1.8454353 -1.4564553 -2.3365362 107 75 59 255 0.125 0.25
-1.8966235 -1.8719332 1.3737715 81 58 44 255 0.12499997 0.68750006
-1.5050169 -1.4206446 -2.4160469 107 75 59 255 0.12499997 0.18749994
-1.7108663 -1.970222 1.1837443 81 58 44 255 0.125 0.62500006
-1.1038672 -1.1726859 -2.898874 107 75 59 255 0.125 0.125
-2.414945 -1.8640318 0.55899847 81 58 44 255 0.12499997 0.5625
-0.7149395 -0.80888236 -3.1276784 107 75 59 255 0.125 0.06249994
-2.2588146 -1.7575554 -0.044024173 81 58 44 255 0.12499994 0.5
-0.2585445 -0.36611205 3.1665013 107 75 59 255 0.14062503 1
-0.7620018 -0.82553655 3.0154555 107 75 59 255 0.125 0.93750006
-0.09997917 -0.3529108 -3.060612 107 75 59 255 0.14062503 0
-2.0048892 -1.6357973 -0.46271136 81 58 44 255 0.12499997 0.4375
-0.7424776 -1.2697766 2.6418834 83 59 45 255 0.125 0.875
-0.9846262 -0.9678799 -3.1171334 107 75 59 255 0.09375 0.125
-0.68931293 -0.72844654 -3.1730936 107 75 59 255 0.09375 0.06249994
-2.5639105 -1.5689167 0.7109626 81 58 44 255 0.09374997 0.5625
-2.7372375 -1.5327853 0.5199863 81 58 44 255 0.09374997 0.5
-0.2585445 -0.36611205 3.1665013 107 75 59 255 0.109375 1
-0.88309824 -0.65500647 3.0459538 107 75 59 255 0.09375 0.93750006
-0.09997917 -0.3529108 -3.060612 107 75 59 255 0.109375 0
-2.3842435 -1.3800261 -0.6239813 81 58 44 255 0.09374997 0.4375
-0.9637964 -0.64610636 2.9502676 107 75 59 255 0.09375 0.875
-1.6809199 -1.7853887 -0.5902079 81 58 44 255 0.09375 0.37499994
-0.9222032 -0.8370187 2.7271204 107 75 59 255 0.09374997 0.8125001
-1.5079583 -1.7438359 -1.0630385 81 58 44 255 0.09375 0.31249994
-1.7288173 -1.3137156 1.64424 81 58 44 255 0.09375 0.75000006
-1.8434396 -1.2327926 -2.5322833 107 75 59 255 0.09375 0.24999994
-2.1008313 -1.7734294 1.3347821 81 58 44 255 0.09375 0.68750006
-1.2232965 -1.1441287 -2.985308 107 75 59 255 0.09374997 0.18749994
-2.3751884 -1.1258692 0.8961584 81 58 44 255 0.09375 0.6250001
-2.0157015 -1.2328439 -1.4178425 81 58 44 255 0.0625 0.31249988
-2.0668972 -0.8604329 -2.3777313 107 75 59 255 0.06250003 0.25
-2.145836 -0.9056986 1.2527025 83 60 46 255 0.06250003 0.75000006
-2.1045737 -1.6576614 1.3640585 81 58 44 255 0.0625 0.6875001
-1.5551974 -0.8680949 -2.8954003 107 75 59 255 0.0625 0.18749994
-2.429915 -0.9522834 0.8647247 81 58 44 255 0.06250003 0.6250001
-0.79671127 -0.5503603 -3.2913055 107 75 59 255 0.0625 0.125
-2.7521675 -1.2591668 0.5760717 81 58 44 255 0.0625 0.5625
-0.5805363 -0.4368922 -3.2402864 107 75 59 255 0.0625 0.06249994
-2.7596762 -0.73141235 -0.0027016776 84 60 46 255 0.06249994 0.5
-0.2585445 -0.36611205 3.1665013 107 75 59 255 0.078125 1
-0.95015544 -0.48552638 3.0823262 107 75 59 255 0.0625 0.93750006
-0.09997917 -0.3529108 -3.060612 107 75 59 255 0.078125 0
-2.6621876 -0.6599829 -0.3105939 84 60 46 255 0.0625 0.4375
-1.3426425 -0.12584937 2.9843366 107 75 59 255 0.0625 0.875
-2.4927964 -1.0313629 -1.0387688 81 58 44 255 0.06250003 0.37499994
-1.7712214 -0.57256424 2.3652034 107 75 59 255 0.0625 0.8125001
-0.2585445 -0.36611205 3.1665013 107 75 59 255 0.04687497 1
-1.0602881 -0.33130747 3.0864387 107 75 59 255 0.03125 0.93750006
-0.09997917 -0.3529108 -3.060612 107 75 59 255 0.04687497 0
-0.24271259 -0.09455737 -3.0795918 107 75 59 255 0.03125 0.06249994
-2.7788584 -0.8850598 0.55373514 86 62 47 255 0.03124994 0.5
-2.4570382 -0.19835693 -0.29898772 81 58 44 255 0.03124997 0.4375
-1.4053948 0.026368111 3.0332832 107 75 59 255 0.03124997 0.87500006
-2.7730792 -0.12093041 -1.1581792 81 58 44 255 0.03125 0.37499994
-1.971772 -0.11796024 2.443512 107 75 59 255 0.03124997 0.8125001
-2.4678338 -0.6875467 -1.4245335 107 75 59 255 0.03124997 0.31249994
-1.9596804 -0.4601534 2.12228 107 75 59 255 0.03125 0.75000006
-2.135581 -0.71971923 -2.296779 107 75 59 255 0.03125 0.25
-2.3159313 -0.8573931 1.0057118 84 60 46 255 0.03124997 0.68750006
-1.6554899 -0.85486263 -2.819238 107 75 59 255 0.03124997 0.18749994
-2.578903 -0.89783067 0.7137028 82 59 45 255 0.03125 0.62500006
-0.79935384 -0.51257455 -3.302475 107 75 59 255 0.03124997 0.125
-2.6446314 -0.9074972 0.6565599 83 59 45 255 0.03124997 0.5625
-1.9542606 0.43865988 2.0776584 107 75 59 255 0 0.75000006
-2.0275266 -0.1123751 1.556983 107 75 59 255 0 0.68750006
-2.1368406 -0.58149666 -2.3453035 107 75 59 255 0 0.24999994
-1.3314555 -0.60685885 -3.0248685 107 75 59 255 0 0.18749994
-2.0371387 -0.30929074 1.1647403 107 75 59 255 0 0.6250001
-0.9267289 -0.7311454 -3.2913392 107 75 59 255 0 0.125
-2.1253684 -0.48456848 1.1475571 107 75 59 255 0 0.5625
-0.25040483 0.22707641 -3.0480773 107 75 59 255 0 0.06249994
-1.9958185 -0.30695328 0.8490802 107 75 59 255 0 0.5
-0.2585445 -0.36611205 3.1665013 107 75 59 255 0.015625 1
-1.1255672 -0.22431335 3.1112192 107 75 59 255 0 0.93750006
-0.09997917 -0.3529108 -3.060612 107 75 59 255 0.015625 0
-2.457338 0.01584613 -0.75463134 81 58 44 255 0 0.4375
-1.2574543 0.15006356 3.1431 107 75 59 255 0 0.87500006
-2.796709 0.011833504 -1.4177848 82 59 45 255 0 0.37499994
-1.9555068 0.51970553 2.151225 107 75 59 255 0 0.8125001
-2.4921231 -0.32865736 -1.8466697 107 75 59 255 0 0.31249994
-2.457338 0.01584613 -0.75463134 81 58 44 255 1 0.4375
-1.9958185 -0.30695328 0.8490802 107 75 59 255 1 0.5
-1.901639 0.22895834 0.63348573 102 72 57 255 0.9687499 0.5
-1.9219157 0.1060519 0.5654645 102 72 57 255 0.96874994 0.4375
-1.2574543 0.15006356 3.1431 107 75 59 255 1 0.87500006
-1.1255672 -0.22431335 3.1112192 107 75 59 255 1 0.93750006
-1.1291186 -0.13186517 3.1788568 107 75 59 255 0.96875 0.93750006
-1.1811389 0.32068864 3.1794417 107 75 59 255 0.96874994 0.87500006
-2.796709 0.011833504 -1.4177848 82 59 45 255 1 0.37499994
-2.0560913 0.23359652 0.06837475 81 58 44 255 0.96875 0.37499994
-1.9555068 0.51970553 2.151225 107 75 59 255 1 0.8125001
-1.9572135 0.52015555 2.161968 107 75 59 255 0.96874994 0.8125001
-2.4921231 -0.32865736 -1.8466697 107 75 59 255 1 0.31249994
-2.5288725 0.009617554 -0.8957392 81 58 44 255 0.96874994 0.31249988
-1.9542606 0.43865988 2.0776584 107 75 59 255 1 0.75000006
-1.9422977 0.62996197 2.3676913 107 75 59 255 0.96875 0.75000006
-2.1368406 -0.58149666 -2.3453035 107 75 59 255 1 0.24999994
-2.4960268 -0.05763439 -1.8592435 103 73 58 255 0.96875 0.24999994
-2.0275266 -0.1123751 1.556983 107 75 59 255 1 0.68750006
-1.913641 0.7679602 2.030594 107 75 59 255 0.96874994 0.6875001
-1.3314555 -0.60685885 -3.0248685 107 75 59 255 1 0.18749994
-1.9179066 0.48464644 -2.179011 104 73 58 255 0.96874994 0.18749994
-2.0371387 -0.30929074 1.1647403 107 75 59 255 1 0.6250001
-1.9598861 -0.17263584 1.0054749 107 75 59 255 0.96875 0.6250001
-0.9267289 -0.7311454 -3.2913392 107 75 59 255 1 0.125
-1.3039217 0.17742202 -3.0497406 107 75 59 255 0.96874994 0.125
-2.1253684 -0.48456848 1.1475571 107 75 59 255 1 0.5625
-1.9175987 -0.014014295 0.9605958 107 75 59 255 0.96874994 0.5625
-0.25040483 0.22707641 -3.0480773 107 75 59 255 1 0.06249994
-0.32152653 0.36589426 -3.0918295 107 75 59 255 0.96875 0.06249994
-0.2585445 -0.36611205 3.1665013 107 75 59 255 0.984375 1
-0.09997917 -0.3529108 -3.060612 107 75 59 255 0.984375 0
-2.0937026 0.4941245 -0.79161966 81 58 44 255 0.9375 0.24999994
-1.8462701 0.6175336 -2.075097 91 65 51 255 0.93749994 0.18749994
-1.8721157 1.0703382 1.3667909 107 75 59 255 0.93749994 0.6875001
-2.039838 0.62654084 1.0081365 107 75 59 255 0.9375 0.6250001
-1.2737863 0.5001024 -3.0631456 102 73 58 255 0.9375 0.125
-1.9112262 0.11186846 0.9482658 107 75 59 255 0.93749994 0.56250006
-0.4386633 0.5646437 -3.1876407 107 75 59 255 0.9375 0.06249994
-1.9270984 0.44687453 0.72991407 104 73 58 255 0.9374999 0.5
-0.2585445 -0.36611205 3.1665013 107 75 59 255 0.953125 1
-1.031244 -0.07007934 3.2882416 107 75 59 255 0.9375 0.93750006
-0.09997917 -0.3529108 -3.060612 107 75 59 255 0.953125 0
-2.0747097 1.2390841 -0.6920442 81 58 44 255 0.93749994 0.4375
-1.1494703 0.49737185 3.2462702 107 75 59 255 0.9375 0.87500006
-2.1321156 0.49129456 -0.5556448 81 58 44 255 0.9375 0.37499994
-1.8497629 0.83756745 2.7358663 107 75 59 255 0.93749994 0.8125001
-2.0790117 0.57442033 -0.7144828 81 58 44 255 0.93749994 0.31249988
-1.7699882 1.16894 1.9032595 107 75 59 255 0.9375 0.75000006
-0.77351433 0.20948355 3.4368668 107 75 59 255 0.90625 0.93750006
-1.1686058 0.87348866 3.2751713 103 73 57 255 0.90625 0.87500006
-2.1061313 1.5850325 -0.7945633 81 58 44 255 0.90624994 0.4375
-1.8282673 1.4613957 -1.2853707 81 58 44 255 0.90625 0.37499994
-1.7281693 1.2565812 2.476736 103 73 57 255 0.90624994 0.8125001
-1.8363036 1.1243112 -1.3485069 81 58 44 255 0.90625 0.31249988
-1.6871283 1.3176818 2.2749019 97 69 53 255 0.90625 0.75000006
-1.5843385 1.2015971 -1.6358542 81 58 44 255 0.90625 0.24999994
-1.6992185 1.5515374 1.56211 104 73 58 255 0.90625 0.6875001
-1.582754 0.96138555 -1.8268466 81 58 44 255 0.90624994 0.18749994
-1.9281523 1.0920724 1.05097 107 75 59 255 0.90625 0.6250001
-1.2521201 0.7145859 -3.0288198 81 63 52 255 0.90625 0.125
-1.9474227 0.98610693 0.73938113 102 72 57 255 0.90624994 0.56250006
-0.53726697 0.80323684 -3.2624152 107 75 59 255 0.90625 0.06249994
-1.9780717 0.64574623 0.68429136 95 67 52 255 0.90624994 0.5
-0.2585445 -0.36611205 3.1665013 107 75 59 255 0.921875 1
-0.09997917 -0.3529108 -3.060612 107 75 59 255 0.921875 0
-1.199884 1.9456645 1.6978432 81 58 44 255 0.87499994 0.6875001
-1.394924 2.3040953 0.8169793 107 75 59 255 0.875 0.6250001
-1.5682284 0.90074354 -2.0372808 95 67 52 255 0.8749999 0.18749994
-1.1757913 0.80361867 -3.0960736 75 60 51 255 0.875 0.125
-1.6379102 1.493291 0.57866687 106 74 58 255 0.87499994 0.56250006
-0.3090416 0.8154654 -3.1614902 107 75 59 255 0.875 0.06249994
-1.8474226 1.9571598 -0.44243208 81 58 44 255 0.8749999 0.5
-0.2585445 -0.36611205 3.1665013 107 75 59 255 0.890625 1
-0.6231833 0.41706762 3.4801924 107 75 59 255 0.875 0.93750006
-0.09997917 -0.3529108 -3.060612 107 75 59 255 0.890625 0
-1.8498317 2.0339172 -0.5244699 82 58 44 255 0.87499994 0.4375
-1.1039705 1.1306704 3.1189399 82 59 45 255 0.875 0.87500006
-1.8890216 1.8348652 -1.0407037 81 58 44 255 0.875 0.37499994
-1.5742745 1.2857078 2.79021 95 67 52 255 0.8749999 0.8125001
-1.5135587 1.7037044 -1.524105 84 60 46 255 0.87499994 0.31249988
-1.6592321 1.6454667 2.2570338 86 62 47 255 0.875 0.75000006
-1.5496674 1.3159595 -1.6260753 81 58 44 255 0.875 0.24999994
-1.8049006 2.1440327 -0.48036897 89 64 49 255 0.84374994 0.4375
-1.6378219 1.9374759 -1.2857039 85 61 46 255 0.84375 0.37499994
-0.82359564 1.2019178 3.2299845 81 58 44 255 0.84375 0.87500006
-0.9674252 1.812232 2.8169088 81 58 44 255 0.84374994 0.8125002
-1.4837569 2.1891603 -1.2635801 107 75 59 255 0.84374994 0.31249988
-1.408618 1.7454917 2.6944416 81 58 44 255 0.84375 0.75000006
-1.2476614 1.548524 -1.9479969 107 75 59 255 0.84375 0.24999994
-0.51299906 2.2583137 1.4612974 81 58 44 255 0.84374994 0.6875001
-1.1919776 1.4764502 -2.1185248 107 75 59 255 0.84374994 0.18749982
-1.3359128 2.8756566 0.89217025 107 75 59 255 0.84375 0.6250001
-0.9747981 0.786191 -3.290516 98 71 57 255 0.84375 0.125
-1.5434028 2.057901 0.17985044 107 75 59 255 0.84374994 0.56250006
-0.15547569 0.79474497 -3.077636 107 75 59 255 0.84375 0.06249994
-1.6557255 1.9373719 -0.0025339436 92 66 51 255 0.8437499 0.5
-0.2585445 -0.36611205 3.1665013 107 75 59 255 0.859375 1
-0.47970545 0.56216323 3.4978452 104 73 58 255 0.84375 0.93750006
-0.09997917 -0.3529108 -3.060612 107 75 59 255 0.859375 0
-1.0519108 1.5949001 -2.2554958 107 75 59 255 0.81249994 0.18749982
-1.0900427 0.8982291 -3.0814087 69 57 50 255 0.8125 0.125
-1.0583541 2.890601 0.9595454 107 75 59 255 0.8125 0.6250001
-1.4030708 2.5509996 0.5218973 107 75 59 255 0.81249994 0.56250006
-0.07296119 0.78892344 -3.030677 107 75 59 255 0.8125 0.06249988
-1.5994625 2.3053 0.22942308 107 75 59 255 0.81249994 0.5
-0.2585445 -0.36611205 3.1665013 107 75 59 255 0.828125 1
-0.19925764 0.79265594 3.5180387 86 61 47 255 0.8125 0.9375001
-0.09997917 -0.3529108 -3.060612 107 75 59 255 0.828125 0
-1.3991253 2.2698655 0.086484745 107 75 59 255 0.81249994 0.4375
-0.5578234 1.3238646 3.2862968 81 58 44 255 0.8125 0.87500006
-0.8682866 2.453106 -0.6319085 107 75 59 255 0.8125 0.37499994
-0.42076588 2.0263956 2.6490462 81 58 44 255 0.81249994 0.8125002
-0.7372546 2.5084438 -1.2814915 107 75 59 255 0.81249994 0.31249988
-1.0157257 2.077719 2.5887964 81 58 44 255 0.8125 0.75000006
-0.7172524 2.0008454 -2.385227 107 75 59 255 0.8125 0.24999994
-0.45390156 2.2121801 1.7028962 81 58 44 255 0.81249994 0.6875001
0.030060062 2.977123 -1.4782809 101 71 55 255 0.78125 0.37499994
-0.16402315 2.8964686 -1.474513 106 74 58 255 0.78124994 0.31249988
-0.29583693 1.9407752 2.6699338 81 58 44 255 0.78124994 0.8125002
-0.27380416 2.1701171 2.1435955 81 58 44 255 0.78125 0.75000006
-0.54982835 2.234746 -2.4052813 107 75 59 255 0.78125 0.25
0.08799423 2.1652017 1.5526927 81 58 44 255 0.78124994 0.6875001
-1.0077951 1.4715799 -2.3777275 107 75 59 255 0.78124994 0.18749982
-1.0695177 2.79736 0.866327 107 75 59 255 0.78125 0.6250001
-0.8304722 1.0095863 -3.2540898 74 59 51 255 0.78125 0.125
-1.0321226 2.5594313 0.5403555 107 75 59 255 0.78124994 0.56250006
0.018764684 0.78922236 -2.980107 106 74 59 255 0.78125 0.06249988
-0.6700467 2.498555 0.39022616 107 75 59 255 0.7812499 0.5
-0.2585445 -0.36611205 3.1665013 107 75 59 255 0.796875 1
-0.038490724 0.90635145 3.4812014 82 58 44 255 0.78125 0.9375001
-0.09997917 -0.3529108 -3.060612 107 75 59 255 0.796875 0
-0.7248491 2.4286652 0.26728788 107 75 59 255 0.78124994 0.4375
-0.15703623 1.4580492 3.2508633 81 58 44 255 0.78125 0.87500006
-0.2585445 -0.36611205 3.1665013 107 75 59 255 0.765625 1
-0.09997917 -0.3529108 -3.060612 107 75 59 255 0.765625 0
4 0 1 2 3
4 4 5 6 7
4 8 0 3 9
3 10 11 12
3 13 4 7
4 14 8 9 15
4 16 10 12 17
4 18 14 15 19
4 20 16 17 21
4 22 18 19 23
4 24 20 21 25
4 26 22 23 27
4 28 24 25 29
4 30 26 27 31
4 1 28 29 2
4 5 30 31 6
4 31 27 32 33
4 2 29 34 35
4 6 31 33 36
4 3 2 35 37
4 7 6 36 38
4 9 3 37 39
3 12 40 41
3 42 7 38
4 15 9 39 43
4 17 12 41 44
4 19 15 43 45
4 21 17 44 46
4 23 19 45 47
4 25 21 46 48
4 27 23 47 32
4 29 25 48 34
4 45 43 49 50
4 46 44 51 52
4 47 45 50 53
4 48 46 52 54
4 32 47 53 55
4 34 48 54 56
4 33 32 55 57
4 35 34 56 58
4 36 33 57 59
4 37 35 58 60
4 38 36 59 61
4 39 37 60 62
3 41 63 64
3 65 38 61
4 43 39 62 49
4 44 41 64 51
4 59 57 66 67
4 60 58 68 69
4 61 59 67 70
4 62 60 69 71
3 64 72 73
3 74 61 70
4 49 62 71 75
4 51 64 73 76
4 50 49 75 77
4 52 51 76 78
4 53 50 77 79
4 54 52 78 80
4 55 53 79 81
4 56 54 80 82
4 57 55 81 66
4 58 56 82 68
4 78 76 83 84
4 79 77 85 86
4 80 78 84 87
4 81 79 86 88
4 82 80 87 89
4 66 81 88 90
4 68 82 89 91
4 67 66 90 92
4 69 68 91 93
4 70 67 92 94
4 71 69 93 95
3 73 96 97
3 98 70 94
4 75 71 95 99
4 76 73 97 83
4 77 75 99 85
4 93 91 100 101
4 94 92 102 103
4 95 93 101 104
3 97 105 106
3 107 94 103
4 99 95 104 108
4 83 97 106 109
4 85 99 108 110
4 84 83 109 111
4 86 85 110 112
4 87 84 111 113
4 88 86 112 114
4 89 87 113 115
4 90 88 114 116
4 91 89 115 100
4 92 90 116 102
4 112 110 117 118
4 113 111 119 120
4 114 112 118 121
4 115 113 120 122
4 116 114 121 123
4 100 115 122 124
4 102 116 123 125
4 101 100 124 126
4 103 102 125 127
4 104 101 126 128
3 106 129 130
3 131 103 127
4 108 104 128 132
4 109 106 130 133
4 110 108 132 117
4 111 109 133 119
4 127 125 134 135
4 128 126 136 137
3 130 138 139
3 140 127 135
4 132 128 137 141
4 133 130 139 142
4 117 132 141 143
4 119 133 142 144
4 118 117 143 145
4 120 119 144 146
4 121 118 145 147
4 122 120 146 148
4 123 121 147 149
4 124 122 148 150
4 125 123 149 134
4 126 124 150 136
4 146 144 151 152
4 147 145 153 154
4 148 146 152 155
4 149 147 154 156
4 150 148 155 157
4 134 149 156 158
4 136 150 157 159
4 135 134 158 160
4 137 136 159 161
3 139 162 163
3 164 135 160
4 141 137 161 165
4 142 139 163 166
4 143 141 165 167
4 144 142 166 151
4 145 143 167 153
4 161 159 168 169
3 163 170 171
3 172 160 173
4 165 161 169 174
4 166 163 171 175
4 167 165 174 176
4 151 166 175 177
4 153 167 176 178
4 152 151 177 179
4 154 153 178 180
4 155 152 179 181
4 156 154 180 182
4 157 155 181 183
4 158 156 182 184
4 159 157 183 168
4 160 158 184 173
4 180 178 185 186
4 181 179 187 188
4 182 180 186 189
4 183 181 188 190
4 184 182 189 191
4 168 183 190 192
4 173 184 191 193
4 169 168 192 194
3 171 195 196
3 197 173 193
4 174 169 194 198
4 175 171 196 199
4 176 174 198 200
4 177 175 199 201
4 178 176 200 185
4 179 177 201 187
3 202 193 203
4 198 194 204 205
4 199 196 206 207
4 200 198 205 208
4 201 199 207 209
4 185 200 208 210
4 187 201 209 211
4 186 185 210 212
4 188 187 211 213
4 189 186 212 214
4 190 188 213 215
4 191 189 214 216
4 192 190 215 217
4 193 191 216 203
4 194 192 217 204
3 196 218 206
4 214 212 219 220
4 215 213 221 222
4 216 214 220 223
4 217 215 222 224
4 203 216 223 225
4 204 217 224 226
3 206 227 228
3 229 203 225
4 205 204 226 230
4 207 206 228 231
4 208 205 230 232
4 209 207 231 233
4 210 208 232 234
4 211 209 233 235
4 212 210 234 219
4 213 211 235 221
4 231 228 236 237
4 232 230 238 239
4 233 231 237 240
4 234 232 239 241
4 235 233 240 242
4 219 234 241 243
4 221 235 242 244
4 220 219 243 245
4 222 221 244 246
4 223 220 245 247
4 224 222 246 248
4 225 223 247 249
4 226 224 248 250
3 228 251 236
3 252 225 249
4 230 226 250 238
4 246 244 253 254
4 247 245 255 256
4 248 246 254 257
4 249 247 256 258
4 250 248 257 259
3 236 260 261
3 262 249 258
4 238 250 259 263
4 237 236 261 264
4 239 238 263 265
4 240 237 264 266
4 241 239 265 267
4 242 240 266 268
4 243 241 267 269
4 244 242 268 253
4 245 243 269 255
4 265 263 270 271
4 266 264 272 273
4 267 265 271 274
4 268 266 273 275
4 269 267 274 276
4 253 268 275 277
4 255 269 276 278
4 254 253 277 279
4 256 255 278 280
4 257 254 279 281
4 258 256 280 282
4 259 257 281 283
3 261 284 285
3 286 258 282
4 263 259 283 270
4 264 261 285 272
4 280 278 287 288
4 281 279 289 290
4 282 280 288 291
4 283 281 290 292
3 285 293 294
3 295 282 291
4 270 283 292 296
4 272 285 294 297
4 271 270 296 298
4 273 272 297 299
4 274 271 298 300
4 275 273 299 301
4 276 274 300 302
4 277 275 301 303
4 278 276 302 287
4 279 277 303 289
4 299 297 304 305
4 300 298 306 307
4 301 299 305 308
4 302 300 307 309
4 303 301 308 310
4 287 302 309 311
4 289 303 310 312
4 288 287 311 313
4 290 289 312 314
4 291 288 313 315
4 292 290 314 316
3 294 317 318
3 319 291 315
4 296 292 316 320
4 297 294 318 304
4 298 296 320 306
4 314 312 321 322
4 315 313 323 324
4 316 314 322 325
3 318 326 327
3 328 315 324
4 320 316 325 329
4 304 318 327 330
4 306 320 329 331
4 305 304 330 332
4 307 306 331 333
4 308 305 332 334
4 309 307 333 335
4 310 308 334 336
4 311 309 335 337
4 312 310 336 321
4 313 311 337 323
4 333 331 338 339
4 334 332 340 341
4 335 333 339 342
4 336 334 341 343
4 337 335 342 344
4 321 336 343 345
4 323 337 344 346
4 322 321 345 347
4 324 323 346 348
4 325 322 347 349
3 327 350 351
3 352 324 348
4 329 325 349 353
4 330 327 351 354
4 331 329 353 338
4 332 330 354 340
4 348 346 355 356
4 349 347 357 358
3 351 359 360
3 361 348 356
4 353 349 358 362
4 354 351 360 363
4 338 353 362 364
4 340 354 363 365
4 339 338 364 366
4 341 340 365 367
4 342 339 366 368
4 343 341 367 369
4 344 342 368 370
4 345 343 369 371
4 346 344 370 355
4 347 345 371 357
4 368 366 372 373
4 369 367 374 375
4 370 368 373 376
4 371 369 375 377
4 355 370 376 378
4 357 371 377 379
4 356 355 378 380
4 358 357 379 381
3 360 382 383
3 384 356 380
4 362 358 381 385
4 363 360 383 386
4 364 362 385 387
4 365 363 386 388
4 366 364 387 372
4 367 365 388 374
3 383 389 390
3 391 380 392
4 385 381 393 394
4 386 383 390 395
4 387 385 394 396
4 388 386 395 397
4 372 387 396 398
4 374 388 397 399
4 373 372 398 400
4 375 374 399 401
4 376 373 400 402
4 377 375 401 403
4 378 376 402 404
4 379 377 403 405
4 380 378 404 392
4 381 379 405 393
4 401 399 406 407
4 402 400 408 409
4 403 401 407 410
4 404 402 409 411
4 405 403 410 412
4 392 404 411 413
4 393 405 412 414
3 390 415 416
3 417 392 413
4 394 393 414 418
4 395 390 416 419
4 396 394 418 420
4 397 395 419 421
4 398 396 420 422
4 399 397 421 406
4 400 398 422 408
4 423 424 425 426
4 427 428 429 430
4 431 423 426 432
4 433 427 430 434
4 435 431 432 436
4 437 433 434 438
4 439 435 436 440
4 441 437 438 442
4 443 439 440 444
4 445 441 442 446
4 447 443 444 448
4 449 445 446 450
4 451 447 448 452
4 424 449 450 425
3 428 453 429
3 454 451 452
4 444 440 455 456
4 446 442 457 458
4 448 444 456 459
4 450 446 458 460
4 452 448 459 461
4 425 450 460 462
3 429 463 464
3 465 452 461
4 426 425 462 466
4 430 429 464 467
4 432 426 466 468
4 434 430 467 469
4 436 432 468 470
4 438 434 469 471
4 440 436 470 455
4 442 438 471 457
4 467 464 472 473
4 468 466 474 475
4 469 467 473 476
4 470 468 475 477
4 471 469 476 478
4 455 470 477 479
4 457 471 478 480
4 456 455 479 481
4 458 457 480 482
4 459 456 481 483
4 460 458 482 484
4 461 459 483 485
4 462 460 484 486
3 464 487 472
3 488 461 485
4 466 462 486 474
4 482 480 489 490
4 483 481 491 492
4 484 482 490 493
4 485 483 492 494
4 486 484 493 495
3 472 496 497
3 498 485 494
4 474 486 495 499
4 473 472 497 500
4 475 474 499 501
4 476 473 500 502
4 477 475 501 503
4 478 476 502 504
4 479 477 503 505
4 480 478 504 489
4 481 479 505 491
4 501 499 506 507
4 502 500 508 509
4 503 501 507 510
4 504 502 509 511
4 505 503 510 512
4 489 504 511 513
4 491 505 512 514
4 490 489 513 515
4 492 491 514 516
4 493 490 515 517
4 494 492 516 518
4 495 493 517 519
3 497 520 521
3 522 494 518
4 499 495 519 506
4 500 497 521 508
4 516 514 523 524
4 517 515 525 526
4 518 516 524 527
4 519 517 526 528
3 521 529 530
3 531 518 527
4 506 519 528 532
4 508 521 530 533
4 507 506 532 534
4 509 508 533 535
4 510 507 534 536
4 511 509 535 537
4 512 510 536 538
4 513 511 537 539
4 514 512 538 523
4 515 513 539 525
4 536 534 540 541
4 537 535 542 543
4 538 536 541 544
4 539 537 543 545
4 523 538 544 546
4 525 539 545 547
4 524 523 546 548
4 526 525 547 549
4 527 524 548 550
4 528 526 549 551
3 530 552 553
3 554 527 550
4 532 528 551 555
4 533 530 553 556
4 534 532 555 540
4 535 533 556 542
4 550 548 5 4
4 551 549 0 8
3 553 557 10
3 558 550 4
4 555 551 8 14
4 556 553 10 16
4 540 555 14 18
4 542 556 16 20
4 541 540 18 22
4 543 542 20 24
4 544 541 22 26
4 545 543 24 28
4 546 544 26 30
4 547 545 28 1
4 548 546 30 5
4 549 547 1 0
