ply
format ascii 1.0
comment Created in Blender version 4.4.3
element vertex 434
property float x
property float y
property float z
property uchar red
property uchar green
property uchar blue
property uchar alpha
property float s
property float t
element face 592
property list uchar uint vertex_indices
end_header
0.66432726 0.02966916 0.66255844 195 211 226 255 0.75000006 0.50000006
0.0017688788 -0.8638701 0.9610288 195 211 226 255 0.65798616 0.625
0.700699 -0.86387014 0.6989301 239 243 248 255 0.625 0.5
0.6033063 0.929504 0.60153735 155 182 205 255 0.875 0.5
0.0017689159 0.029669186 0.9110179 197 213 228 255 0.75 0.625
-0.5997684 0.929504 0.60153735 255 255 255 255 0.875 0.75
-0.6607895 0.029669221 0.6625584 201 218 230 255 0.75000006 0.75000006
-0.6971612 -0.8638701 0.69893 155 182 205 255 0.625 0.75
-0.95926 -0.86386997 -9.313226e-10 126 159 190 255 0.50000006 0.7829861
-0.6607895 0.029669233 -0.6625584 59 109 155 255 0.37500003 0.87500006
-0.6971612 -0.86387 -0.69893 99 137 173 255 0.375 0.75
-0.6607895 0.029669221 0.6625584 201 218 230 255 0.62500006 0.87500006
-0.90924895 0.029669227 -4.656613e-09 119 157 190 255 0.50000006 0.8750001
-0.5997684 0.929504 0.60153735 255 255 255 255 0.625 1
-0.8253448 0.929504 -9.313226e-10 112 157 192 255 0.50000006 0.96527785
-0.5997683 0.929504 -0.60153735 31 84 137 255 0.375 1
0.0017689562 0.9295039 -0.8271138 80 128 169 255 0.15972222 0.625
0.4659818 1.6744244 -0.4642128 74 99 134 255 0.12500001 0.50000006
0.6033063 0.929504 -0.6015373 155 182 205 255 0.125 0.5
-0.46244383 1.6744244 -0.46421283 27 60 105 255 0.12500001 0.75000006
0.0017689905 1.682015 -0.63441664 47 78 119 255 0.12847224 0.625
-0.30284292 2.082598 -0.30461186 24 41 77 255 0.12500001 0.7500001
0.0017690081 2.1595862 -0.35131183 24 42 78 255 0.12500001 0.6250001
0.30638093 2.082598 -0.30461186 25 43 80 255 0.12500001 0.50000006
0.0017689215 0.029669192 -0.9110179 101 144 178 255 0.25000003 0.625
0.6643274 0.02966916 -0.66255844 155 182 205 255 0.25000003 0.50000006
0.0017688769 -0.86387 -0.9610289 126 159 190 255 0.3420139 0.625
-0.6607895 0.029669233 -0.6625584 59 109 155 255 0.25000003 0.75000006
-0.5997683 0.929504 -0.60153735 31 84 137 255 0.125 0.75
0.0017688769 -0.86387 -0.9610289 126 159 190 255 0.3420139 0.62500006
-0.72249615 -1.5925467 -0.724265 32 44 114 255 0.41589507 0.7091051
0.7260338 -1.5925467 -0.724265 46 55 126 255 0.41589507 0.5408951
0.0017688476 -1.5998652 -0.9987939 38 50 120 255 0.38503087 0.6250001
0.598559 -1.9875851 -0.59679013 3 4 68 255 0.43750003 0.56250006
0.0017688217 -2.061814 -0.7375012 3 4 68 255 0.42380404 0.6250001
-0.59502125 -1.9875851 -0.5967902 3 4 68 255 0.43750003 0.68750006
0.6033063 0.929504 -0.6015373 155 182 205 255 0.375 0.25
0.91278684 0.02966916 2.7939677e-09 175 197 215 255 0.50000006 0.37500006
0.6643274 0.02966916 -0.66255844 155 182 205 255 0.37500003 0.37500006
0.6033063 0.929504 0.60153735 155 182 205 255 0.625 0.25
0.8288827 0.92950386 -9.313226e-10 155 182 205 255 0.50000006 0.28472227
0.66432726 0.02966916 0.66255844 195 211 226 255 0.62500006 0.37500006
0.96279764 -0.86387014 -9.313226e-10 195 211 226 255 0.5 0.46701393
0.700699 -0.8638702 -0.6989301 155 182 205 255 0.375 0.5
0.0017688094 -2.2175903 -1.9557774e-08 3 4 68 255 0.50000006 0.625
0.0017688217 -2.061814 -0.7375012 3 4 68 255 0.42380401 0.62500006
0.598559 -1.9875851 0.5967902 3 4 68 255 0.56250006 0.56250006
0.73927 -2.0618143 -3.7252903e-09 3 4 68 255 0.5 0.54880404
-0.59502137 -1.9875851 0.59679013 3 4 68 255 0.5625 0.68750006
-0.7357323 -2.061814 -1.4901161e-08 3 4 68 255 0.50000006 0.701196
0.0017688788 -0.8638701 0.9610288 195 211 226 255 0.65798616 0.62500006
0.7260338 -1.5925467 0.724265 66 71 142 255 0.584105 0.54089516
-0.72249615 -1.5925467 0.724265 46 55 126 255 0.58410496 0.709105
0.0017688513 -1.5998652 0.998794 55 63 134 255 0.61496925 0.62500006
0.0017688283 -2.0618143 0.73750114 3 4 68 255 0.5761961 0.62500006
-0.95926 -0.86386997 -9.313226e-10 126 159 190 255 0.5 0.78298616
-0.997025 -1.5998652 1.1175871e-08 38 50 120 255 0.5 0.73996913
-0.7357323 -2.061814 -1.4901161e-08 3 4 68 255 0.50000006 0.7011961
1.0005628 -1.5998652 -1.3038516e-08 55 63 134 255 0.5 0.5100309
-0.30284292 2.082598 -0.30461186 24 41 77 255 0.37500006 0
0.0017690124 2.3211524 9.313226e-09 24 38 74 255 0.50000006 0.12152779
0.0017690081 2.1595862 -0.35131183 24 42 78 255 0.37500003 0.12500001
-0.3028429 2.0825982 0.3046119 23 35 68 255 0.62500006 0
-0.34954286 2.1595862 0 24 38 73 255 0.50000006 0
0.3063809 2.082598 0.3046119 23 35 68 255 0.625 0.25
0.35308084 2.1595862 4.656613e-10 24 39 74 255 0.50000006 0.21527779
0.30638093 2.082598 -0.30461186 25 43 80 255 0.375 0.25
0.0017689543 0.9295039 0.82711375 201 218 230 255 0.84027785 0.625
-0.46244386 1.6744244 0.4642128 103 116 145 255 0.8750001 0.75000006
0.46598178 1.6744244 0.46421283 73 92 126 255 0.8750001 0.50000006
0.0017689877 1.682015 0.63441664 87 103 135 255 0.8715279 0.625
0.3063809 2.082598 0.3046119 23 35 68 255 0.8750001 0.50000006
0.0017690128 2.1595862 0.35131183 23 35 68 255 0.8750001 0.62500006
-0.3028429 2.0825982 0.3046119 23 35 68 255 0.8750001 0.7500001
0.8288827 0.92950386 -9.313226e-10 155 182 205 255 0.5 0.28472224
0.46598178 1.6744244 0.46421283 73 92 126 255 0.62500006 0.25000003
0.4659818 1.6744244 -0.4642128 74 99 134 255 0.37500003 0.25000003
0.63618565 1.682015 6.0535967e-09 73 95 131 255 0.5 0.25000003
0.35308084 2.1595862 4.656613e-10 24 39 74 255 0.5 0.21527779
-0.46244383 1.6744244 -0.46421283 27 60 105 255 0.37500003 1.0000001
-0.46244386 1.6744244 0.4642128 103 116 145 255 0.62500006 1.0000001
-0.63264763 1.682015 -2.3283064e-09 58 85 123 255 0.50000006 0.99652785
-0.3028429 2.0825982 0.3046119 23 35 68 255 0.62500006 1.0000001
-0.34954286 2.1595862 0 24 38 73 255 0.50000006 1.0000001
-0.30284292 2.082598 -0.30461186 24 41 77 255 0.37500006 1.0000001
0.0017689543 0.9295039 0.82711375 201 218 230 255 0.8402779 0.625
0.0017688283 -2.0618143 0.73750114 3 4 68 255 0.57619613 0.62500006
0.0017690128 2.1595862 0.35131183 23 35 68 255 0.62500006 0.12500001
-2.9801621 -0.17951337 0.105666675 255 255 255 255 0.625 0
-0.798231 0.52048653 -0.105666675 228 232 241 255 0.375 0.08571568
-2.9801621 -0.17951337 -0.105666675 37 89 140 255 0.375 0
-2.9801621 -0.46324646 -0.105666675 36 89 140 255 0.375 0.75
-0.798231 -0.46324658 0.105666675 188 207 222 255 0.625 0.66428435
-2.9801621 -0.46324646 0.105666675 255 255 255 255 0.625 0.75
-2.9801621 -0.17951337 -0.105666675 37 89 140 255 0.375 1
-2.9801621 -0.17951337 -0.105666675 37 89 140 255 0.125 0.75
-0.798231 -0.46324658 -0.105666675 126 159 190 255 0.375 0.66428435
-2.9801621 -0.17951337 0.105666675 255 255 255 255 0.875 0.75
-0.798231 0.52048653 0.105666675 37 90 142 255 0.875 0.66428435
-0.798231 -0.46324658 0.105666675 188 207 222 255 0.5132083 0.8135166
-0.798231 0.52048653 -0.105666675 228 232 241 255 0.48679167 0.9364833
-0.798231 0.52048653 0.105666675 37 90 142 255 0.5132083 0.93648326
-0.798231 0.52048653 0.105666675 37 90 142 255 0.625 0.08571569
-2.9801621 -0.17951337 0.105666675 255 255 255 255 0.625 1
-0.798231 0.52048653 -0.105666675 228 232 241 255 0.125 0.66428435
-0.798231 -0.46324658 -0.105666675 126 159 190 255 0.48679164 0.8135166
-3.1191459 0.7052907 0.13898349 80 29 10 255 0.625 0
-2.8411791 0.7052907 -0.13898337 48 17 6 255 0.375 0.25
-3.1191459 0.7052907 -0.13898337 66 24 8 255 0.375 0
-2.8411791 0.7052907 0.13898349 109 41 13 255 0.625 0.25
-2.71243 -0.6248239 -0.2677325 47 17 5 255 0.375 0.5
-2.71243 -0.6248239 0.26773262 113 42 14 255 0.625 0.5
-3.2478952 -0.6248239 -0.2677325 109 40 13 255 0.375 0.75
-3.2478952 -0.6248239 0.26773262 113 42 14 255 0.625 0.75
-3.1191459 0.7052907 -0.13898337 66 24 8 255 0.375 1
-3.1191459 0.7052907 -0.13898337 66 24 8 255 0.125 0.75
-2.8411791 0.7052907 -0.13898337 48 17 6 255 0.125 0.5
-2.8411791 0.7052907 0.13898349 109 41 13 255 0.875 0.5
-3.1191459 0.7052907 0.13898349 80 29 10 255 0.625 1
-3.1191459 0.7052907 0.13898349 80 29 10 255 0.875 0.75
2.9837003 -0.17951362 0.105666675 255 255 255 255 0.625 0
0.80176914 0.5204865 -0.105666675 199 215 228 255 0.375 0.08571568
2.9837003 -0.17951362 -0.105666675 122 157 188 255 0.375 0
2.9837003 -0.46324676 -0.105666675 62 110 155 255 0.375 0.75
0.80176914 -0.46324664 0.105666675 155 182 205 255 0.625 0.66428435
2.9837003 -0.46324676 0.105666675 255 255 255 255 0.625 0.75
2.9837003 -0.17951362 -0.105666675 122 157 188 255 0.375 1
2.9837003 -0.17951362 -0.105666675 122 157 188 255 0.125 0.75
0.80176914 -0.46324664 -0.105666675 63 110 155 255 0.375 0.66428435
2.9837003 -0.17951362 0.105666675 255 255 255 255 0.875 0.75
0.80176914 0.5204865 0.105666675 65 112 159 255 0.875 0.66428435
0.80176914 -0.46324664 0.105666675 155 182 205 255 0.5132083 0.8135166
0.80176914 0.5204865 -0.105666675 199 215 228 255 0.48679167 0.9364833
0.80176914 0.5204865 0.105666675 65 112 159 255 0.5132083 0.93648326
0.80176914 0.5204865 0.105666675 65 112 159 255 0.625 0.08571569
2.9837003 -0.17951362 0.105666675 255 255 255 255 0.625 1
0.80176914 0.5204865 -0.105666675 199 215 228 255 0.125 0.66428435
0.80176914 -0.46324664 -0.105666675 63 110 155 255 0.48679164 0.8135166
3.122684 0.7052902 0.13898349 73 27 9 255 0.625 0
2.8447173 0.7052902 -0.13898337 66 24 8 255 0.375 0.25
3.122684 0.7052902 -0.13898337 66 24 8 255 0.375 0
2.8447173 0.7052902 0.13898349 89 33 11 255 0.625 0.25
2.7159681 -0.6248244 -0.2677325 109 51 27 255 0.375 0.5
2.7159681 -0.6248244 0.26773262 113 42 14 255 0.625 0.5
3.2514334 -0.6248244 -0.2677325 71 26 9 255 0.375 0.75
3.2514334 -0.6248244 0.26773262 113 42 14 255 0.625 0.75
3.122684 0.7052902 -0.13898337 66 24 8 255 0.375 1
3.122684 0.7052902 -0.13898337 66 24 8 255 0.125 0.75
2.8447173 0.7052902 -0.13898337 66 24 8 255 0.125 0.5
2.8447173 0.7052902 0.13898349 89 33 11 255 0.875 0.5
3.122684 0.7052902 0.13898349 73 27 9 255 0.625 1
3.122684 0.7052902 0.13898349 73 27 9 255 0.875 0.75
-2.1191459 0.70529044 0.13898349 67 46 11 255 0.625 0
-1.841179 0.70529044 -0.13898337 67 50 11 255 0.375 0.25
-2.1191459 0.70529044 -0.13898337 67 51 11 255 0.375 0
-1.841179 0.70529044 0.13898349 67 44 11 255 0.625 0.25
-1.7124301 -0.62482417 -0.2677325 113 42 14 255 0.375 0.5
-1.7124301 -0.62482417 0.26773262 113 42 14 255 0.625 0.5
-2.2478952 -0.62482417 -0.2677325 66 24 8 255 0.375 0.75
-2.2478952 -0.62482417 0.26773262 113 42 14 255 0.625 0.75
-2.1191459 0.70529044 -0.13898337 67 51 11 255 0.375 1
-2.1191459 0.70529044 -0.13898337 67 51 11 255 0.125 0.75
-1.841179 0.70529044 -0.13898337 67 50 11 255 0.125 0.5
-1.841179 0.70529044 0.13898349 67 44 11 255 0.875 0.5
-2.1191459 0.70529044 0.13898349 67 46 11 255 0.625 1
-2.1191459 0.70529044 0.13898349 67 46 11 255 0.875 0.75
2.122684 0.7052903 0.13898349 77 54 12 255 0.625 0
1.8447171 0.7052903 -0.13898337 76 55 12 255 0.375 0.25
2.122684 0.7052903 -0.13898337 80 54 13 255 0.375 0
1.8447171 0.7052903 0.13898349 77 55 12 255 0.625 0.25
1.715968 -0.6248243 -0.2677325 71 32 17 255 0.375 0.5
1.715968 -0.6248243 0.26773262 113 42 14 255 0.625 0.5
2.2514331 -0.6248243 -0.2677325 83 31 10 255 0.375 0.75
2.2514331 -0.6248243 0.26773262 113 42 14 255 0.625 0.75
2.122684 0.7052903 -0.13898337 80 54 13 255 0.375 1
2.122684 0.7052903 -0.13898337 80 54 13 255 0.125 0.75
1.8447171 0.7052903 -0.13898337 76 55 12 255 0.125 0.5
1.8447171 0.7052903 0.13898349 77 55 12 255 0.875 0.5
2.122684 0.7052903 0.13898349 77 54 12 255 0.625 1
2.122684 0.7052903 0.13898349 77 54 12 255 0.875 0.75
-3.0496542 0.37276202 0.46949175 95 11 4 255 0.625 0
-2.9106708 0.37276202 0.33050832 110 13 5 255 0.375 0.25
-3.0496542 0.37276202 0.33050832 97 11 4 255 0.375 0
-2.9106708 0.37276202 0.46949175 110 13 5 255 0.625 0.25
-2.8462963 -0.29229528 0.26613376 107 38 13 255 0.375 0.5
-2.8462963 -0.29229528 0.5338663 106 13 5 255 0.625 0.5
-3.114029 -0.29229528 0.26613376 62 7 3 255 0.375 0.75
-3.114029 -0.29229528 0.5338663 59 7 3 255 0.625 0.75
-3.0496542 0.37276202 0.33050832 97 11 4 255 0.375 1
-3.0496542 0.37276202 0.33050832 97 11 4 255 0.125 0.75
-2.9106708 0.37276202 0.33050832 110 13 5 255 0.125 0.5
-2.9106708 0.37276202 0.46949175 110 13 5 255 0.875 0.5
-3.0496542 0.37276202 0.46949175 95 11 4 255 0.625 1
-3.0496542 0.37276202 0.46949175 95 11 4 255 0.875 0.75
3.0531924 0.37276155 0.46949175 110 13 5 255 0.625 0
2.914209 0.37276155 0.33050832 113 13 5 255 0.375 0.25
3.0531924 0.37276155 0.33050832 99 11 5 255 0.375 0
2.914209 0.37276155 0.46949175 113 13 5 255 0.625 0.25
2.8498344 -0.29229575 0.26613376 106 13 5 255 0.375 0.5
2.8498344 -0.29229575 0.5338663 113 13 5 255 0.625 0.5
3.117567 -0.29229575 0.26613376 44 5 2 255 0.375 0.75
3.117567 -0.29229575 0.5338663 92 11 4 255 0.625 0.75
3.0531924 0.37276155 0.33050832 99 11 5 255 0.375 1
3.0531924 0.37276155 0.33050832 99 11 5 255 0.125 0.75
2.914209 0.37276155 0.33050832 113 13 5 255 0.125 0.5
2.914209 0.37276155 0.46949175 113 13 5 255 0.875 0.5
3.0531924 0.37276155 0.46949175 110 13 5 255 0.625 1
3.0531924 0.37276155 0.46949175 110 13 5 255 0.875 0.75
-0.2284191 0.1986485 0.8090162 24 47 126 255 0.375 0.5
-0.22799611 0.17774485 0.96227676 24 47 126 255 0.375 0.27300966
-0.10234058 0.27117604 0.8495486 29 73 134 255 0.6235935 0.5
-0.109999925 0.2560004 0.96227413 28 72 134 255 0.375 0.75
-0.00052679144 0.2953804 0.88624483 31 83 137 255 0.6235935 0.75
-0.0071600787 0.28712177 0.96227455 30 81 135 255 0.375 0.97699034
-0.15809691 0.24802692 0.8307604 27 63 131 255 0.14800966 0.5
-0.1634369 0.2289121 0.96227646 27 62 131 255 0.14220645 0.54964125
0.001767939 0.17334606 0.89762056 29 75 134 255 0.34515384 0.7003588
-0.32059443 0.07358563 0.7876953 18 22 119 255 0.34515384 0.54964125
-0.30709803 0.061251268 0.9622754 19 24 119 255 0.14800966 0.75
-0.2886685 0.12976606 0.79526705 20 31 122 255 0.14220643 0.70035875
-0.27907085 0.11457147 0.9622732 21 33 122 255 0.375 0.5
-0.34587258 -0.0325617 0.7852913 16 11 114 255 0.375 0.27300966
-0.33207157 -0.024692941 0.9622743 16 14 114 255 0.6235935 0.5
-0.23220482 -0.026916154 0.82644457 18 23 114 255 0.375 0.75
-0.12796547 0.077705815 0.85878474 24 51 126 255 0.6235935 0.75
-0.00034870394 0.09338643 0.90586853 27 63 131 255 0.375 0.97699034
0.0003468953 0.072579026 0.9080833 26 59 129 255 0.14800966 0.5
-0.12764637 -0.026916157 0.8656541 20 33 114 255 0.14220645 0.54964125
-0.06439102 -0.026916161 0.88937485 21 38 114 255 0.34515384 0.7003588
0.0017683785 -0.026051983 0.91413623 22 40 116 255 0.34515384 0.54964125
-0.20473985 0.15480965 1.0284873 23 45 126 255 0.14800966 0.75
-0.08733671 0.23959343 1.0059072 28 70 132 255 0.14220643 0.70035875
-0.0039933063 0.25496525 1.021852 29 75 134 255 0.375 0.5
-0.12451273 0.19864278 1.055256 26 57 129 255 0.375 0.27300966
-0.10234608 0.1495304 1.1200845 23 46 126 255 0.6235935 0.5
-0.0008495115 0.2230605 1.0768675 27 65 131 255 0.375 0.75
-0.010390349 0.17095388 1.1345198 24 51 128 255 0.6235935 0.75
-0.2903204 0.038164012 1.0071056 19 23 119 255 0.375 0.97699034
-0.23516142 0.091644704 1.0615646 20 32 122 255 0.14800966 0.5
-0.19891714 0.052188724 1.1192119 19 27 120 255 0.14220645 0.54964125
-0.3000059 -0.026136462 1.0216398 17 15 114 255 0.34515384 0.7003588
-0.26979533 -0.024850529 1.0776018 17 16 114 255 0.34515384 0.54964125
-0.21645406 -0.024691239 1.1356751 17 16 113 255 0.14800966 0.75
-0.17033298 0.12056872 1.0953983 22 40 125 255 0.14220643 0.70035875
-0.1421162 0.090400875 1.1452444 21 33 122 255 0.625 0
-0.006365679 0.10190818 1.1881254 22 36 123 255 0.375 0.25
-0.14239912 -0.023384623 1.1899054 17 16 113 255 0.375 0
-0.057352014 0.00823845 1.2072936 18 22 116 255 0.625 0.25
0.013263963 0.029317819 1.2099407 19 24 119 255 0.375 0.5
-0.07999727 -0.062434588 1.20967 16 13 109 255 0.625 0.5
-0.019113004 -0.022963487 1.2233325 17 17 113 255 0.375 0.75
0.079465635 0.2911948 0.8575793 30 81 135 255 0.625 0.75
0.08369304 0.27986002 0.96227545 30 80 135 255 0.375 1
0.15755662 0.2745797 0.8298797 28 71 134 255 0.125 0.75
0.16838214 0.2559994 0.96227574 28 70 132 255 0.125 0.5
0.08147064 0.18220083 0.8669063 29 74 134 255 0.875 0.5
0.21571442 0.2509693 0.81021017 26 59 129 255 0.625 1
0.22181974 0.22891171 0.9622751 26 59 129 255 0.875 0.75
0.30008844 0.18199871 0.78667563 23 40 125 255 0 0
0.2863784 0.17774467 0.962275 23 45 126 255 0 0
0.0752905 0.08364259 0.8792198 26 60 129 255 0 0
0.03606648 0.05273156 0.8965789 25 55 128 255 0 0
0.1863482 0.077705815 0.838217 24 48 126 255 0 0
0.09535082 -0.026916169 0.8790913 21 38 116 255 0 0
0.04307157 -0.026916165 0.898696 22 40 117 255 0 0
0.18602921 -0.026916172 0.845087 20 31 116 255 0 0
0.35795626 0.08984481 0.7740135 27 31 126 255 0 0
0.36878067 0.06128101 0.771623 31 34 128 255 0 0
0.33790186 -0.0079029575 0.7870706 29 29 126 255 0 0
0.3922761 -0.020308401 0.7673726 57 52 142 255 0 0
0.34180444 0.12725163 0.77788275 23 32 123 255 0 0
0.33745265 0.11456983 0.96227527 21 31 122 255 0 0
0.3720206 0.07399434 0.8412116 24 27 122 255 0 0
0.3654801 0.06125 0.9622749 21 24 120 255 0 0
0.29806447 -0.036419924 0.8036057 22 23 119 255 0 0
0.4036797 -0.03681691 0.7658718 67 60 148 255 0 0
0.39045262 -0.024693038 0.96227616 23 20 120 255 0 0
0.082250014 0.248899 1.019614 29 73 134 255 0 0
0.14571932 0.23959334 1.0059072 27 68 132 255 0 0
0.08281055 0.21707372 1.0743479 27 63 131 255 0 0
0.08300426 0.16432968 1.1336547 24 50 128 255 0 0
0.18289606 0.19864221 1.055256 25 55 129 255 0 0
0.16072865 0.1495303 1.1200845 23 45 126 255 0 0
0.26312238 0.15480918 1.0284871 23 43 125 255 0 0
0.08715259 0.09157893 1.1873639 22 34 122 255 0 0
0.22871567 0.120568305 1.0953982 22 38 123 255 0 0
0.20049849 0.090400115 1.1452445 20 32 122 255 0 0
0.11573458 0.008237764 1.2072936 18 21 117 255 0 0
0.20078453 -0.02338399 1.1899035 17 16 116 255 0 0
0.045147873 0.029146634 1.2093542 19 24 119 255 0 0
0.08199845 -0.0257277 1.2223634 17 17 113 255 2.2e-44 2.2e-44
0.13837972 -0.062435318 1.2096697 16 13 110 255 2.2e-44 2.2e-44
0.2935436 0.09164427 1.0615643 20 30 122 255 2.2e-44 2.2e-44
0.25729924 0.05218804 1.1192112 20 26 120 255 2.2e-44 2.2e-44
0.3487026 0.03816302 1.0071048 20 23 120 255 2.2e-44 2.2e-44
0.32817772 -0.024850491 1.0776011 18 16 116 255 2.2e-44 2.2e-44
0.27483624 -0.024691284 1.1356746 17 16 116 255 2.2e-44 2.2e-44
0.35838816 -0.026136424 1.021639 20 16 117 255 2.2e-44 2.2e-44
-0.3523141 -0.13629031 0.7882097 14 5 107 255 9.477423e-38 6.44288e-40
-0.33988005 -0.118299834 0.9622747 15 7 106 255 2.6584628e-32 7.003653e-30
-0.23220482 -0.13147464 0.8322966 15 11 99 255 9.550605e-38 -1.794666e+38
-0.30995998 -0.25472793 0.81022865 12 4 90 255 2.6584628e-32 7.003653e-30
-0.30819437 -0.22250429 0.96227485 12 4 90 255 0 0
-0.28963578 -0.28676564 0.81945103 11 4 84 255 0 0
-0.27815858 -0.2780577 0.964201 11 4 81 255 0 0
-0.11748168 -0.13997963 0.87579393 15 16 90 255 0 0
-0.07585237 -0.18050244 0.8936729 12 12 80 255 0 0
-0.07065057 -0.110796764 0.8917222 16 22 97 255 0 0
0.0017685108 -0.13884102 0.92044896 15 19 89 255 0 0
-0.13227561 -0.23603316 0.8756221 10 5 70 255 0 0
-0.079996355 -0.23603316 0.89522684 10 6 65 255 0 0
0.0017685499 -0.23493937 0.9258275 10 7 63 255 0 0
-0.26771381 -0.32561755 0.8298465 11 4 77 255 0 0
-0.24178612 -0.34144765 0.9417597 9 3 68 255 0 0
-0.18213892 -0.3916222 0.8656146 8 3 57 255 0 0
-0.15011041 -0.4283324 0.8844033 7 2 50 255 0 0
0.0017687697 -0.33949786 0.9316795 6 2 44 255 0 0
-0.11082077 -0.44374436 0.9017609 6 2 44 255 0 0
-0.00022434443 -0.46452552 0.9386915 5 2 36 255 0 0
-0.3062267 -0.11498615 1.0246266 15 8 105 255 0 0
-0.27406406 -0.11181853 1.0794669 15 8 103 255 0 0
-0.22204709 -0.12082486 1.1362238 14 8 102 255 0 0
-0.291049 -0.19845545 1.0082058 13 4 92 255 0 0
-0.25056732 -0.23467971 1.0570464 11 4 84 255 0 0
-0.20107767 -0.21295497 1.1214807 12 4 85 255 0 0
-0.15466946 -0.11750601 1.1881242 14 8 102 255 0 0
-0.060726494 -0.16823635 1.2074308 13 6 93 255 0 0
-0.17248558 -0.2806409 1.0968415 10 3 73 255 0 0
-0.14244138 -0.25369233 1.1454297 11 4 78 255 0 0
-0.036855623 -0.23734313 1.1957015 11 4 81 255 0 0
-0.080234125 -0.09776676 1.2104814 15 10 103 255 0 0
-0.02983626 -0.12500538 1.2268088 14 8 101 255 0 0
0.009818077 -0.18965745 1.2108836 13 5 88 255 0 0
-0.20677301 -0.3150692 1.0303152 9 3 67 255 0 0
-0.14062876 -0.35085154 1.0615067 8 3 58 255 0 0
-0.104812786 -0.31018645 1.1218799 9 3 65 255 1e-45 3e-45
-0.0120138265 -0.378574 1.0847627 7 2 50 255 6e-45 1.1e-44
0.0021133851 -0.3256317 1.1476384 9 3 63 255 2.2e-44 4.5e-44
-0.09089919 -0.4001583 1.0094033 6 2 45 255 9e-44 1.8e-43
0.005826555 -0.4136188 1.0362867 6 2 42 255 3.59e-43 7.17e-43
0.103153594 -0.13147466 0.8820173 15 19 94 255 1.435e-42 2.87e-42
0.0508743 -0.13147466 0.901622 15 20 93 255 5.74e-42 1.148e-41
0.18602917 -0.13147467 0.85093904 16 16 98 255 2.2959e-41 4.5918e-41
0.11095632 -0.23603316 0.88494337 10 6 67 255 0 1e-45
0.058677115 -0.23603316 0.90454805 9 6 64 255 0 0
0.18602921 -0.23603316 0.8567911 11 5 75 255 0 0
0.29058775 -0.13147467 0.81172955 16 11 106 255 0 0
0.40879706 -0.12127777 0.7686318 62 54 144 255 0 0
0.39826244 -0.11830166 0.96227294 20 11 113 255 0 0
0.3486439 -0.28988534 0.7988242 13 5 94 255 0 0
0.33653933 -0.27805695 0.9642035 12 4 88 255 0 0
0.3738233 -0.2413777 0.788238 18 9 103 255 0 0
0.3665756 -0.22250289 0.96227616 13 5 98 255 0 0
0.11875904 -0.34059167 0.8878693 7 2 51 255 0 0
0.06647985 -0.34059167 0.9074741 6 2 47 255 0 0
0.22410005 -0.40502566 0.8520258 9 3 62 255 0 0
0.22665541 -0.3895812 0.9622729 8 3 60 255 0 0
0.13325986 -0.43809777 0.8878888 6 2 47 255 0 0
0.082135245 -0.4641037 0.91099185 6 2 40 255 0 0
0.1876369 -0.42562258 0.8674834 8 3 55 255 0 0
0.17375527 -0.41767472 0.9622742 7 2 51 255 0 0
0.32773045 -0.32695073 0.8087411 12 4 87 255 0 0
0.3001683 -0.34144628 0.9417597 10 4 76 255 0 0
0.11910878 -0.16823572 1.2074308 13 6 95 255 0 0
0.21304944 -0.11750634 1.1881249 15 8 105 255 0 0
0.10079706 -0.24565291 1.1888746 11 4 81 255 0 0
0.23086827 -0.28064048 1.0968412 11 4 78 255 0 0
0.20082437 -0.2536909 1.1454302 11 4 83 255 0 0
0.08810319 -0.11569752 1.2269853 14 9 103 255 0 0
0.13861656 -0.09776604 1.2104812 15 10 106 255 0 0
0.04860029 -0.1894491 1.21017 13 5 89 255 0 0
0.3324472 -0.11181797 1.0794657 16 8 109 255 0 0
0.28042853 -0.12082564 1.1362232 15 8 106 255 0 0
0.36460897 -0.114985555 1.0246255 16 9 110 255 0 0
0.30895066 -0.23467809 1.0570456 12 4 90 255 0 0
0.25945973 -0.21295442 1.12148 12 4 92 255 0 0
0.34943128 -0.19845456 1.0082049 13 5 99 255 0 0
0.08255148 -0.37683105 1.0785282 7 3 52 255 0 0
0.08195984 -0.31882903 1.1455952 9 3 65 255 0 0
0.19901249 -0.35085076 1.061507 9 3 64 255 0 0
0.16319558 -0.3101868 1.1218802 10 3 70 255 0 0
0.08261232 -0.41176736 1.0256442 6 2 44 255 1e-45 0
0.14928168 -0.40015817 1.0094033 7 2 50 255 2.466005e-33 0
0.26515538 -0.31506875 1.0303148 10 4 75 255 3.99e-42 0
0.09345087 -2.016101 0.59264845 113 13 5 255 -nan -nan
0.09345092 -0.71986854 0.59264845 255 255 255 255 -4.0398103e+34 -1.5907998e+29
0.09345087 -2.016101 2.0122461 117 19 11 255 532.0005 132.81252
-0.08991345 -2.016101 0.59264845 113 13 5 255 -13087490000 4.896211e-36
-0.08991345 -2.016101 2.0122461 114 16 9 255 132.81352 6.630695e-36
-0.0899134 -0.71986854 0.59264845 255 255 255 255 3.973202e-31 2.2046983e-38
0.09345092 -0.71986854 0.59264845 255 255 255 255 -1.8076367e+29 0.03247177
0.09345092 -0.71986854 0.59264845 255 255 255 255 6.065723e-36 2.368225e-38
-0.08991345 -2.016101 2.0122461 114 16 9 255 9.0367626e-35 -175969100000000
0.09345087 -2.016101 2.0122461 117 19 11 255 2.0244472e-32 -54417140000
-0.0899134 -0.71986854 0.59264845 255 255 255 255 2.044158e-32 -2.4201862e+29
-0.0899134 -0.71986854 0.59264845 255 255 255 255 2.7276623e-35 1.0649911e-28
0.68795395 -2.016101 -0.08830441 113 13 6 255 1.004459e-39 2.172605e-26
0.687954 -0.7198687 -0.08830441 255 255 255 255 3.548173e-05 0.00041022687
2.1075518 -2.0161011 -0.08830447 119 22 13 255 3117567700 -57798360000
0.687954 -2.016101 0.09505991 113 13 5 255 0.00040501522 2618029500000000
2.1075518 -2.0161011 0.09505985 114 14 6 255 -2.687337e+29 2.7276643e-35
0.687954 -0.7198687 0.09505991 255 255 255 255 1.0649912e-28 9.701362e-35
0.687954 -0.7198687 -0.08830441 255 255 255 255 1048770.1 6.465689e-27
0.687954 -0.7198687 -0.08830441 255 255 255 255 5.250787e-27 -12465550000
2.1075518 -2.0161011 0.09505985 114 14 6 255 5.283502e-27 155010260
2.1075518 -2.0161011 -0.08830447 119 22 13 255 5.9238235e-30 -2.762598e-39
0.687954 -0.7198687 0.09505991 255 255 255 255 1.2999686e-16 3.3749912e-34
0.687954 -0.7198687 0.09505991 255 255 255 255 -14803817000 3.1320475e-34
-0.68441665 -2.016101 0.09505991 114 15 7 255 2.0228785e-21 9.029785e-35
-0.6844166 -0.7198686 0.09505991 255 255 255 255 -11012932000 9.0311785e-35
-2.1040144 -2.016101 0.09505985 113 13 5 255 -10879238000 8.937592e-23
-0.6844166 -2.016101 -0.08830441 113 13 5 255 4.2914245e-25 1.0590153e-22
-2.1040144 -2.016101 -0.08830447 114 15 7 255 4.2914186e-25 -3.40612e-39
-0.6844166 -0.7198686 -0.08830441 228 207 205 255 1.8905372e-21 5.1531746e-30
-0.6844166 -0.7198686 0.09505991 255 255 255 255 -877413000000000 5.1052223e-33
-0.6844166 -0.7198686 0.09505991 255 255 255 255 -855422100000000 0.07230582
-2.1040144 -2.016101 -0.08830447 114 15 7 255 -3.405026e-39 4.84175e-25
-2.1040144 -2.016101 0.09505985 113 13 5 255 8.577376e-26 -5.9519753e+19
-0.6844166 -0.7198686 -0.08830441 228 207 205 255 1.3072021e-30 1.9684307e-15
-0.6844166 -0.7198686 -0.08830441 228 207 205 255 -9.273359e-15 5.1592547e-10
-0.067722656 2.7970676 0.06949173 66 24 8 255 -4.413064e-39 4.1860416e-31
0.071260765 2.7970676 -0.0694917 66 24 8 255 3.4156753e-28 2.0237783e-15
-0.067722656 2.7970676 -0.0694917 66 24 8 255 -183684680000 86102.13
0.071260765 2.7970676 0.06949173 66 24 8 255 28591463000000 5.1803527e-13
0.13563524 2.1320105 -0.13386627 66 24 8 255 -3866666200000 5.130014e-35
0.13563524 2.1320105 0.1338663 78 29 10 255 -2560863800000 2.2052737e-38
-0.13209732 2.1320105 -0.13386627 66 24 8 255 -2.0799812e+29 7.3832e-15
-0.13209732 2.1320105 0.1338663 88 33 11 255 1.3000857e-33 1.1318175e-22
-0.067722656 2.7970676 -0.0694917 66 24 8 255 -173983250000 7.456771e-08
-0.067722656 2.7970676 -0.0694917 66 24 8 255 -2869629800000 1.2527721e-33
0.071260765 2.7970676 -0.0694917 66 24 8 255 1.898663e-15 -2698439000000
0.071260765 2.7970676 0.06949173 66 24 8 255 3.3943863e-28 3.2378753e-14
-0.067722656 2.7970676 0.06949173 66 24 8 255 3.3003756e-28 0.0005562935
-0.067722656 2.7970676 0.06949173 66 24 8 255 3.2543855e-34 1.797467e-21
3 0 1 2
3 3 4 0
3 4 5 6
3 1 6 7
3 8 9 10
3 8 11 12
3 12 13 14
3 12 15 9
3 16 17 18
3 16 19 20
3 20 21 22
3 20 23 17
3 18 24 16
3 25 26 24
3 26 27 24
3 24 28 16
3 29 30 10
3 29 31 32
3 32 33 34
3 32 35 30
3 36 37 38
3 39 37 40
3 41 42 37
3 38 42 43
3 33 44 45
3 46 44 47
3 44 48 49
3 44 35 45
3 50 51 2
3 50 52 53
3 53 48 54
3 53 46 51
3 55 52 7
3 55 30 56
3 56 35 57
3 56 48 52
3 42 31 43
3 42 51 58
3 58 46 47
3 58 33 31
3 59 60 61
3 62 60 63
3 60 64 65
3 60 66 61
3 67 68 5
3 67 69 70
3 70 71 72
3 70 73 68
3 74 75 39
3 74 76 77
3 77 66 78
3 77 64 75
3 14 79 15
3 14 80 81
3 81 82 83
3 81 84 79
3 0 4 1
3 3 85 4
3 4 85 5
3 1 4 6
3 8 12 9
3 8 7 11
3 12 11 13
3 12 14 15
3 16 20 17
3 16 28 19
3 20 19 21
3 20 22 23
3 18 25 24
3 25 43 26
3 26 10 27
3 24 27 28
3 29 32 30
3 29 43 31
3 32 31 33
3 32 34 35
3 36 40 37
3 39 41 37
3 41 2 42
3 38 37 42
3 33 47 44
3 46 86 44
3 44 86 48
3 44 49 35
3 50 53 51
3 50 7 52
3 53 52 48
3 53 54 46
3 55 56 52
3 55 10 30
3 56 30 35
3 56 57 48
3 42 58 31
3 42 2 51
3 58 51 46
3 58 47 33
3 59 63 60
3 62 87 60
3 60 87 64
3 60 65 66
3 67 70 68
3 67 3 69
3 70 69 71
3 70 72 73
3 74 77 75
3 74 36 76
3 77 76 66
3 77 78 64
3 14 81 79
3 14 13 80
3 81 80 82
3 81 83 84
3 88 89 90
3 91 92 93
3 93 94 91
3 95 96 91
3 97 92 98
3 99 100 101
3 88 102 89
3 91 96 92
3 93 103 94
3 95 104 96
3 97 93 92
3 99 105 100
3 106 107 108
3 109 110 107
3 111 112 110
3 113 114 112
3 110 115 116
3 117 113 111
3 106 109 107
3 109 111 110
3 111 113 112
3 113 118 114
3 110 112 115
3 117 119 113
3 120 121 122
3 123 124 125
3 125 126 123
3 127 128 123
3 129 124 130
3 131 132 133
3 120 134 121
3 123 128 124
3 125 135 126
3 127 136 128
3 129 125 124
3 131 137 132
3 138 139 140
3 141 142 139
3 143 144 142
3 145 146 144
3 142 147 148
3 149 145 143
3 138 141 139
3 141 143 142
3 143 145 144
3 145 150 146
3 142 144 147
3 149 151 145
3 152 153 154
3 155 156 153
3 157 158 156
3 159 160 158
3 156 161 162
3 163 159 157
3 152 155 153
3 155 157 156
3 157 159 158
3 159 164 160
3 156 158 161
3 163 165 159
3 166 167 168
3 169 170 167
3 171 172 170
3 173 174 172
3 170 175 176
3 177 173 171
3 166 169 167
3 169 171 170
3 171 173 172
3 173 178 174
3 170 172 175
3 177 179 173
3 180 181 182
3 183 184 181
3 185 186 184
3 187 188 186
3 184 189 190
3 191 187 185
3 180 183 181
3 183 185 184
3 185 187 186
3 187 192 188
3 184 186 189
3 191 193 187
3 194 195 196
3 197 198 195
3 199 200 198
3 201 202 200
3 198 203 204
3 205 201 199
3 194 197 195
3 197 199 198
3 199 201 200
3 201 206 202
3 198 200 203
3 205 207 201
3 211 212 210
3 210 215 211
3 210 216 214
3 218 219 217
3 217 222 218
3 217 223 221
3 226 228 225
3 224 228 227
3 208 220 209
3 216 224 214
3 209 214 208
3 224 223 219
3 208 224 219
3 234 235 233
3 235 231 233
3 241 239 238
3 241 237 240
3 247 244 246
3 243 234 233
3 245 234 244
3 239 243 238
3 246 239 242
3 249 247 246
3 247 248 245
3 243 230 238
3 251 254 253
3 257 253 254
3 253 255 251
3 263 261 260
3 262 263 260
3 267 268 266
3 271 272 270
3 276 272 273
3 255 262 260
3 271 258 259
3 256 259 258
3 262 274 265
3 266 272 267
3 275 268 269
3 266 274 270
3 272 269 267
3 258 262 256
3 279 282 281
3 279 278 277
3 287 286 284
3 293 295 292
3 295 294 292
3 282 285 281
3 284 282 280
3 285 293 292
3 288 293 286
3 287 291 288
3 289 287 284
3 285 283 281
3 303 302 301
3 298 302 299
3 300 301 298
3 307 306 305
3 306 309 305
3 306 311 310
3 316 317 315
3 312 304 303
3 310 314 309
3 310 316 315
3 300 309 303
3 314 313 312
3 309 312 303
3 320 324 321
3 322 320 319
3 328 326 325
3 336 335 334
3 338 336 334
3 327 335 328
3 335 329 328
3 327 324 323
3 324 325 321
3 326 330 325
3 326 332 331
3 333 327 323
3 340 344 341
3 342 343 340
3 352 349 351
3 348 351 347
3 346 351 349
3 360 357 359
3 357 354 353
3 356 359 355
3 353 359 357
3 343 354 344
3 345 353 343
3 350 361 349
3 346 345 342
3 362 355 361
3 345 361 355
3 367 363 365
3 375 371 372
3 376 371 374
3 380 377 379
3 382 377 381
3 380 366 367
3 380 365 378
3 375 366 374
3 375 364 367
3 369 363 364
3 370 363 368
3 383 366 379
3 221 299 222
3 221 300 298
3 229 307 228
3 227 307 305
3 227 300 223
3 320 242 241
3 320 240 319
3 331 249 330
3 325 249 246
3 325 242 321
3 263 341 264
3 265 340 263
3 348 275 276
3 274 347 346
3 265 346 342
3 368 291 290
3 296 371 295
3 371 297 295
3 291 364 288
3 364 296 288
3 212 252 251
3 212 255 216
3 261 225 260
3 261 229 226
3 216 260 225
3 308 344 311
3 354 318 316
3 344 316 311
3 235 280 279
3 235 277 232
3 250 289 248
3 245 289 284
3 245 280 236
3 377 337 336
3 339 377 336
3 370 331 332
3 370 329 365
3 337 365 329
3 231 213 211
3 215 231 211
3 237 220 218
3 222 237 218
3 230 215 209
3 220 230 209
3 252 278 254
3 278 257 254
3 271 294 273
3 294 276 273
3 257 283 259
3 283 271 259
3 304 322 302
3 299 322 319
3 318 338 317
3 315 338 334
3 334 313 315
3 304 333 323
3 376 350 352
3 376 348 373
3 360 381 358
3 382 356 379
3 383 356 362
3 383 350 374
3 232 252 213
3 381 318 358
3 222 319 240
3 373 276 297
3 229 341 308
3 368 250 331
3 211 213 212
3 210 214 215
3 210 212 216
3 218 220 219
3 217 221 222
3 217 219 223
3 226 229 228
3 224 225 228
3 208 219 220
3 216 225 224
3 209 215 214
3 224 227 223
3 208 214 224
3 234 236 235
3 235 232 231
3 241 242 239
3 241 238 237
3 247 245 244
3 243 244 234
3 245 236 234
3 239 244 243
3 246 244 239
3 249 250 247
3 247 250 248
3 243 233 230
3 251 252 254
3 257 256 253
3 253 256 255
3 263 264 261
3 262 265 263
3 267 269 268
3 271 273 272
3 276 275 272
3 255 256 262
3 271 270 258
3 256 257 259
3 262 270 274
3 266 270 272
3 275 274 268
3 266 268 274
3 272 275 269
3 258 270 262
3 279 280 282
3 279 281 278
3 287 288 286
3 293 296 295
3 295 297 294
3 282 286 285
3 284 286 282
3 285 286 293
3 288 296 293
3 287 290 291
3 289 290 287
3 285 292 283
3 303 304 302
3 298 301 302
3 300 303 301
3 307 308 306
3 306 310 309
3 306 308 311
3 316 318 317
3 312 313 304
3 310 315 314
3 310 311 316
3 300 305 309
3 314 315 313
3 309 314 312
3 320 323 324
3 322 323 320
3 328 329 326
3 336 337 335
3 338 339 336
3 327 334 335
3 335 337 329
3 327 328 324
3 324 328 325
3 326 331 330
3 326 329 332
3 333 334 327
3 340 343 344
3 342 345 343
3 352 350 349
3 348 352 351
3 346 347 351
3 360 358 357
3 357 358 354
3 356 360 359
3 353 355 359
3 343 353 354
3 345 355 353
3 350 362 361
3 346 349 345
3 362 356 355
3 345 349 361
3 367 364 363
3 375 374 371
3 376 373 371
3 380 378 377
3 382 379 377
3 380 379 366
3 380 367 365
3 375 367 366
3 375 372 364
3 369 368 363
3 370 365 363
3 383 374 366
3 221 298 299
3 221 223 300
3 229 308 307
3 227 228 307
3 227 305 300
3 320 321 242
3 320 241 240
3 331 250 249
3 325 330 249
3 325 246 242
3 263 340 341
3 265 342 340
3 348 347 275
3 274 275 347
3 265 274 346
3 368 369 291
3 296 372 371
3 371 373 297
3 291 369 364
3 364 372 296
3 212 213 252
3 212 251 255
3 261 226 225
3 261 264 229
3 216 255 260
3 308 341 344
3 354 358 318
3 344 354 316
3 235 236 280
3 235 279 277
3 250 290 289
3 245 248 289
3 245 284 280
3 377 378 337
3 339 381 377
3 370 368 331
3 370 332 329
3 337 378 365
3 231 232 213
3 215 233 231
3 237 238 220
3 222 240 237
3 230 233 215
3 220 238 230
3 252 277 278
3 278 281 257
3 271 292 294
3 294 297 276
3 257 281 283
3 283 292 271
3 304 323 322
3 299 302 322
3 318 339 338
3 315 317 338
3 334 333 313
3 304 313 333
3 376 374 350
3 376 352 348
3 360 382 381
3 382 360 356
3 383 379 356
3 383 362 350
3 232 277 252
3 381 339 318
3 222 299 319
3 373 348 276
3 229 264 341
3 368 290 250
3 384 385 386
3 387 386 388
3 389 387 388
3 387 390 384
3 391 392 393
3 387 384 386
3 387 394 390
3 391 395 392
3 396 397 398
3 399 398 400
3 401 399 400
3 399 402 396
3 403 404 405
3 399 396 398
3 399 406 402
3 403 407 404
3 408 409 410
3 411 410 412
3 413 411 412
3 411 414 408
3 415 416 417
3 411 408 410
3 411 418 414
3 415 419 416
3 420 421 422
3 423 424 421
3 425 426 424
3 427 428 426
3 424 429 430
3 431 427 425
3 420 423 421
3 423 425 424
3 425 427 426
3 427 432 428
3 424 426 429
3 431 433 427
