ply
format ascii 1.0
comment Created in Blender version 4.3.2
element vertex 502
property float x
property float y
property float z
property uchar red
property uchar green
property uchar blue
property uchar alpha
property float s
property float t
element face 205
property list uchar uint vertex_indices
end_header
1 1 1 0 0 0 0 0.625 0.5
-1 1 1 0 0 0 0 0.875 0.5
-1 -1 1 0 0 0 0 0.875 0.75
1 -1 1 0 0 0 0 0.625 0.75
1 -1 -1 0 0 0 0 0.375 0.75
-1 -1 1 0 0 0 0 0.625 1
-1 -1 -1 0 0 0 0 0.375 1
-1 -1 -1 0 0 0 0 0.375 0
-1 -1 1 0 0 0 0 0.625 0
-1 1 1 0 0 0 0 0.625 0.25
-1 1 -1 0 0 0 0 0.375 0.25
-1 1 -1 0 0 0 0 0.125 0.5
1 1 -1 0 0 0 0 0.375 0.5
-1 -1 -1 0 0 0 0 0.125 0.75
0 1 2.3244774 0 0 0 255 0.25 0.49
0 0 4.324477 0 0 0 255 0.25 0.25
0.19509032 0.98078525 2.3244774 0 0 0 255 0.29682168 0.48538846
0.38268346 0.9238795 2.3244774 0 0 0 255 0.34184402 0.47173107
0.55557024 0.8314696 2.3244774 0 0 0 255 0.38333684 0.4495527
0.70710677 0.70710677 2.3244774 0 0 0 255 0.41970563 0.41970563
0.8314696 0.55557024 2.3244774 0 0 0 255 0.4495527 0.38333684
0.9238795 0.38268346 2.3244774 0 0 0 255 0.47173107 0.34184402
0.98078525 0.19509032 2.3244774 0 0 0 255 0.48538846 0.29682168
1 0 2.3244774 0 0 0 255 0.49 0.25
0.98078525 -0.19509032 2.3244774 0 0 0 255 0.48538846 0.20317832
0.9238795 -0.38268346 2.3244774 0 0 0 255 0.47173107 0.15815598
0.8314696 -0.55557024 2.3244774 0 0 0 255 0.4495527 0.11666314
0.70710677 -0.70710677 2.3244774 0 0 0 255 0.41970563 0.080294386
0.55557024 -0.8314696 2.3244774 0 0 0 255 0.38333684 0.0504473
0.38268346 -0.9238795 2.3244774 0 0 0 255 0.34184402 0.028268918
0.19509032 -0.98078525 2.3244774 0 0 0 255 0.29682168 0.014611542
0 -1 2.3244774 0 0 0 255 0.25 0.010000005
-0.19509032 -0.98078525 2.3244774 0 0 0 255 0.20317832 0.014611542
-0.38268346 -0.9238795 2.3244774 0 0 0 255 0.15815598 0.028268918
-0.55557024 -0.8314696 2.3244774 0 0 0 255 0.11666314 0.0504473
-0.70710677 -0.70710677 2.3244774 0 0 0 255 0.080294386 0.080294386
-0.8314696 -0.55557024 2.3244774 0 0 0 255 0.0504473 0.11666314
-0.9238795 -0.38268346 2.3244774 0 0 0 255 0.028268918 0.15815598
-0.98078525 -0.19509032 2.3244774 0 0 0 255 0.014611542 0.20317832
-1 0 2.3244774 0 0 0 255 0.010000005 0.25
-0.98078525 0.19509032 2.3244774 0 0 0 255 0.014611542 0.29682168
-0.9238795 0.38268346 2.3244774 0 0 0 255 0.028268918 0.34184402
-0.8314696 0.55557024 2.3244774 0 0 0 255 0.0504473 0.38333684
-0.70710677 0.70710677 2.3244774 0 0 0 255 0.080294386 0.41970563
-0.55557024 0.8314696 2.3244774 0 0 0 255 0.11666314 0.4495527
-0.38268346 0.9238795 2.3244774 0 0 0 255 0.15815598 0.47173107
0 1 2.3244774 0 0 0 255 0.75 0.49
0.19509032 0.98078525 2.3244774 0 0 0 255 0.79682165 0.48538846
0.38268346 0.9238795 2.3244774 0 0 0 255 0.841844 0.47173107
0.55557024 0.8314696 2.3244774 0 0 0 255 0.88333684 0.4495527
0.70710677 0.70710677 2.3244774 0 0 0 255 0.9197056 0.41970563
0.8314696 0.55557024 2.3244774 0 0 0 255 0.9495527 0.38333684
0.9238795 0.38268346 2.3244774 0 0 0 255 0.97173107 0.34184402
0.98078525 0.19509032 2.3244774 0 0 0 255 0.98538846 0.29682168
1 0 2.3244774 0 0 0 255 0.99 0.25
0.98078525 -0.19509032 2.3244774 0 0 0 255 0.98538846 0.20317832
0.9238795 -0.38268346 2.3244774 0 0 0 255 0.97173107 0.15815598
0.8314696 -0.55557024 2.3244774 0 0 0 255 0.9495527 0.11666314
0.70710677 -0.70710677 2.3244774 0 0 0 255 0.9197056 0.080294386
0.55557024 -0.8314696 2.3244774 0 0 0 255 0.88333684 0.0504473
0.38268346 -0.9238795 2.3244774 0 0 0 255 0.841844 0.028268918
0.19509032 -0.98078525 2.3244774 0 0 0 255 0.79682165 0.014611542
0 -1 2.3244774 0 0 0 255 0.75 0.010000005
-0.19509032 -0.98078525 2.3244774 0 0 0 255 0.70317835 0.014611542
-0.38268346 -0.9238795 2.3244774 0 0 0 255 0.658156 0.028268918
-0.55557024 -0.8314696 2.3244774 0 0 0 255 0.61666316 0.0504473
-0.70710677 -0.70710677 2.3244774 0 0 0 255 0.5802944 0.080294386
-0.8314696 -0.55557024 2.3244774 0 0 0 255 0.5504473 0.11666314
-0.9238795 -0.38268346 2.3244774 0 0 0 255 0.52826893 0.15815598
-0.98078525 -0.19509032 2.3244774 0 0 0 255 0.51461154 0.20317832
-1 0 2.3244774 0 0 0 255 0.51 0.25
-0.98078525 0.19509032 2.3244774 0 0 0 255 0.51461154 0.29682168
-0.9238795 0.38268346 2.3244774 0 0 0 255 0.52826893 0.34184402
-0.8314696 0.55557024 2.3244774 0 0 0 255 0.5504473 0.38333684
-0.70710677 0.70710677 2.3244774 0 0 0 255 0.5802944 0.41970563
-0.55557024 0.8314696 2.3244774 0 0 0 255 0.61666316 0.4495527
-0.38268346 0.9238795 2.3244774 0 0 0 255 0.658156 0.47173107
-0.19509032 0.98078525 2.3244774 0 0 0 255 0.70317835 0.48538846
-0.19509032 0.98078525 2.3244774 0 0 0 255 0.20317832 0.48538846
0 1 -2.3281043 253 0 0 255 1 0.5
0 1 2.3281043 253 0 0 255 1 1
0.19509032 0.98078525 2.3281043 253 0 0 255 0.96875 1
0.19509032 0.98078525 -2.3281043 253 0 0 255 0.96875 0.5
0.38268346 0.9238795 2.3281043 253 0 0 255 0.9375 1
0.38268346 0.9238795 -2.3281043 253 0 0 255 0.9375 0.5
0.55557024 0.8314696 2.3281043 253 0 0 255 0.90625 1
0.55557024 0.8314696 -2.3281043 253 0 0 255 0.90625 0.5
0.70710677 0.70710677 2.3281043 253 0 0 255 0.875 1
0.70710677 0.70710677 -2.3281043 253 0 0 255 0.875 0.5
0.8314696 0.55557024 2.3281043 253 0 0 255 0.84375 1
0.8314696 0.55557024 -2.3281043 253 0 0 255 0.84375 0.5
0.9238795 0.38268346 2.3281043 253 0 0 255 0.8125 1
0.9238795 0.38268346 -2.3281043 253 0 0 255 0.8125 0.5
0.98078525 0.19509032 2.3281043 253 0 0 255 0.78125 1
0.98078525 0.19509032 -2.3281043 253 0 0 255 0.78125 0.5
1 0 2.3281043 253 0 0 255 0.75 1
1 0 -2.3281043 253 0 0 255 0.75 0.5
0.98078525 -0.19509032 2.3281043 253 0 0 255 0.71875 1
0.98078525 -0.19509032 -2.3281043 253 0 0 255 0.71875 0.5
0.9238795 -0.38268346 2.3281043 253 0 0 255 0.6875 1
0.9238795 -0.38268346 -2.3281043 253 0 0 255 0.6875 0.5
0.8314696 -0.55557024 2.3281043 253 0 0 255 0.65625 1
0.8314696 -0.55557024 -2.3281043 253 0 0 255 0.65625 0.5
0.70710677 -0.70710677 2.3281043 253 0 0 255 0.625 1
0.70710677 -0.70710677 -2.3281043 253 0 0 255 0.625 0.5
0.55557024 -0.8314696 2.3281043 253 0 0 255 0.59375 1
0.55557024 -0.8314696 -2.3281043 253 0 0 255 0.59375 0.5
0.38268346 -0.9238795 2.3281043 253 0 0 255 0.5625 1
0.38268346 -0.9238795 -2.3281043 253 0 0 255 0.5625 0.5
0.19509032 -0.98078525 2.3281043 253 0 0 255 0.53125 1
0.19509032 -0.98078525 -2.3281043 253 0 0 255 0.53125 0.5
0 -1 2.3281043 253 0 0 255 0.5 1
0 -1 -2.3281043 253 0 0 255 0.5 0.5
-0.19509032 -0.98078525 2.3281043 253 0 0 255 0.46875 1
-0.19509032 -0.98078525 -2.3281043 253 0 0 255 0.46875 0.5
-0.38268346 -0.9238795 2.3281043 253 0 0 255 0.4375 1
-0.38268346 -0.9238795 -2.3281043 253 0 0 255 0.4375 0.5
-0.55557024 -0.8314696 2.3281043 253 0 0 255 0.40625 1
-0.55557024 -0.8314696 -2.3281043 253 0 0 255 0.40625 0.5
-0.70710677 -0.70710677 2.3281043 253 0 0 255 0.375 1
-0.70710677 -0.70710677 -2.3281043 253 0 0 255 0.375 0.5
-0.8314696 -0.55557024 2.3281043 253 0 0 255 0.34375 1
-0.8314696 -0.55557024 -2.3281043 253 0 0 255 0.34375 0.5
-0.9238795 -0.38268346 2.3281043 253 0 0 255 0.3125 1
-0.9238795 -0.38268346 -2.3281043 253 0 0 255 0.3125 0.5
-0.98078525 -0.19509032 2.3281043 253 0 0 255 0.28125 1
-0.98078525 -0.19509032 -2.3281043 253 0 0 255 0.28125 0.5
-1 0 2.3281043 253 0 0 255 0.25 1
-1 0 -2.3281043 253 0 0 255 0.25 0.5
-0.98078525 0.19509032 2.3281043 253 0 0 255 0.21875 1
-0.98078525 0.19509032 -2.3281043 253 0 0 255 0.21875 0.5
-0.9238795 0.38268346 2.3281043 253 0 0 255 0.1875 1
-0.9238795 0.38268346 -2.3281043 253 0 0 255 0.1875 0.5
-0.8314696 0.55557024 2.3281043 253 0 0 255 0.15625 1
-0.8314696 0.55557024 -2.3281043 253 0 0 255 0.15625 0.5
-0.70710677 0.70710677 2.3281043 253 0 0 255 0.125 1
-0.70710677 0.70710677 -2.3281043 253 0 0 255 0.125 0.5
-0.55557024 0.8314696 2.3281043 253 0 0 255 0.09375 1
-0.55557024 0.8314696 -2.3281043 253 0 0 255 0.09375 0.5
-0.38268346 0.9238795 2.3281043 253 0 0 255 0.0625 1
-0.38268346 0.9238795 -2.3281043 253 0 0 255 0.0625 0.5
0.19509032 0.98078525 2.3281043 253 0 0 255 0.29682168 0.48538846
0 1 2.3281043 253 0 0 255 0.25 0.49
-0.19509032 0.98078525 2.3281043 253 0 0 255 0.20317832 0.48538846
-0.38268346 0.9238795 2.3281043 253 0 0 255 0.15815598 0.47173107
-0.55557024 0.8314696 2.3281043 253 0 0 255 0.11666314 0.4495527
-0.70710677 0.70710677 2.3281043 253 0 0 255 0.080294386 0.41970563
-0.8314696 0.55557024 2.3281043 253 0 0 255 0.0504473 0.38333684
-0.9238795 0.38268346 2.3281043 253 0 0 255 0.028268918 0.34184402
-0.98078525 0.19509032 2.3281043 253 0 0 255 0.014611542 0.29682168
-1 0 2.3281043 253 0 0 255 0.010000005 0.25
-0.98078525 -0.19509032 2.3281043 253 0 0 255 0.014611542 0.20317832
-0.9238795 -0.38268346 2.3281043 253 0 0 255 0.028268918 0.15815598
-0.8314696 -0.55557024 2.3281043 253 0 0 255 0.0504473 0.11666314
-0.70710677 -0.70710677 2.3281043 253 0 0 255 0.080294386 0.080294386
-0.55557024 -0.8314696 2.3281043 253 0 0 255 0.11666314 0.0504473
-0.38268346 -0.9238795 2.3281043 253 0 0 255 0.15815598 0.028268918
-0.19509032 -0.98078525 2.3281043 253 0 0 255 0.20317832 0.014611542
0 -1 2.3281043 253 0 0 255 0.25 0.010000005
0.19509032 -0.98078525 2.3281043 253 0 0 255 0.29682168 0.014611542
0.38268346 -0.9238795 2.3281043 253 0 0 255 0.34184402 0.028268918
0.55557024 -0.8314696 2.3281043 253 0 0 255 0.38333684 0.0504473
0.70710677 -0.70710677 2.3281043 253 0 0 255 0.41970563 0.080294386
0.8314696 -0.55557024 2.3281043 253 0 0 255 0.4495527 0.11666314
0.9238795 -0.38268346 2.3281043 253 0 0 255 0.47173107 0.15815598
0.98078525 -0.19509032 2.3281043 253 0 0 255 0.48538846 0.20317832
1 0 2.3281043 253 0 0 255 0.49 0.25
0.98078525 0.19509032 2.3281043 253 0 0 255 0.48538846 0.29682168
0.9238795 0.38268346 2.3281043 253 0 0 255 0.47173107 0.34184402
0.8314696 0.55557024 2.3281043 253 0 0 255 0.4495527 0.38333684
0.70710677 0.70710677 2.3281043 253 0 0 255 0.41970563 0.41970563
0.55557024 0.8314696 2.3281043 253 0 0 255 0.38333684 0.4495527
0.38268346 0.9238795 2.3281043 253 0 0 255 0.34184402 0.47173107
-0.19509032 0.98078525 2.3281043 253 0 0 255 0.03125 1
-0.19509032 0.98078525 -2.3281043 253 0 0 255 0.03125 0.5
0 1 2.3281043 253 0 0 255 0 1
0 1 -2.3281043 253 0 0 255 0 0.5
0 1 -2.3281043 253 0 0 255 0.75 0.49
0.19509032 0.98078525 -2.3281043 253 0 0 255 0.79682165 0.48538846
0.38268346 0.9238795 -2.3281043 253 0 0 255 0.841844 0.47173107
0.55557024 0.8314696 -2.3281043 253 0 0 255 0.88333684 0.4495527
0.70710677 0.70710677 -2.3281043 253 0 0 255 0.9197056 0.41970563
0.8314696 0.55557024 -2.3281043 253 0 0 255 0.9495527 0.38333684
0.9238795 0.38268346 -2.3281043 253 0 0 255 0.97173107 0.34184402
0.98078525 0.19509032 -2.3281043 253 0 0 255 0.98538846 0.29682168
1 0 -2.3281043 253 0 0 255 0.99 0.25
0.98078525 -0.19509032 -2.3281043 253 0 0 255 0.98538846 0.20317832
0.9238795 -0.38268346 -2.3281043 253 0 0 255 0.97173107 0.15815598
0.8314696 -0.55557024 -2.3281043 253 0 0 255 0.9495527 0.11666314
0.70710677 -0.70710677 -2.3281043 253 0 0 255 0.9197056 0.080294386
0.55557024 -0.8314696 -2.3281043 253 0 0 255 0.88333684 0.0504473
0.38268346 -0.9238795 -2.3281043 253 0 0 255 0.841844 0.028268918
0.19509032 -0.98078525 -2.3281043 253 0 0 255 0.79682165 0.014611542
0 -1 -2.3281043 253 0 0 255 0.75 0.010000005
-0.19509032 -0.98078525 -2.3281043 253 0 0 255 0.70317835 0.014611542
-0.38268346 -0.9238795 -2.3281043 253 0 0 255 0.658156 0.028268918
-0.55557024 -0.8314696 -2.3281043 253 0 0 255 0.61666316 0.0504473
-0.70710677 -0.70710677 -2.3281043 253 0 0 255 0.5802944 0.080294386
-0.8314696 -0.55557024 -2.3281043 253 0 0 255 0.5504473 0.11666314
-0.9238795 -0.38268346 -2.3281043 253 0 0 255 0.52826893 0.15815598
-0.98078525 -0.19509032 -2.3281043 253 0 0 255 0.51461154 0.20317832
-1 0 -2.3281043 253 0 0 255 0.51 0.25
-0.98078525 0.19509032 -2.3281043 253 0 0 255 0.51461154 0.29682168
-0.9238795 0.38268346 -2.3281043 253 0 0 255 0.52826893 0.34184402
-0.8314696 0.55557024 -2.3281043 253 0 0 255 0.5504473 0.38333684
-0.70710677 0.70710677 -2.3281043 253 0 0 255 0.5802944 0.41970563
-0.55557024 0.8314696 -2.3281043 253 0 0 255 0.61666316 0.4495527
-0.38268346 0.9238795 -2.3281043 253 0 0 255 0.658156 0.47173107
-0.19509032 0.98078525 -2.3281043 253 0 0 255 0.70317835 0.48538846
-0.008385897 1.5844761 -3.4805706 0 0 0 255 0.25 0.49
-0.008385897 0 -0.31161857 0 0 0 255 0.25 0.25
0.30073005 1.5540308 -3.4805706 0 0 0 255 0.29682168 0.48538846
0.5979669 1.463865 -3.4805706 0 0 0 255 0.34184402 0.47173107
0.87190187 1.3174437 -3.4805706 29 29 29 255 0.38333684 0.4495527
1.1120079 1.1203938 -3.4805706 0 0 0 255 0.41970563 0.41970563
1.3090578 0.88028777 -3.4805706 0 0 0 255 0.4495527 0.38333684
1.4554791 0.6063528 -3.4805706 0 0 0 255 0.47173107 0.34184402
1.5456449 0.30911595 -3.4805706 0 0 0 255 0.48538846 0.29682168
1.5760902 0 -3.4805706 0 0 0 255 0.49 0.25
1.5456449 -0.30911595 -3.4805706 0 0 0 255 0.48538846 0.20317832
1.4554791 -0.6063528 -3.4805706 0 0 0 255 0.47173107 0.15815598
1.3090578 -0.88028777 -3.4805706 0 0 0 255 0.4495527 0.11666314
1.1120079 -1.1203938 -3.4805706 0 0 0 255 0.41970563 0.080294386
0.87190187 -1.3174437 -3.4805706 0 0 0 255 0.38333684 0.0504473
0.5979669 -1.463865 -3.4805706 0 0 0 255 0.34184402 0.028268918
0.30073005 -1.5540308 -3.4805706 0 0 0 255 0.29682168 0.014611542
-0.008385897 -1.5844761 -3.4805706 0 0 0 255 0.25 0.010000005
-0.31750184 -1.5540308 -3.4805706 0 0 0 255 0.20317832 0.014611542
-0.6147387 -1.463865 -3.4805706 0 0 0 255 0.15815598 0.028268918
-0.88867366 -1.3174437 -3.4805706 0 0 0 255 0.11666314 0.0504473
-1.1287796 -1.1203938 -3.4805706 0 0 0 255 0.080294386 0.080294386
-1.3258296 -0.88028777 -3.4805706 0 0 0 255 0.0504473 0.11666314
-1.4722509 -0.6063528 -3.4805706 0 0 0 255 0.028268918 0.15815598
-1.5624167 -0.30911595 -3.4805706 0 0 0 255 0.014611542 0.20317832
-1.592862 0 -3.4805706 0 0 0 255 0.010000005 0.25
-1.5624167 0.30911595 -3.4805706 0 0 0 255 0.014611542 0.29682168
-1.4722509 0.6063528 -3.4805706 0 0 0 255 0.028268918 0.34184402
-1.3258296 0.88028777 -3.4805706 0 0 0 255 0.0504473 0.38333684
-1.1287796 1.1203938 -3.4805706 0 0 0 255 0.080294386 0.41970563
-0.88867366 1.3174437 -3.4805706 0 0 0 255 0.11666314 0.4495527
-0.6147387 1.463865 -3.4805706 0 0 0 255 0.15815598 0.47173107
-0.31750184 1.5540308 -3.4805706 0 0 0 255 0.20317832 0.48538846
2.4918816 -0.16656773 -1.1490943 253 0 0 255 1 0.5
-2.4918816 -0.16656773 -1.1490943 253 0 0 255 1 1
-2.4918816 -0.16336717 -1.1165988 253 0 0 255 0.96875 1
2.4918816 -0.16336717 -1.1165984 253 0 0 255 0.96875 0.5
-2.4918816 -0.15388851 -1.0853517 253 0 0 255 0.9375 1
2.4918816 -0.15388851 -1.0853512 253 0 0 255 0.9375 0.5
-2.4918816 -0.138496 -1.0565546 253 0 0 255 0.90625 1
2.4918816 -0.138496 -1.0565541 253 0 0 255 0.90625 0.5
-2.4918816 -0.11778117 -1.0313132 253 0 0 255 0.875 1
2.4918816 -0.11778117 -1.0313132 253 0 0 255 0.875 0.5
-2.4918816 -0.09254007 -1.0105984 253 0 0 255 0.84375 1
2.4918816 -0.09254007 -1.010598 253 0 0 255 0.84375 0.5
-2.4918816 -0.06374271 -0.9952061 253 0 0 255 0.8125 1
2.4918816 -0.06374271 -0.99520564 253 0 0 255 0.8125 0.5
-2.4918816 -0.032495752 -0.98572755 253 0 0 255 0.78125 1
2.4918816 -0.032495752 -0.9857271 253 43 43 255 0.78125 0.5
-2.4918816 0 -0.982527 253 0 0 255 0.75 1
2.4918816 0 -0.98252654 253 0 0 255 0.75 0.5
-2.4918816 0.032495752 -0.98572755 253 0 0 255 0.71875 1
2.4918816 0.032495752 -0.9857271 253 0 0 255 0.71875 0.5
-2.4918816 0.06374271 -0.9952061 253 0 0 255 0.6875 1
2.4918816 0.06374271 -0.99520564 253 0 0 255 0.6875 0.5
-2.4918816 0.09254007 -1.0105984 253 0 0 255 0.65625 1
2.4918816 0.09254007 -1.010598 253 0 0 255 0.65625 0.5
-2.4918816 0.11778117 -1.0313132 253 0 0 255 0.625 1
2.4918816 0.11778117 -1.0313132 253 0 0 255 0.625 0.5
-2.4918816 0.138496 -1.0565546 253 0 0 255 0.59375 1
2.4918816 0.138496 -1.0565541 253 0 0 255 0.59375 0.5
-2.4918816 0.15388851 -1.0853517 253 0 0 255 0.5625 1
2.4918816 0.15388851 -1.0853512 253 0 0 255 0.5625 0.5
-2.4918816 0.16336717 -1.1165988 253 0 0 255 0.53125 1
2.4918816 0.16336717 -1.1165984 253 0 0 255 0.53125 0.5
-2.4918816 0.16656773 -1.1490943 253 0 0 255 0.5 1
2.4918816 0.16656773 -1.1490943 253 0 0 255 0.5 0.5
-2.4918816 0.16336717 -1.1815903 253 0 0 255 0.46875 1
2.4918816 0.16336717 -1.1815898 253 0 0 255 0.46875 0.5
-2.4918816 0.15388851 -1.2128375 253 0 0 255 0.4375 1
2.4918816 0.15388851 -1.212837 253 0 0 255 0.4375 0.5
-2.4918816 0.138496 -1.2416346 253 0 0 255 0.40625 1
2.4918816 0.138496 -1.2416341 253 0 0 255 0.40625 0.5
-2.4918816 0.11778117 -1.2668755 253 0 0 255 0.375 1
2.4918816 0.11778117 -1.2668755 253 0 0 255 0.375 0.5
-2.4918816 0.09254007 -1.2875907 253 0 0 255 0.34375 1
2.4918816 0.09254007 -1.2875903 253 0 0 255 0.34375 0.5
-2.4918816 0.06374271 -1.302983 253 0 0 255 0.3125 1
2.4918816 0.06374271 -1.3029826 253 0 0 255 0.3125 0.5
-2.4918816 0.032495752 -1.3124616 253 0 0 255 0.28125 1
2.4918816 0.032495752 -1.3124611 253 0 0 255 0.28125 0.5
-2.4918816 0 -1.3156621 253 0 0 255 0.25 1
2.4918816 0 -1.3156617 253 0 0 255 0.25 0.5
-2.4918816 -0.032495752 -1.3124616 253 0 0 255 0.21875 1
2.4918816 -0.032495752 -1.3124611 253 0 0 255 0.21875 0.5
-2.4918816 -0.06374271 -1.302983 253 0 0 255 0.1875 1
2.4918816 -0.06374271 -1.3029826 253 0 0 255 0.1875 0.5
-2.4918816 -0.09254007 -1.2875907 253 0 0 255 0.15625 1
2.4918816 -0.09254007 -1.2875903 253 0 0 255 0.15625 0.5
-2.4918816 -0.11778117 -1.2668755 253 0 0 255 0.125 1
2.4918816 -0.11778117 -1.2668755 253 0 0 255 0.125 0.5
-2.4918816 -0.138496 -1.2416346 253 0 0 255 0.09375 1
2.4918816 -0.138496 -1.2416341 253 51 51 255 0.09375 0.5
-2.4918816 -0.15388851 -1.2128375 253 0 0 255 0.0625 1
2.4918816 -0.15388851 -1.212837 253 0 0 255 0.0625 0.5
-2.4918816 -0.16336717 -1.1165988 253 0 0 255 0.29682168 0.48538846
-2.4918816 -0.16656773 -1.1490943 253 0 0 255 0.25 0.49
-2.4918816 -0.16336717 -1.1815903 253 0 0 255 0.20317832 0.48538846
-2.4918816 -0.15388851 -1.2128375 253 0 0 255 0.15815598 0.47173107
-2.4918816 -0.138496 -1.2416346 253 0 0 255 0.11666314 0.4495527
-2.4918816 -0.11778117 -1.2668755 253 0 0 255 0.080294386 0.41970563
-2.4918816 -0.09254007 -1.2875907 253 0 0 255 0.0504473 0.38333684
-2.4918816 -0.06374271 -1.302983 253 0 0 255 0.028268918 0.34184402
-2.4918816 -0.032495752 -1.3124616 253 0 0 255 0.014611542 0.29682168
-2.4918816 0 -1.3156621 253 0 0 255 0.010000005 0.25
-2.4918816 0.032495752 -1.3124616 253 0 0 255 0.014611542 0.20317832
-2.4918816 0.06374271 -1.302983 253 0 0 255 0.028268918 0.15815598
-2.4918816 0.09254007 -1.2875907 253 0 0 255 0.0504473 0.11666314
-2.4918816 0.11778117 -1.2668755 253 0 0 255 0.080294386 0.080294386
-2.4918816 0.138496 -1.2416346 253 0 0 255 0.11666314 0.0504473
-2.4918816 0.15388851 -1.2128375 253 0 0 255 0.15815598 0.028268918
-2.4918816 0.16336717 -1.1815903 253 0 0 255 0.20317832 0.014611542
-2.4918816 0.16656773 -1.1490943 253 0 0 255 0.25 0.010000005
-2.4918816 0.16336717 -1.1165988 253 0 0 255 0.29682168 0.014611542
-2.4918816 0.15388851 -1.0853517 253 0 0 255 0.34184402 0.028268918
-2.4918816 0.138496 -1.0565546 253 0 0 255 0.38333684 0.0504473
-2.4918816 0.11778117 -1.0313132 253 0 0 255 0.41970563 0.080294386
-2.4918816 0.09254007 -1.0105984 253 0 0 255 0.4495527 0.11666314
-2.4918816 0.06374271 -0.9952061 253 0 0 255 0.47173107 0.15815598
-2.4918816 0.032495752 -0.98572755 253 0 0 255 0.48538846 0.20317832
-2.4918816 0 -0.982527 253 0 0 255 0.49 0.25
-2.4918816 -0.032495752 -0.98572755 253 0 0 255 0.48538846 0.29682168
-2.4918816 -0.06374271 -0.9952061 253 0 0 255 0.47173107 0.34184402
-2.4918816 -0.09254007 -1.0105984 253 0 0 255 0.4495527 0.38333684
-2.4918816 -0.11778117 -1.0313132 253 0 0 255 0.41970563 0.41970563
-2.4918816 -0.138496 -1.0565546 253 0 0 255 0.38333684 0.4495527
-2.4918816 -0.15388851 -1.0853517 253 0 0 255 0.34184402 0.47173107
-2.4918816 -0.16336717 -1.1815903 253 0 0 255 0.03125 1
2.4918816 -0.16336717 -1.1815898 253 0 0 255 0.03125 0.5
-2.4918816 -0.16656773 -1.1490943 253 0 0 255 0 1
2.4918816 -0.16656773 -1.1490943 253 0 0 255 0 0.5
2.4918816 -0.16656773 -1.1490943 253 0 0 255 0.75 0.49
2.4918816 -0.16336717 -1.1165984 253 0 0 255 0.79682165 0.48538846
2.4918816 -0.15388851 -1.0853512 253 0 0 255 0.841844 0.47173107
2.4918816 -0.138496 -1.0565541 253 0 0 255 0.88333684 0.4495527
2.4918816 -0.11778117 -1.0313132 253 0 0 255 0.9197056 0.41970563
2.4918816 -0.09254007 -1.010598 253 0 0 255 0.9495527 0.38333684
2.4918816 -0.06374271 -0.99520564 253 0 0 255 0.97173107 0.34184402
2.4918816 -0.032495752 -0.9857271 253 43 43 255 0.98538846 0.29682168
2.4918816 0 -0.98252654 253 0 0 255 0.99 0.25
2.4918816 0.032495752 -0.9857271 253 0 0 255 0.98538846 0.20317832
2.4918816 0.06374271 -0.99520564 253 0 0 255 0.97173107 0.15815598
2.4918816 0.09254007 -1.010598 253 0 0 255 0.9495527 0.11666314
2.4918816 0.11778117 -1.0313132 253 0 0 255 0.9197056 0.080294386
2.4918816 0.138496 -1.0565541 253 0 0 255 0.88333684 0.0504473
2.4918816 0.15388851 -1.0853512 253 0 0 255 0.841844 0.028268918
2.4918816 0.16336717 -1.1165984 253 0 0 255 0.79682165 0.014611542
2.4918816 0.16656773 -1.1490943 253 0 0 255 0.75 0.010000005
2.4918816 0.16336717 -1.1815898 253 0 0 255 0.70317835 0.014611542
2.4918816 0.15388851 -1.212837 253 0 0 255 0.658156 0.028268918
2.4918816 0.138496 -1.2416341 253 0 0 255 0.61666316 0.0504473
2.4918816 0.11778117 -1.2668755 253 0 0 255 0.5802944 0.080294386
2.4918816 0.09254007 -1.2875903 253 0 0 255 0.5504473 0.11666314
2.4918816 0.06374271 -1.3029826 253 0 0 255 0.52826893 0.15815598
2.4918816 0.032495752 -1.3124611 253 0 0 255 0.51461154 0.20317832
2.4918816 0 -1.3156617 253 0 0 255 0.51 0.25
2.4918816 -0.032495752 -1.3124611 253 0 0 255 0.51461154 0.29682168
2.4918816 -0.06374271 -1.3029826 253 0 0 255 0.52826893 0.34184402
2.4918816 -0.09254007 -1.2875903 253 0 0 255 0.5504473 0.38333684
2.4918816 -0.11778117 -1.2668755 253 0 0 255 0.5802944 0.41970563
2.4918816 -0.138496 -1.2416341 253 51 51 255 0.61666316 0.4495527
2.4918816 -0.15388851 -1.212837 253 0 0 255 0.658156 0.47173107
2.4918816 -0.16336717 -1.1815898 253 0 0 255 0.70317835 0.48538846
2.166125 0.15568249 -1.1877224 0 0 0 255 0.25 0.49
2.166125 0 -0.027785063 0 0 0 255 0.25 0.25
2.2196617 0.1526911 -1.1877224 0 0 0 255 0.29682168 0.48538846
2.2711413 0.14383186 -1.1877224 0 0 0 255 0.34184402 0.47173107
2.318585 0.12944525 -1.1877224 0 0 0 255 0.38333684 0.4495527
2.3601696 0.11008414 -1.1877224 0 0 0 255 0.41970563 0.41970563
2.3942974 0.08649256 -1.1877224 0 0 0 255 0.4495527 0.38333684
2.4196565 0.059577115 -1.1877224 0 0 0 255 0.47173107 0.34184402
2.4352725 0.030372147 -1.1877224 0 0 0 255 0.48538846 0.29682168
2.4405456 0 -1.1877224 0 0 0 255 0.49 0.25
2.4352725 -0.030372147 -1.1877224 0 0 0 255 0.48538846 0.20317832
2.4196565 -0.059577115 -1.1877224 0 0 0 255 0.47173107 0.15815598
2.3942974 -0.08649256 -1.1877224 0 0 0 255 0.4495527 0.11666314
2.3601696 -0.11008414 -1.1877224 0 0 0 255 0.41970563 0.080294386
2.318585 -0.12944525 -1.1877224 0 0 0 255 0.38333684 0.0504473
2.2711413 -0.14383186 -1.1877224 0 0 0 255 0.34184402 0.028268918
2.2196617 -0.1526911 -1.1877224 0 0 0 255 0.29682168 0.014611542
2.166125 -0.15568249 -1.1877224 0 0 0 255 0.25 0.010000005
2.1125884 -0.1526911 -1.1877224 0 0 0 255 0.20317832 0.014611542
2.0611088 -0.14383186 -1.1877224 0 0 0 255 0.15815598 0.028268918
2.0136652 -0.12944525 -1.1877224 0 0 0 255 0.11666314 0.0504473
1.9720805 -0.11008414 -1.1877224 0 0 0 255 0.080294386 0.080294386
1.9379529 -0.08649256 -1.1877224 0 0 0 255 0.0504473 0.11666314
1.9125936 -0.059577115 -1.1877224 0 0 0 255 0.028268918 0.15815598
1.8969775 -0.030372147 -1.1877224 0 0 0 255 0.014611542 0.20317832
1.8917047 0 -1.1877224 0 0 0 255 0.010000005 0.25
1.8969775 0.030372147 -1.1877224 0 0 0 255 0.014611542 0.29682168
1.9125936 0.059577115 -1.1877224 0 0 0 255 0.028268918 0.34184402
1.9379529 0.08649256 -1.1877224 0 0 0 255 0.0504473 0.38333684
1.9720805 0.11008414 -1.1877224 0 0 0 255 0.080294386 0.41970563
2.0136652 0.12944525 -1.1877224 0 0 0 255 0.11666314 0.4495527
2.0611088 0.14383186 -1.1877224 0 0 0 255 0.15815598 0.47173107
2.166125 0.15568249 -1.1877224 0 0 0 255 0.75 0.49
2.2196617 0.1526911 -1.1877224 0 0 0 255 0.79682165 0.48538846
2.2711413 0.14383186 -1.1877224 0 0 0 255 0.841844 0.47173107
2.318585 0.12944525 -1.1877224 0 0 0 255 0.88333684 0.4495527
2.3601696 0.11008414 -1.1877224 0 0 0 255 0.9197056 0.41970563
2.3942974 0.08649256 -1.1877224 0 0 0 255 0.9495527 0.38333684
2.4196565 0.059577115 -1.1877224 0 0 0 255 0.97173107 0.34184402
2.4352725 0.030372147 -1.1877224 0 0 0 255 0.98538846 0.29682168
2.4405456 0 -1.1877224 0 0 0 255 0.99 0.25
2.4352725 -0.030372147 -1.1877224 0 0 0 255 0.98538846 0.20317832
2.4196565 -0.059577115 -1.1877224 0 0 0 255 0.97173107 0.15815598
2.3942974 -0.08649256 -1.1877224 0 0 0 255 0.9495527 0.11666314
2.3601696 -0.11008414 -1.1877224 0 0 0 255 0.9197056 0.080294386
2.318585 -0.12944525 -1.1877224 0 0 0 255 0.88333684 0.0504473
2.2711413 -0.14383186 -1.1877224 0 0 0 255 0.841844 0.028268918
2.2196617 -0.1526911 -1.1877224 0 0 0 255 0.79682165 0.014611542
2.166125 -0.15568249 -1.1877224 0 0 0 255 0.75 0.010000005
2.1125884 -0.1526911 -1.1877224 0 0 0 255 0.70317835 0.014611542
2.0611088 -0.14383186 -1.1877224 0 0 0 255 0.658156 0.028268918
2.0136652 -0.12944525 -1.1877224 0 0 0 255 0.61666316 0.0504473
1.9720805 -0.11008414 -1.1877224 0 0 0 255 0.5802944 0.080294386
1.9379529 -0.08649256 -1.1877224 0 0 0 255 0.5504473 0.11666314
1.9125936 -0.059577115 -1.1877224 0 0 0 255 0.52826893 0.15815598
1.8969775 -0.030372147 -1.1877224 0 0 0 255 0.51461154 0.20317832
1.8917047 0 -1.1877224 0 0 0 255 0.51 0.25
1.8969775 0.030372147 -1.1877224 0 0 0 255 0.51461154 0.29682168
1.9125936 0.059577115 -1.1877224 0 0 0 255 0.52826893 0.34184402
1.9379529 0.08649256 -1.1877224 0 0 0 255 0.5504473 0.38333684
1.9720805 0.11008414 -1.1877224 0 0 0 255 0.5802944 0.41970563
2.0136652 0.12944525 -1.1877224 0 0 0 255 0.61666316 0.4495527
2.0611088 0.14383186 -1.1877224 0 0 0 255 0.658156 0.47173107
2.1125884 0.1526911 -1.1877224 0 0 0 255 0.70317835 0.48538846
2.1125884 0.1526911 -1.1877224 0 0 0 255 0.20317832 0.48538846
-2.097508 0.15568249 -1.1877224 0 0 0 255 0.25 0.49
-2.097508 0 -0.027785063 0 0 0 255 0.25 0.25
-2.0439713 0.1526911 -1.1877224 0 0 0 255 0.29682168 0.48538846
-1.9924918 0.14383186 -1.1877224 0 0 0 255 0.34184402 0.47173107
-1.9450481 0.12944525 -1.1877224 0 0 0 255 0.38333684 0.4495527
-1.9034634 0.11008414 -1.1877224 0 0 0 255 0.41970563 0.41970563
-1.8693358 0.08649256 -1.1877224 0 0 0 255 0.4495527 0.38333684
-1.8439765 0.059577115 -1.1877224 0 0 0 255 0.47173107 0.34184402
-1.8283604 0.030372147 -1.1877224 0 0 0 255 0.48538846 0.29682168
-1.8230876 0 -1.1877224 0 0 0 255 0.49 0.25
-1.8283604 -0.030372147 -1.1877224 0 0 0 255 0.48538846 0.20317832
-1.8439765 -0.059577115 -1.1877224 0 0 0 255 0.47173107 0.15815598
-1.8693358 -0.08649256 -1.1877224 0 0 0 255 0.4495527 0.11666314
-1.9034634 -0.11008414 -1.1877224 0 0 0 255 0.41970563 0.080294386
-1.9450481 -0.12944525 -1.1877224 0 0 0 255 0.38333684 0.0504473
-1.9924918 -0.14383186 -1.1877224 0 0 0 255 0.34184402 0.028268918
-2.0439713 -0.1526911 -1.1877224 0 0 0 255 0.29682168 0.014611542
-2.097508 -0.15568249 -1.1877224 0 0 0 255 0.25 0.010000005
-2.1510446 -0.1526911 -1.1877224 0 0 0 255 0.20317832 0.014611542
-2.2025242 -0.14383186 -1.1877224 0 0 0 255 0.15815598 0.028268918
-2.2499678 -0.12944525 -1.1877224 0 0 0 255 0.11666314 0.0504473
-2.2915525 -0.11008414 -1.1877224 0 0 0 255 0.080294386 0.080294386
-2.3256803 -0.08649256 -1.1877224 0 0 0 255 0.0504473 0.11666314
-2.3510394 -0.059577115 -1.1877224 0 0 0 255 0.028268918 0.15815598
-2.3666553 -0.030372147 -1.1877224 0 0 0 255 0.014611542 0.20317832
-2.3719285 0 -1.1877224 0 0 0 255 0.010000005 0.25
-2.3666553 0.030372147 -1.1877224 0 0 0 255 0.014611542 0.29682168
-2.3510394 0.059577115 -1.1877224 0 0 0 255 0.028268918 0.34184402
-2.3256803 0.08649256 -1.1877224 0 0 0 255 0.0504473 0.38333684
-2.2915525 0.11008414 -1.1877224 0 0 0 255 0.080294386 0.41970563
-2.2499678 0.12944525 -1.1877224 0 0 0 255 0.11666314 0.4495527
-2.2025242 0.14383186 -1.1877224 0 0 0 255 0.15815598 0.47173107
-2.097508 0.15568249 -1.1877224 0 0 0 255 0.75 0.49
-2.0439713 0.1526911 -1.1877224 0 0 0 255 0.79682165 0.48538846
-1.9924918 0.14383186 -1.1877224 0 0 0 255 0.841844 0.47173107
-1.9450481 0.12944525 -1.1877224 0 0 0 255 0.88333684 0.4495527
-1.9034634 0.11008414 -1.1877224 0 0 0 255 0.9197056 0.41970563
-1.8693358 0.08649256 -1.1877224 0 0 0 255 0.9495527 0.38333684
-1.8439765 0.059577115 -1.1877224 0 0 0 255 0.97173107 0.34184402
-1.8283604 0.030372147 -1.1877224 0 0 0 255 0.98538846 0.29682168
-1.8230876 0 -1.1877224 0 0 0 255 0.99 0.25
-1.8283604 -0.030372147 -1.1877224 0 0 0 255 0.98538846 0.20317832
-1.8439765 -0.059577115 -1.1877224 0 0 0 255 0.97173107 0.15815598
-1.8693358 -0.08649256 -1.1877224 0 0 0 255 0.9495527 0.11666314
-1.9034634 -0.11008414 -1.1877224 0 0 0 255 0.9197056 0.080294386
-1.9450481 -0.12944525 -1.1877224 0 0 0 255 0.88333684 0.0504473
-1.9924918 -0.14383186 -1.1877224 0 0 0 255 0.841844 0.028268918
-2.0439713 -0.1526911 -1.1877224 0 0 0 255 0.79682165 0.014611542
-2.097508 -0.15568249 -1.1877224 0 0 0 255 0.75 0.010000005
-2.1510446 -0.1526911 -1.1877224 0 0 0 255 0.70317835 0.014611542
-2.2025242 -0.14383186 -1.1877224 0 0 0 255 0.658156 0.028268918
-2.2499678 -0.12944525 -1.1877224 0 0 0 255 0.61666316 0.0504473
-2.2915525 -0.11008414 -1.1877224 0 0 0 255 0.5802944 0.080294386
-2.3256803 -0.08649256 -1.1877224 0 0 0 255 0.5504473 0.11666314
-2.3510394 -0.059577115 -1.1877224 0 0 0 255 0.52826893 0.15815598
-2.3666553 -0.030372147 -1.1877224 0 0 0 255 0.51461154 0.20317832
-2.3719285 0 -1.1877224 0 0 0 255 0.51 0.25
-2.3666553 0.030372147 -1.1877224 0 0 0 255 0.51461154 0.29682168
-2.3510394 0.059577115 -1.1877224 0 0 0 255 0.52826893 0.34184402
-2.3256803 0.08649256 -1.1877224 0 0 0 255 0.5504473 0.38333684
-2.2915525 0.11008414 -1.1877224 0 0 0 255 0.5802944 0.41970563
-2.2499678 0.12944525 -1.1877224 0 0 0 255 0.61666316 0.4495527
-2.2025242 0.14383186 -1.1877224 0 0 0 255 0.658156 0.47173107
-2.1510446 0.1526911 -1.1877224 0 0 0 255 0.70317835 0.48538846
-2.1510446 0.1526911 -1.1877224 0 0 0 255 0.20317832 0.48538846
4 0 1 2 3
4 4 3 5 6
4 7 8 9 10
4 11 12 4 13
4 12 0 3 4
4 10 9 0 12
3 14 15 16
3 16 15 17
3 17 15 18
3 18 15 19
3 19 15 20
3 20 15 21
3 21 15 22
3 22 15 23
3 23 15 24
3 24 15 25
3 25 15 26
3 26 15 27
3 27 15 28
3 28 15 29
3 29 15 30
3 30 15 31
3 31 15 32
3 32 15 33
3 33 15 34
3 34 15 35
3 35 15 36
3 36 15 37
3 37 15 38
3 38 15 39
3 39 15 40
3 40 15 41
3 41 15 42
3 42 15 43
3 43 15 44
3 44 15 45
32 46 47 48 49 50 51 52 53 54 55 56 57 58 59 60 61 62 63 64 65 66 67 68 69 70 71 72 73 74 75 76 77
3 45 15 78
3 78 15 14
4 79 80 81 82
4 82 81 83 84
4 84 83 85 86
4 86 85 87 88
4 88 87 89 90
4 90 89 91 92
4 92 91 93 94
4 94 93 95 96
4 96 95 97 98
4 98 97 99 100
4 100 99 101 102
4 102 101 103 104
4 104 103 105 106
4 106 105 107 108
4 108 107 109 110
4 110 109 111 112
4 112 111 113 114
4 114 113 115 116
4 116 115 117 118
4 118 117 119 120
4 120 119 121 122
4 122 121 123 124
4 124 123 125 126
4 126 125 127 128
4 128 127 129 130
4 130 129 131 132
4 132 131 133 134
4 134 133 135 136
4 136 135 137 138
4 138 137 139 140
32 141 142 143 144 145 146 147 148 149 150 151 152 153 154 155 156 157 158 159 160 161 162 163 164 165 166 167 168 169 170 171 172
4 140 139 173 174
4 174 173 175 176
32 177 178 179 180 181 182 183 184 185 186 187 188 189 190 191 192 193 194 195 196 197 198 199 200 201 202 203 204 205 206 207 208
3 209 210 211
3 211 210 212
3 212 210 213
3 213 210 214
3 214 210 215
3 215 210 216
3 216 210 217
3 217 210 218
3 218 210 219
3 219 210 220
3 220 210 221
3 221 210 222
3 222 210 223
3 223 210 224
3 224 210 225
3 225 210 226
3 226 210 227
3 227 210 228
3 228 210 229
3 229 210 230
3 230 210 231
3 231 210 232
3 232 210 233
3 233 210 234
3 234 210 235
3 235 210 236
3 236 210 237
3 237 210 238
3 238 210 239
3 239 210 240
3 240 210 241
3 241 210 209
4 242 243 244 245
4 245 244 246 247
4 247 246 248 249
4 249 248 250 251
4 251 250 252 253
4 253 252 254 255
4 255 254 256 257
4 257 256 258 259
4 259 258 260 261
4 261 260 262 263
4 263 262 264 265
4 265 264 266 267
4 267 266 268 269
4 269 268 270 271
4 271 270 272 273
4 273 272 274 275
4 275 274 276 277
4 277 276 278 279
4 279 278 280 281
4 281 280 282 283
4 283 282 284 285
4 285 284 286 287
4 287 286 288 289
4 289 288 290 291
4 291 290 292 293
4 293 292 294 295
4 295 294 296 297
4 297 296 298 299
4 299 298 300 301
4 301 300 302 303
32 304 305 306 307 308 309 310 311 312 313 314 315 316 317 318 319 320 321 322 323 324 325 326 327 328 329 330 331 332 333 334 335
4 303 302 336 337
4 337 336 338 339
32 340 341 342 343 344 345 346 347 348 349 350 351 352 353 354 355 356 357 358 359 360 361 362 363 364 365 366 367 368 369 370 371
3 372 373 374
3 374 373 375
3 375 373 376
3 376 373 377
3 377 373 378
3 378 373 379
3 379 373 380
3 380 373 381
3 381 373 382
3 382 373 383
3 383 373 384
3 384 373 385
3 385 373 386
3 386 373 387
3 387 373 388
3 388 373 389
3 389 373 390
3 390 373 391
3 391 373 392
3 392 373 393
3 393 373 394
3 394 373 395
3 395 373 396
3 396 373 397
3 397 373 398
3 398 373 399
3 399 373 400
3 400 373 401
3 401 373 402
3 402 373 403
32 404 405 406 407 408 409 410 411 412 413 414 415 416 417 418 419 420 421 422 423 424 425 426 427 428 429 430 431 432 433 434 435
3 403 373 436
3 436 373 372
3 437 438 439
3 439 438 440
3 440 438 441
3 441 438 442
3 442 438 443
3 443 438 444
3 444 438 445
3 445 438 446
3 446 438 447
3 447 438 448
3 448 438 449
3 449 438 450
3 450 438 451
3 451 438 452
3 452 438 453
3 453 438 454
3 454 438 455
3 455 438 456
3 456 438 457
3 457 438 458
3 458 438 459
3 459 438 460
3 460 438 461
3 461 438 462
3 462 438 463
3 463 438 464
3 464 438 465
3 465 438 466
3 466 438 467
3 467 438 468
32 469 470 471 472 473 474 475 476 477 478 479 480 481 482 483 484 485 486 487 488 489 490 491 492 493 494 495 496 497 498 499 500
3 468 438 501
3 501 438 437
